<svg id="Layer_1" enable-background="new 0 0 512 512" height="512" viewBox="0 0 512 512" width="512" xmlns="http://www.w3.org/2000/svg"><g id="XMLID_1623_"><g id="XMLID_1959_"><path id="XMLID_1914_" d="m10 64h492v384h-492z" fill="#f9f9f9"/><g fill="#9bc6ff"><path id="XMLID_1718_" d="m62 218.654v161.346c0 11.046 8.954 20 20 20 11.046 0 20-8.954 20-20v-161.346z"/><path id="XMLID_1717_" d="m154 318.577v61.423c0 11.046 8.954 20 20 20 11.046 0 20-8.954 20-20v-61.423z"/><path id="XMLID_1716_" d="m246 218.654v161.346c0 11.046 8.954 20 20 20 11.046 0 20-8.954 20-20v-161.346z"/></g><path id="XMLID_1703_" d="m62 165.5v-33.5c0-11.046 8.954-20 20-20 11.046 0 20 8.954 20 20v33.5z" fill="#98a1b3"/><path id="XMLID_1702_" d="m154 265.423v-133.423c0-11.046 8.954-20 20-20 11.046 0 20 8.954 20 20v133.423z" fill="#98a1b3"/><path id="XMLID_1701_" d="m246 165.5v-33.5c0-11.046 8.954-20 20-20 11.046 0 20 8.954 20 20v33.5z" fill="#98a1b3"/><circle id="XMLID_1647_" cx="400" cy="166" fill="#79b2ff" r="62"/><circle id="XMLID_1644_" cx="400" cy="338" fill="#79b2ff" r="62"/><circle id="XMLID_1086_" cx="82" cy="192.077" fill="#f5737f" r="32"/><circle id="XMLID_1085_" cx="174" cy="292" fill="#f5737f" r="32"/><circle id="XMLID_1081_" cx="266" cy="192.077" fill="#f5737f" r="32"/></g><g id="XMLID_555_"><path id="XMLID_556_" d="m502 54h-201c-5.522 0-10 4.477-10 10s4.478 10 10 10h191v364h-472v-364h191c5.522 0 10-4.477 10-10s-4.478-10-10-10h-201c-5.522 0-10 4.477-10 10v384c0 5.522 4.478 10 10 10h492c5.522 0 10-4.478 10-10v-384c0-5.523-4.478-10-10-10z"/><path id="XMLID_598_" d="m82 410c16.542 0 30-13.458 30-30v-158.569c7.416-7.578 12-17.938 12-29.354s-4.584-21.776-12-29.354v-30.723c0-16.542-13.458-30-30-30s-30 13.458-30 30v30.723c-7.416 7.578-12 17.938-12 29.354s4.584 21.776 12 29.354v158.569c0 16.542 13.458 30 30 30zm22-217.923c0 12.131-9.869 22-22 22s-22-9.869-22-22 9.869-22 22-22 22 9.869 22 22zm-22 197.923c-5.514 0-10-4.486-10-10v-147.135c3.207.786 6.554 1.213 10 1.213s6.793-.426 10-1.213v147.135c0 5.514-4.486 10-10 10zm0-268c5.514 0 10 4.486 10 10v19.29c-3.207-.786-6.554-1.213-10-1.213s-6.793.426-10 1.213v-19.29c0-5.514 4.486-10 10-10z"/><path id="XMLID_603_" d="m174 410c16.542 0 30-13.458 30-30v-58.646c7.416-7.578 12-17.938 12-29.354s-4.584-21.776-12-29.354v-130.646c0-16.542-13.458-30-30-30s-30 13.458-30 30v130.646c-7.416 7.578-12 17.938-12 29.354s4.584 21.776 12 29.354v58.646c0 16.542 13.458 30 30 30zm22-118c0 12.131-9.869 22-22 22s-22-9.869-22-22 9.869-22 22-22 22 9.869 22 22zm-22 98c-5.514 0-10-4.486-10-10v-47.213c3.207.786 6.554 1.213 10 1.213s6.793-.426 10-1.213v47.213c0 5.514-4.486 10-10 10zm0-268c5.514 0 10 4.486 10 10v119.213c-3.207-.786-6.554-1.213-10-1.213s-6.793.426-10 1.213v-119.213c0-5.514 4.486-10 10-10z"/><path id="XMLID_608_" d="m236 221.431v158.569c0 16.542 13.458 30 30 30s30-13.458 30-30v-158.569c7.416-7.578 12-17.938 12-29.354s-4.584-21.776-12-29.354v-30.723c0-16.542-13.458-30-30-30s-30 13.458-30 30v30.723c-7.416 7.578-12 17.938-12 29.354s4.584 21.776 12 29.354zm52-29.354c0 12.131-9.869 22-22 22s-22-9.869-22-22 9.869-22 22-22 22 9.869 22 22zm-22 197.923c-5.514 0-10-4.486-10-10v-147.135c3.207.786 6.554 1.213 10 1.213s6.793-.426 10-1.213v147.135c0 5.514-4.486 10-10 10zm0-268c5.514 0 10 4.486 10 10v19.29c-3.207-.786-6.554-1.213-10-1.213s-6.793.426-10 1.213v-19.29c0-5.514 4.486-10 10-10z"/><path id="XMLID_613_" d="m400 238c39.701 0 72-32.299 72-72s-32.299-72-72-72-72 32.299-72 72 32.299 72 72 72zm0-124c28.673 0 52 23.327 52 52s-23.327 52-52 52-52-23.327-52-52 23.327-52 52-52z"/><path id="XMLID_614_" d="m378.063 176c5.522 0 10-4.477 10-10 0-6.583 5.355-11.938 11.938-11.938 5.522 0 10-4.477 10-10s-4.478-10-10-10c-17.61 0-31.938 14.327-31.938 31.938 0 5.523 4.477 10 10 10z"/><path id="XMLID_617_" d="m400 410c39.701 0 72-32.299 72-72s-32.299-72-72-72-72 32.299-72 72 32.299 72 72 72zm0-124c28.673 0 52 23.327 52 52s-23.327 52-52 52-52-23.327-52-52 23.327-52 52-52z"/><path id="XMLID_619_" d="m378.063 348c5.522 0 10-4.478 10-10 0-6.582 5.355-11.938 11.938-11.938 5.522 0 10-4.478 10-10s-4.478-10-10-10c-17.61 0-31.938 14.327-31.938 31.938 0 5.522 4.477 10 10 10z"/><path id="XMLID_1328_" d="m256 74c2.63 0 5.21-1.07 7.069-2.93 1.861-1.86 2.931-4.44 2.931-7.07s-1.07-5.21-2.931-7.07c-1.859-1.86-4.439-2.93-7.069-2.93s-5.21 1.07-7.07 2.93-2.93 4.44-2.93 7.07 1.069 5.21 2.93 7.07 4.44 2.93 7.07 2.93z"/></g></g></svg>