<?xml version="1.0" encoding="utf-8"?>
<!-- Generator: Adobe Illustrator 24.2.3, SVG Export Plug-In . SVG Version: 6.00 Build 0)  -->
<svg version="1.1" id="Layer_1" xmlns="http://www.w3.org/2000/svg" xmlns:xlink="http://www.w3.org/1999/xlink" x="0px" y="0px"
	 viewBox="0 0 3973.6 1157.1" style="enable-background:new 0 0 3973.6 1157.1;" xml:space="preserve">
<style type="text/css">
	.st0{fill:none;stroke:#F2D067;stroke-width:9;stroke-miterlimit:10;}
	.st1{fill:#EC2027;}
	.st2{fill:#C1272D;}
	.st3{fill:#3BB54A;}
	.st4{fill:none;}
	.st5{fill:url(#SVGID_1_);}
	.st6{fill:url(#SVGID_2_);}
	.st7{fill:url(#SVGID_3_);}
	.st8{fill:url(#SVGID_4_);}
	.st9{fill:url(#SVGID_5_);}
	.st10{fill:url(#SVGID_6_);}
	.st11{fill:url(#SVGID_7_);}
	.st12{fill:url(#SVGID_8_);}
	.st13{fill:url(#SVGID_9_);}
	.st14{fill:url(#SVGID_10_);}
	.st15{fill:url(#SVGID_11_);}
	.st16{fill:url(#SVGID_12_);}
	.st17{fill:url(#SVGID_13_);}
	.st18{fill:url(#SVGID_14_);}
	.st19{fill:url(#SVGID_15_);}
	.st20{fill:url(#SVGID_16_);}
	.st21{fill:url(#SVGID_17_);}
	.st22{fill:url(#SVGID_18_);}
	.st23{fill:url(#SVGID_19_);}
	.st24{fill:#F2D067;}
	.st25{fill:#FFFFFF;stroke:#200F10;stroke-width:19;stroke-linecap:round;stroke-linejoin:round;stroke-miterlimit:10;}
	.st26{fill:url(#SVGID_20_);}
	.st27{fill:url(#SVGID_21_);}
	.st28{fill:none;stroke:#200F10;stroke-width:12.9999;stroke-linecap:round;stroke-linejoin:round;stroke-miterlimit:9.9999;}
	.st29{fill:#200F10;}
	.st30{fill:url(#SVGID_22_);}
	.st31{fill:url(#SVGID_23_);}
	.st32{fill:url(#SVGID_24_);}
	.st33{fill:url(#SVGID_25_);}
	.st34{fill:url(#SVGID_26_);}
	.st35{fill:url(#SVGID_27_);}
	.st36{fill:url(#SVGID_28_);}
	.st37{fill:url(#SVGID_29_);}
	.st38{fill:url(#SVGID_30_);}
	.st39{fill:#606161;}
	.st40{fill:url(#SVGID_31_);}
	.st41{fill:#FFF4A3;}
</style>
<path class="st0" d="M-3093.4,2124.7c1.9-4.8,2.8-10.1,2.7-16.1c0.8-16.1-12.7-34.8-33.4-37.8c-12.7-1.9-24.1,1.6-33.4,10.7
	c-12.1,11.8-23.9,23.8-35.9,35.8c-5.7,5.7-12,6.2-17.8,1.6c18.7,16.3,63.7,45.7,116.3,9.2l0,0L-3093.4,2124.7z"/>
<g id="Group_2" transform="translate(-1635.178 -193.438)">
	<path id="Path_18" class="st1" d="M-2188.6,3216l31.7-44.1c-4.2-4.2-8.3-7.1-12.5-11.2l-1.1-1.1c-0.5,0.4-0.9,0.8-1.2,1.1
		c-9,9-18.1,18.1-27.1,27.1c-0.6,0.6-1.2,1.3-1.8,1.9c-5.1,6.2-5,15.1,0.2,21.1c2.9,3.3,7,5.4,11.4,5.7L-2188.6,3216z"/>
	<path id="Path_19" class="st1" d="M-2145.8,3192.1c-4.5-4.5-9-9-13.5-13.5l-25.5,39.8c0.2,0,0.4,0,0.6,0.1c0.2-0.3,0.5-0.5,0.8-0.7
		c2.8-1.9,5.1-4.5,7.6-6.8c1.2-1.2,1.2-1.2,2.4,0c2.2,2.1,4.2,4.5,6.7,6.3c7.1,5.1,16.5,3.7,22.2-3
		C-2139.2,3207.7-2139.7,3198.1-2145.8,3192.1z"/>
</g>
<path id="Path_20" class="st2" d="M-3757.5,2974.8c-7.7-8.9-18.8-14-30.6-14c-2.5,0-4.9,0.2-7.3,0.7l5.9,5.9
	c6.5,6.5,13,13,19.5,19.5c10.2,10.2,11,26.6,1.8,37.4c-5.3,6.3-13.1,10-21.4,10.1c-5.8,0-11.4-1.8-16-5.2c-0.5-0.3-0.9-0.7-1.4-1.1
	c-0.8,0.6-1.6,1.2-2.4,1.8c-4.4,2.9-9.6,4.5-14.8,4.5c-8.1,0-15.7-3.5-21-9.6c-4.3-4.9-6.7-11.2-6.7-17.8
	c-0.1-6.5,2.2-12.9,6.3-17.9c0.8-1,1.6-1.9,2.5-2.7c8.3-8.3,16.5-16.6,24.8-24.8c-2.4-0.4-4.9-0.7-7.3-0.7
	c-12,0.1-23.4,5.4-31.1,14.6c-6.6,7.8-9.9,17.8-9.3,27.9c0.5,10,4.8,19.5,11.9,26.6c7.1,7.1,14.1,14.2,21.2,21.2l8.9,8.9l16.4,16.4
	l15.9-14.5c0.1-0.1,0.2-0.2,0.3-0.3c0.4-0.4,1.1-1,1.8-1.7c9.8-9.8,19.6-19.6,29.4-29.4c1.2-1.2,2.3-2.4,3.3-3.7
	c6.1-7.4,9.3-16.6,9.2-26.1C-3747.7,2991.2-3751.2,2982-3757.5,2974.8z M-3793.4,3050.7c0,1.1-0.9,1.9-1.9,1.9l0,0h-23
	c-1.1,0-1.9-0.9-1.9-1.9l0,0v-1.9c0-1.1,0.9-1.9,1.9-1.9l0,0h23c1.1,0,1.9,0.9,1.9,1.9l0,0V3050.7z"/>
<path id="Path_21" class="st1" d="M-3806.7,2935l-1.1-1.1c-9.2-9.2-18.5-18.5-27.7-27.7c-6-5.9-6.6-15.5-1.2-22
	c5.7-6.7,15.1-8.1,22.1-3c2.5,1.8,4.5,4.2,6.7,6.3c1.2,1.2,1.2,1.2,2.4,0c2.5-2.3,4.8-4.9,7.6-6.8c6.7-4.5,15.7-2.9,21,3.2
	c5.2,6,5.3,14.9,0.2,21.1c-0.6,0.7-1.1,1.3-1.8,1.9c-9,9-18,18-27,27C-3805.8,2934.2-3806.2,2934.5-3806.7,2935z"/>
<path id="Path_22" class="st3" d="M-3747.7,2897.8c-0.5-10-4.8-19.4-11.8-26.5s-14.1-14.1-21.2-21.2l-8.9-8.9l-16.4-16.4l-15.9,14.5
	c-0.1,0.1-0.2,0.2-0.3,0.3c-0.4,0.4-1.1,1-1.8,1.7c-9.8,9.8-19.5,19.5-29.3,29.3c-1.2,1.2-2.3,2.4-3.3,3.7c-6,7.3-9.3,16.6-9.2,26.1
	s3.6,18.7,9.8,25.9c7.7,8.8,18.8,13.9,30.5,14c2.5,0,4.9-0.2,7.3-0.7l-5.9-5.9c-6.5-6.5-13-13-19.4-19.5
	c-10.1-10.2-10.9-26.5-1.8-37.3c5.3-6.3,13.1-10,21.3-10.1c5.7,0,11.3,1.8,16,5.2c0.5,0.3,0.9,0.7,1.4,1.1c0.8-0.6,1.6-1.2,2.4-1.8
	c4.4-2.9,9.5-4.5,14.8-4.5c8,0,15.7,3.5,21,9.6c4.3,4.9,6.7,11.2,6.7,17.7c0.1,6.5-2.2,12.9-6.3,17.9c-0.8,0.9-1.6,1.9-2.5,2.7
	c-8.2,8.3-16.5,16.5-24.7,24.7c2.4,0.4,4.8,0.7,7.3,0.7c12-0.1,23.3-5.4,31-14.5C-3750.4,2917.9-3747.1,2907.9-3747.7,2897.8z
	 M-3794.1,2852.9c0,1-0.8,1.7-1.7,1.7h-7.9v7.9c0,1-0.8,1.7-1.7,1.7l0,0h-1.7c-1,0-1.7-0.8-1.7-1.7l0,0v-7.9h-7.9
	c-1,0-1.7-0.8-1.7-1.7l0,0v-1.7c0-1,0.8-1.7,1.7-1.7l0,0h7.9v-7.9c0-1,0.8-1.7,1.7-1.7l0,0h1.7c1,0,1.7,0.8,1.7,1.7v7.9h7.9
	c1,0,1.7,0.8,1.7,1.7V2852.9z"/>
<path class="st4" d="M-3263.6,3022c0.1-0.8-0.3-1.6-1.1-2.1c-0.6-0.3-1.2-0.4-1.8-0.3h-2.2v4.8h2.7c1.2,0.1,2.3-0.8,2.4-2.1
	C-3263.6,3022.2-3263.6,3022.1-3263.6,3022z"/>
<path class="st4" d="M-3393.7,2991.5c0.1,0,0.2,0,0.3,0c0.1-0.5,0.2-1,0.3-1.5C-3393.3,2990.5-3393.5,2991-3393.7,2991.5z"/>
<path class="st4" d="M-3330.2,3019.5c-2.7-0.1-5,2-5.1,4.8c0,0.1,0,0.2,0,0.4c-0.1,2.8,2,5.2,4.8,5.3h0.1c2.8-0.1,5-2.4,4.9-5.2
	v-0.1C-3325.4,3021.8-3327.5,3019.6-3330.2,3019.5z"/>
<path class="st4" d="M-3330.2,3019.5c-2.7-0.1-5,2-5.1,4.8c0,0.1,0,0.2,0,0.4c-0.1,2.8,2,5.2,4.8,5.3h0.1c2.8-0.1,5-2.4,4.9-5.2
	v-0.1C-3325.4,3021.8-3327.5,3019.6-3330.2,3019.5z"/>
<path class="st4" d="M-3307,2968.7c-0.2,0-0.5,0-0.7,0c-4.3,0-8,3-8.7,7.3h15.5C-3301,2971.7-3303.3,2969-3307,2968.7z"/>
<path class="st4" d="M-3263.6,3022c0.1-0.8-0.3-1.6-1.1-2.1c-0.6-0.3-1.2-0.4-1.8-0.3h-2.2v4.8h2.7c1.2,0.1,2.3-0.8,2.4-2.1
	C-3263.6,3022.2-3263.6,3022.1-3263.6,3022z"/>
<radialGradient id="SVGID_1_" cx="-3383.5447" cy="-1758.4644" r="130.8239" gradientTransform="matrix(1 0 0 -1 0 1158)" gradientUnits="userSpaceOnUse">
	<stop  offset="0" style="stop-color:#F5DB91"/>
	<stop  offset="1" style="stop-color:#F2D067"/>
</radialGradient>
<path class="st5" d="M-3377,2940.5c-2.1,0.3-3.7,2-3.9,4.1c-1.8,10-3.6,20.1-5.4,30.1c-0.1,0.3-0.1,0.7-0.2,1
	c-0.4,2.2-0.8,4.5-1.2,6.7c-0.6,3.1-1.1,6.3-1.7,9.4c-0.1,0.3-0.1,0.7-0.2,1c-0.5,2.6-0.9,5.1-1.4,7.7c-0.5,2.7,0.6,4,3.3,4.1
	c1.3,0.1,2.6,0.1,3.9,0.1c1.3,0,2.5,0,3.8,0c3.4-0.1,4.9-1.4,5.5-4.8c0.4-2.4,0.9-4.9,1.3-7.3c0.1-0.3,0.1-0.7,0.2-1
	c0.5-2.9,1-5.8,1.6-8.8c0.1-0.3,0.1-0.7,0.2-1c0.4-1.9,0.9-3.9,1.6-5.7c0.2-0.5,0.5-1,0.8-1.5c0.3-0.4,0.7-0.8,1.1-1.2
	c1.3-1.1,2.9-1.7,4.6-1.7c0.6,0,1.2,0.1,1.8,0.3c0.1,0,0.1,0,0.2,0c0.5,0.1,0.9,0.4,1.2,0.6c1.8,1.1,2.5,3.3,2.1,6.4
	c0,0.2,0,0.4-0.1,0.6c-0.5,3.2-1.1,6.4-1.7,9.6c-0.1,0.4-0.1,0.7-0.2,1.1c-0.5,3.2-1.1,6.4-1.6,9.5c-0.6,3.7,0.3,4.9,3.9,4.9
	c1.2,0,2.3,0,3.5,0s2.3,0,3.5,0c3.5-0.1,5-1.2,5.6-4.7c1-5.1,2-10.3,2.8-15.5c0-0.1,0-0.2,0.1-0.3c0.1-0.4,0.1-0.8,0.2-1.2
	c0.6-3.7,1-7.4,1.1-11.1c0-0.2,0-0.4,0-0.6c-0.1-2.3-0.6-4.4-1.5-6.2c-0.1-0.3-0.3-0.6-0.5-0.9c-2.5-4.1-7-6.6-12.5-6.8
	c-0.2,0-0.3,0-0.5,0c-4.4,0-8.6,1.4-12.2,4c0.5-2.6,0.8-4.6,1.2-6.7c0.7-4,1.5-7.9,2.1-11.9c0.4-2.5-0.7-4.1-2.7-4.1
	c-0.2,0-0.4,0-0.6,0C-3370.7,2939.2-3373.9,2939.9-3377,2940.5z"/>
<radialGradient id="SVGID_2_" cx="-3383.5447" cy="-1758.4644" r="130.8239" gradientTransform="matrix(1 0 0 -1 0 1158)" gradientUnits="userSpaceOnUse">
	<stop  offset="0" style="stop-color:#F5DB91"/>
	<stop  offset="1" style="stop-color:#F2D067"/>
</radialGradient>
<path class="st6" d="M-3450.6,2965.3c0.3-0.6,0.7-1.1,1-1.7c0.7-1.2,1.5-3.3,0.9-4.1c-0.7-1-2.7-1.3-4.2-1.5c-0.5-0.1-1-0.1-1.5-0.1
	c-0.8,0-1.6,0.1-2.4,0.1c-0.2,0-0.4,0-0.5,0c-0.2,0-0.3,0-0.5,0c-0.3,0-0.6-0.1-0.9-0.1l0,0c-3,0-5.7,1.8-6.9,4.6
	c-2.8,5.3-5.6,10.5-8.4,15.8c-1,1.9-2,3.7-3.3,6.1c-0.3-1.1-0.4-1.6-0.5-2.1c-1.3-6.8-2.5-13.6-3.9-20.4c-0.6-3-1.9-3.9-4.9-3.9
	c-1.1,0-2.2,0-3.2,0c-1.2,0-2.4,0-3.5,0c-4.3,0-5.6,1.7-4.5,5.8c3,10.8,5.8,21.6,9,32.4c1,2.7,0.6,5.7-1,8.1c-2.4,3.7-3.5,5-6.2,5
	c-1,0-2.2-0.2-3.8-0.5c-0.3-0.1-0.6-0.1-1-0.1c-1.3,0-2.5,0.8-3,2.1c-0.8,1.7-1.5,3.4-2.3,5.1c-1.5,3.3-0.9,4.7,2.7,5.6
	c2.2,0.6,4.4,0.9,6.5,0.9c4.6,0,8.9-1.4,12.7-4.7c2.9-2.6,5.4-5.5,7.4-8.8c4.4-6.8,8.4-13.8,12.5-20.7c4.4-7.3,8.8-14.6,13.1-21.9
	C-3451,2965.9-3450.8,2965.6-3450.6,2965.3z"/>
<radialGradient id="SVGID_3_" cx="-3383.5447" cy="-1758.4644" r="130.8239" gradientTransform="matrix(1 0 0 -1 0 1158)" gradientUnits="userSpaceOnUse">
	<stop  offset="0" style="stop-color:#F5DB91"/>
	<stop  offset="1" style="stop-color:#F2D067"/>
</radialGradient>
<path class="st7" d="M-3501.3,2942.9c0.5-2.8-0.6-4.3-2.9-4.3c-0.4,0-0.9,0-1.3,0.1c-2.4,0.4-4.8,0.8-7.2,1.3c-4,0.8-5,1.8-5.7,5.8
	c-2.1,11.3-4.1,22.7-6.2,34c-1.2,6.7-2.4,13.3-3.6,20c-0.6,3.6,0.4,4.7,4.1,4.8c0.4,0,0.8,0,1.1,0c0.8,0,1.5,0,2.3,0h2.2
	c5.3,0,6.3-0.9,7.3-6c1.8-9.9,3.6-19.8,5.3-29.7C-3504.4,2960.2-3502.8,2951.6-3501.3,2942.9z"/>
<radialGradient id="SVGID_4_" cx="-3383.5447" cy="-1758.4644" r="130.8239" gradientTransform="matrix(1 0 0 -1 0 1158)" gradientUnits="userSpaceOnUse">
	<stop  offset="0" style="stop-color:#F5DB91"/>
	<stop  offset="1" style="stop-color:#F2D067"/>
</radialGradient>
<path class="st8" d="M-3344,3029.9c-0.1,0-0.1,0-0.2,0c-2.8-0.1-4.9-2.5-4.8-5.3c0-0.1,0-0.2,0-0.3c0-2.7,2.3-4.8,5-4.8
	c1.4,0,2.8,0.5,3.9,1.5l0.9-1.4c-1.3-1.2-3.1-1.8-4.9-1.8l0,0c-3.7,0.1-6.7,3.1-6.8,6.8c-0.1,3.8,3,7,6.8,7c1.9,0,3.8-0.7,5.2-2.1
	l-1-1.3C-3341,3029.2-3342.4,3029.8-3344,3029.9z"/>
<radialGradient id="SVGID_5_" cx="-3383.5447" cy="-1758.4644" r="130.8239" gradientTransform="matrix(1 0 0 -1 0 1158)" gradientUnits="userSpaceOnUse">
	<stop  offset="0" style="stop-color:#F5DB91"/>
	<stop  offset="1" style="stop-color:#F2D067"/>
</radialGradient>
<polygon class="st9" points="-3389.3,3018 -3391.2,3018 -3391.1,3031.4 -3383.3,3031.4 -3383.3,3029.7 -3389.3,3029.7 "/>
<radialGradient id="SVGID_6_" cx="-3383.5447" cy="-1758.4644" r="130.8239" gradientTransform="matrix(1 0 0 -1 0 1158)" gradientUnits="userSpaceOnUse">
	<stop  offset="0" style="stop-color:#F5DB91"/>
	<stop  offset="1" style="stop-color:#F2D067"/>
</radialGradient>
<polygon class="st10" points="-3363.8,3025.4 -3359.1,3025.4 -3359.1,3023.8 -3363.8,3023.8 -3363.8,3019.6 -3358,3019.6 
	-3358,3018 -3365.7,3018 -3365.7,3031.4 -3357.6,3031.4 -3357.6,3029.7 -3363.8,3029.7 "/>
<radialGradient id="SVGID_7_" cx="-3383.5447" cy="-1758.4644" r="130.8239" gradientTransform="matrix(1 0 0 -1 0 1158)" gradientUnits="userSpaceOnUse">
	<stop  offset="0" style="stop-color:#F5DB91"/>
	<stop  offset="1" style="stop-color:#F2D067"/>
</radialGradient>
<path class="st11" d="M-3447.6,2968.2c-0.2,0.3-0.3,0.6-0.5,0.8c0.1,0.1,0.2,0.2,0.3,0.3
	C-3447.8,2968.9-3447.7,2968.5-3447.6,2968.2z"/>
<radialGradient id="SVGID_8_" cx="-3383.5447" cy="-1758.4644" r="130.8239" gradientTransform="matrix(1 0 0 -1 0 1158)" gradientUnits="userSpaceOnUse">
	<stop  offset="0" style="stop-color:#F5DB91"/>
	<stop  offset="1" style="stop-color:#F2D067"/>
</radialGradient>
<rect x="-3381.1" y="3018" class="st12" width="1.9" height="13.4"/>
<radialGradient id="SVGID_9_" cx="-3383.5447" cy="-1758.4644" r="130.8239" gradientTransform="matrix(1 0 0 -1 0 1158)" gradientUnits="userSpaceOnUse">
	<stop  offset="0" style="stop-color:#F5DB91"/>
	<stop  offset="1" style="stop-color:#F2D067"/>
</radialGradient>
<path class="st13" d="M-3395.7,2973.9c-0.2-1.2-0.6-2.5-1-3.7c-2.6-7.7-9.8-12.8-17.8-12.8c-0.4,0-0.9,0-1.3,0
	c-4.4,0.2-8,1.9-11.4,4.8c-0.3,0.2-0.5,0.5-0.8,0.7c-0.4,0.3-0.7,0.7-1.1,1c0-0.6,0-1.2,0-1.7s0-0.9-0.1-1.3
	c-0.3-2.2-1.2-2.8-3.9-2.9c-0.5,0-1,0-1.6,0l0,0l0,0c-0.5,0-1,0-1.5,0c-3.1,0-4.7,0.7-5.6,2.5c-0.4,0.8-0.7,1.7-0.9,3
	c-0.5,2.5-0.9,5.1-1.4,7.6c-0.1,0.4-0.1,0.7-0.2,1.1c-1.2,6.7-2.4,13.4-3.6,20c-1.5,8.2-3,16.5-4.4,24.7c-0.7,4,0.4,5.2,4.4,5.2
	c0.6,0,1.1,0,1.7,0c1.1,0,2.3,0,3.4,0c5.4,0,6.5-1,7.4-6.2c0.8-4.8,1.7-9.6,2.6-14.5c4.8,2.7,9.5,4,13.9,4c5.4,0,10.5-2,14.9-5.9
	c2.4-2.3,4.3-4.9,5.7-7.8c0.2-0.3,0.3-0.6,0.4-0.9c1.3-2.9,2.2-6,2.4-9.2c0.2-2.3,0.1-4.5-0.2-6.8
	C-3395.6,2974.6-3395.7,2974.2-3395.7,2973.9z M-3413.6,2987.3c-0.2,0.3-0.4,0.6-0.7,0.8c-0.6,0.7-1.3,1.3-2.1,1.9
	c-1.5,1.2-3.4,1.8-5.2,1.8c-1.4,0-2.9-0.4-4.2-1.1c-2.8-1.5-4.5-4.4-4.4-7.5l0,0c0-0.6,0-1.2,0.1-1.8c0-0.4,0.1-0.7,0.1-1.1
	c0.6-3.7,2.5-6.5,5.2-7.9c0.5-0.2,0.9-0.5,1.4-0.6c0.7-0.3,1.4-0.5,2.1-0.6c0.4,0,0.7-0.1,1.1-0.1c3.9,0,7.3,2.8,8,6.7
	c0,0.2,0.1,0.3,0.1,0.5C-3411.4,2981.7-3411.9,2984.8-3413.6,2987.3z"/>
<radialGradient id="SVGID_10_" cx="-3383.5447" cy="-1758.4644" r="130.8239" gradientTransform="matrix(1 0 0 -1 0 1158)" gradientUnits="userSpaceOnUse">
	<stop  offset="0" style="stop-color:#F5DB91"/>
	<stop  offset="1" style="stop-color:#F2D067"/>
</radialGradient>
<polygon class="st14" points="-3375.6,3031.4 -3373.7,3031.4 -3373.7,3025.6 -3369,3025.6 -3369,3024 -3373.7,3024 -3373.7,3019.6 
	-3368.2,3019.6 -3368.2,3018 -3375.6,3018 "/>
<radialGradient id="SVGID_11_" cx="-3383.5447" cy="-1758.4644" r="130.8239" gradientTransform="matrix(1 0 0 -1 0 1158)" gradientUnits="userSpaceOnUse">
	<stop  offset="0" style="stop-color:#F5DB91"/>
	<stop  offset="1" style="stop-color:#F2D067"/>
</radialGradient>
<polygon class="st15" points="-3294.4,3019.6 -3289.8,3019.6 -3289.8,3031.4 -3287.9,3031.4 -3287.9,3019.6 -3283.3,3019.6 
	-3283.3,3018 -3294.4,3018 "/>
<radialGradient id="SVGID_12_" cx="-3383.5447" cy="-1758.4644" r="130.8239" gradientTransform="matrix(1 0 0 -1 0 1158)" gradientUnits="userSpaceOnUse">
	<stop  offset="0" style="stop-color:#F5DB91"/>
	<stop  offset="1" style="stop-color:#F2D067"/>
</radialGradient>
<path class="st16" d="M-3330.4,3017.7c-0.1,0-0.1,0-0.2,0c-3.7,0-6.7,3.1-6.7,6.8c0,0.1,0,0.1,0,0.2c0.1,3.8,3.2,6.8,7,6.8
	c3.8-0.1,6.8-3.2,6.8-7c0-0.1,0-0.1,0-0.2C-3323.6,3020.7-3326.7,3017.7-3330.4,3017.7z M-3330.4,3029.9h-0.1
	c-2.8-0.1-5-2.5-4.8-5.3c0-0.1,0-0.2,0-0.4c0.1-2.7,2.4-4.9,5.1-4.8c2.7,0.1,4.9,2.4,4.8,5.1v0.1
	C-3325.4,3027.5-3327.6,3029.8-3330.4,3029.9z"/>
<radialGradient id="SVGID_13_" cx="-3383.5447" cy="-1758.4644" r="130.8239" gradientTransform="matrix(1 0 0 -1 0 1158)" gradientUnits="userSpaceOnUse">
	<stop  offset="0" style="stop-color:#F5DB91"/>
	<stop  offset="1" style="stop-color:#F2D067"/>
</radialGradient>
<path class="st17" d="M-3312.3,3026.6c-0.1,1.8-1.5,3.2-3.2,3.3c-1.9,0.1-3.5-1.4-3.5-3.2v-8.6h-1.9v8.6c0.2,2.7,2.3,4.8,5,5
	c2.9,0.2,5.4-2.1,5.6-5v-8.6h-1.9v8.5H-3312.3z"/>
<radialGradient id="SVGID_14_" cx="-3383.5447" cy="-1758.4644" r="130.8239" gradientTransform="matrix(1 0 0 -1 0 1158)" gradientUnits="userSpaceOnUse">
	<stop  offset="0" style="stop-color:#F5DB91"/>
	<stop  offset="1" style="stop-color:#F2D067"/>
</radialGradient>
<path class="st18" d="M-3292.6,2992.7c-1.6-2.1-2.4-3.1-3.5-3.1c-0.9,0-2,0.7-3.9,1.9c-2.5,1.7-5.3,2.5-8.2,2.5
	c-1.6,0-3.2-0.3-4.8-0.8c-3.5-1-5.8-4.5-5.2-8.2h2.6c4.8,0,9.6,0,14.4,0c3.6,0,7.2,0,10.8,0c0.2,0,0.4,0,0.6,0c2,0,3.8-1.4,4.3-3.4
	c2.7-9.4-2.2-19.2-11.2-22.8c-2.8-1.1-5.7-1.6-8.7-1.7c-0.2,0-0.4,0-0.6,0c-0.2,0-0.5,0-0.7,0c-10.1,0.3-20.1,5.9-24.7,15
	c-1.1,2.2-1.9,4.5-2.3,6.8c-0.1,0.4-0.2,0.8-0.2,1.3c-1.2,8.6,2.2,17,9.3,21.6c4.1,2.6,9.4,3.9,14.7,3.9c5.8,0,11.6-1.5,15.9-4.5
	C-3289.5,2998.2-3289.3,2996.9-3292.6,2992.7z M-3307.7,2968.6c0.2,0,0.5,0,0.7,0c3.7,0.4,6,3.1,6.1,7.3h-15.5
	C-3315.7,2971.7-3311.9,2968.6-3307.7,2968.6z"/>
<radialGradient id="SVGID_15_" cx="-3383.5447" cy="-1758.4644" r="130.8239" gradientTransform="matrix(1 0 0 -1 0 1158)" gradientUnits="userSpaceOnUse">
	<stop  offset="0" style="stop-color:#F5DB91"/>
	<stop  offset="1" style="stop-color:#F2D067"/>
</radialGradient>
<path class="st19" d="M-3264.1,3025.6L-3264.1,3025.6c0.9-0.4,1.6-1.1,2-2c1-2,0.1-4.4-1.9-5.3c-0.8-0.3-1.7-0.4-2.5-0.3h-4.1v13.4
	h1.9v-5.3h2.9l2.8,5.3h2.1l-2.8-5.2C-3263.8,3025.9-3263.9,3025.7-3264.1,3025.6z M-3266,3024.4h-2.7v-4.8h2.2
	c0.6-0.1,1.3,0,1.8,0.3c0.7,0.4,1.1,1.2,1.1,2.1c0,0.1,0,0.2,0,0.4C-3263.7,3023.6-3264.7,3024.5-3266,3024.4z"/>
<radialGradient id="SVGID_16_" cx="-3383.5447" cy="-1758.4644" r="130.8239" gradientTransform="matrix(1 0 0 -1 0 1158)" gradientUnits="userSpaceOnUse">
	<stop  offset="0" style="stop-color:#F5DB91"/>
	<stop  offset="1" style="stop-color:#F2D067"/>
</radialGradient>
<path class="st20" d="M-3241.4,2958.1c-2-0.5-3.9-0.8-5.8-0.8c-4.1,0-7.9,1.4-11.4,4.4c-0.6,0.5-1.2,1-2,1.8
	c-0.1-4.9-0.8-5.5-5.3-5.5c-0.6,0-1.3,0-1.9,0c-0.3,0-0.6,0-1,0c-3.4,0.1-5.2,1.4-5.8,4.7c-2.3,12.5-4.5,25.1-6.7,37.6
	c-0.5,2.7,0.7,4.2,3.5,4.3c1.2,0.1,2.5,0.1,3.7,0.1c1.3,0,2.6,0,3.8,0c3.7-0.1,5.2-1.3,5.9-5c1.3-7,2.4-14,3.8-20.9
	c1-4.8,4.1-7.3,8.7-7.3c0.4,0,0.9,0,1.4,0.1c1.1,0.1,2.2,0.3,3.3,0.7c0.1,0.1,0.3,0.1,0.4,0.2c0.4,0.1,0.7,0.2,1.1,0.2
	c1.4,0,2.6-0.9,3.1-2.2c1.2-2.5,2.4-5.1,3.5-7.7C-3238.1,2960.1-3238.7,2958.9-3241.4,2958.1z"/>
<radialGradient id="SVGID_17_" cx="-3383.5447" cy="-1758.4644" r="130.8239" gradientTransform="matrix(1 0 0 -1 0 1158)" gradientUnits="userSpaceOnUse">
	<stop  offset="0" style="stop-color:#F5DB91"/>
	<stop  offset="1" style="stop-color:#F2D067"/>
</radialGradient>
<polygon class="st21" points="-3279.5,3025.4 -3274.7,3025.4 -3274.7,3023.8 -3279.5,3023.8 -3279.5,3019.6 -3273.6,3019.6 
	-3273.6,3018 -3281.4,3018 -3281.4,3031.4 -3273.3,3031.4 -3273.3,3029.7 -3279.5,3029.7 "/>
<radialGradient id="SVGID_18_" cx="-3383.5447" cy="-1758.4644" r="130.8239" gradientTransform="matrix(1 0 0 -1 0 1158)" gradientUnits="userSpaceOnUse">
	<stop  offset="0" style="stop-color:#F5DB91"/>
	<stop  offset="1" style="stop-color:#F2D067"/>
</radialGradient>
<path class="st22" d="M-3298.2,3026.7c0,0.7,0.1,1.9,0.1,1.9l0,0c0,0-0.6-1.2-1.1-1.9l-6-8.7h-1.9v13.4h1.9v-8.7c0-0.8-0.1-2-0.1-2
	l0,0c0,0,0.6,1.2,1.1,2l6,8.7h1.8V3018h-1.9L-3298.2,3026.7L-3298.2,3026.7z"/>
<path class="st4" d="M-2886.8,2795.5L-2886.8,2795.5c0.7,0.4,1.5,0.6,2.3,0.6c1,0,2-0.3,2.8-1l0.1-0.1c0.1,0,0.1-0.1,0.2-0.1
	c-2.6-1-5.2-2-7.7-3.2C-2889.1,2793.3-2888.2,2794.7-2886.8,2795.5z"/>
<path class="st4" d="M-2775.5,2797.3c0.2,0.1,0.5,0.3,0.8,0.3c0.1,0,0.1,0,0.2,0.1c1.1,0.4,2.3,0.6,3.5,0.6c1.6,0,3.1-0.3,4.5-1
	c-1.5,0-3,0-4.6,0C-2772.7,2797.3-2774.1,2797.3-2775.5,2797.3z"/>
<path class="st4" d="M-2920.2,2762.2c0.2,0,0.4,0,0.6,0c0.3,0,0.7,0,1,0c0.4,0,0.9,0,1.3,0c0.8,0,1.4,0,2.1,0.1h0.2
	c2,0.3,5,0.7,6.7,3c0.2,0.3,0.3,0.5,0.5,0.8c0.1-0.1,0.1-0.2,0.2-0.3c-14-14.2-22.3-33.4-21.6-54.6c1.4-44.3,41.1-80.5,88.7-81
	c47.6-0.4,85.1,35.1,83.7,79.4c-0.6,20.7-9.7,39.6-24,54c3.8-1.4,7.8-2.3,11.9-2.3c0.8,0,1.7,0,2.5,0.1c11.4-14.6,18.4-32.4,19-51.6
	c0.7-22.8-7.7-44.5-23.8-61c-17.3-17.9-42.3-28.1-68.5-28.1h-1c-52.6,0.5-96.6,40.9-98.1,90.2c-0.6,18.5,4.9,36.4,15.6,51.3
	c0.6-0.1,1.1-0.1,1.7-0.1C-2921,2762.1-2920.6,2762.1-2920.2,2762.2z"/>
<path class="st4" d="M-2824.6,2788.1c-1.7,0.4-3.3,0.7-5,1c-0.2,0.8-0.3,1.5-0.5,2.3v0.1c-0.5,2.5-0.9,5-1.4,7.5
	c1.7-0.3,3.5-0.5,5.2-0.9c0.1-0.7,0.2-1.4,0.4-2.1C-2825.6,2793.5-2825.1,2790.8-2824.6,2788.1z"/>
<path class="st4" d="M-2726.5,2830.2c0.1-0.8-0.3-1.6-1.1-2.1c-0.6-0.3-1.2-0.4-1.8-0.3h-2.2v4.8h2.7c1.2,0.1,2.3-0.8,2.4-2.1
	C-2726.5,2830.4-2726.5,2830.3-2726.5,2830.2z"/>
<path class="st4" d="M-2799.2,2779.4c0,0.1,0,0.1,0,0.2c0,0.8-0.1,1.6-0.1,2.4c0.4-1.1,0.9-2.3,1.4-3.4c0.4-0.8,0.9-1.6,1.4-2.4
	c-0.9,0.6-1.9,1.2-2.8,1.7C-2799.2,2778.4-2799.2,2778.9-2799.2,2779.4z"/>
<path class="st4" d="M-2856.6,2799.6c0.1,0,0.2,0,0.3,0c0.1-0.5,0.2-1,0.3-1.5C-2856.2,2798.7-2856.4,2799.2-2856.6,2799.6z"/>
<path class="st4" d="M-2793.1,2827.7c-2.7-0.1-5,2-5.1,4.8c0,0.1,0,0.2,0,0.4c-0.1,2.8,2,5.2,4.8,5.3h0.1c2.8-0.1,5-2.4,4.9-5.2
	v-0.1C-2788.3,2830-2790.4,2827.8-2793.1,2827.7z"/>
<radialGradient id="SVGID_19_" cx="-2846.4312" cy="-1571.8562" r="128.6396" gradientTransform="matrix(1 0 0 -1 0 1158)" gradientUnits="userSpaceOnUse">
	<stop  offset="0" style="stop-color:#F2D067"/>
	<stop  offset="1" style="stop-color:#F9B118"/>
</radialGradient>
<path class="st23" d="M-2924.2,2762.5c-10.7-15-16.1-32.9-15.6-51.5c1.5-49.8,46-90.7,99.1-91.2h1c26.5,0,51.7,10.4,69.3,28.4
	c16.2,16.8,24.8,38.7,24.1,61.8c-0.6,19.1-7.5,36.9-18.8,51.6c-0.4,0-0.8-0.1-1.2-0.1c11.4-14.6,18.4-32.4,19-51.6
	c0.7-22.8-7.7-44.5-23.8-61c-17.3-17.9-42.3-28.1-68.5-28.1h-1c-52.6,0.5-96.6,40.9-98.1,90.2c-0.6,18.5,4.9,36.4,15.6,51.3
	C-2923.5,2762.3-2923.9,2762.4-2924.2,2762.5z M-2801.7,2770.4c-3.1-5.2-8.8-8.6-15.9-8.8c-0.2,0-0.4,0-0.6,0c-2.3,0-4.6,0.3-6.8,1
	c0.2-0.8,0.3-1.6,0.5-2.5c0.5-2.8,1.1-5.7,1.5-8.5c0.4-2.5-0.2-4.8-1.6-6.4c-1.3-1.5-3.1-2.3-5.1-2.3c-0.4,0-0.8,0-1.2,0.1
	c-3,0.4-6.1,1-9,1.6l-0.6,0.1c-3.8,0.6-6.7,3.6-7.2,7.4c-1.8,10.1-3.6,20.3-5.5,30.5c-0.4,0-0.8-0.1-1.2-0.1
	c-0.3-1.8-0.7-3.7-1.3-5.5c-3.2-9.3-11.9-15.5-21.6-15.5c-0.5,0-1,0-1.5,0.1c-3.7,0.2-7.2,1.3-10.5,3.3c-0.2-0.2-0.4-0.5-0.6-0.7
	c-2.1-2.1-5-2.1-7.6-2.1h-1.5c-0.5,0-1,0-1.5,0.1c-0.8-0.7-1.6-1.5-2.3-2.3c-12.7-13.2-19.5-30.3-18.9-48.4
	c1.2-40.2,37.8-73.2,81.4-73.6h0.8c21.7,0,42.2,8.4,56.3,22.9c12.7,13.2,19.5,30.3,18.9,48.4
	C-2765.1,2734.6-2779.9,2757.1-2801.7,2770.4z M-2851.7,2658.1c0.3-0.1,0.4-0.3,0.4-0.5C-2851.4,2657.7-2851.6,2657.9-2851.7,2658.1
	z M-2860.5,2669.1c2.3-0.4,4.6-1.2,6.9-1.7c0.7-0.2,1-0.6,0.9-1.4c-0.1-0.7-0.1-1.5-0.2-2.2c-0.2-1.8,0.3-3.4,0.8-5.1
	c0.2,0,0.2-0.2,0.3-0.3c-0.1,0.1-0.3,0.1-0.3,0.3c-0.6,0.5-1,1.2-1.4,1.8c-0.1,0.1-0.2,0.3-0.3,0.4c-1.9,2.2-3.6,4.5-5.4,6.8
	C-2859.7,2668.1-2860.1,2668.6-2860.5,2669.1z M-2873.5,2680.8c0.7,0.6,1.5,1.4,2.3,2c0.8,0.7,1.2,1.2,1.5,1.5
	c2.1,0.9,4.4,1.3,6.8,1.8c1,0.2,2,0.4,3,0.6c1.5,0.3,2.9,0.7,3.5,1.9c0.6,1.1,0.2,2.4-0.4,3.7l-0.1,0.3c-2,4.7-4.1,9.6-5.7,14.5
	c-0.9,2.7-1.6,5.5-2.1,8.5c0.3,0.5,0.2,1,0.2,1.2v0.1c0.2,1.4,0.6,2.5,1.3,3.4c0.1,0.1,0.2,0.1,0.4,0.1c3.3-0.1,6.7,0,10,0.2
	c0.7,0,1.4,0.1,2.1,0.1c0.8,0,1.6,0,2.4,0.1c1.4,0,2.9,0.1,4.4,0.2c0.9,0.1,2.1-0.1,2.7-1.6c0.5-1.1,1-2.2,1.4-3.3
	c0.2-0.4,0.4-0.9,0.6-1.3l0.2-0.6c0.6-1.5,1.3-3.1,1.8-4.7v-0.1c0.2-0.7,0.6-2,2.2-2.3c2-0.4,3,1.2,3.3,1.7c0.4,0.5,0.7,1.1,1.1,1.6
	c0.7,1,1.4,2,2,3.1c0.2,0.3,1.4,1.7,2.4,2.9c1.1,1.3,2.4,2.8,3.1,3.8c0,0,0,0,0.1,0.1c0.3,0.4,0.5,0.7,0.5,1.1
	c0.1,0.1,0.3,0.1,0.7,0.2h0.2c0.8,0.1,1.6,0.2,2.3,0.2c1.5,0,3,0.1,4.5,0.1c3.1,0.1,6.2,0.2,9.4,0.3c0.8,0,1.7,0.1,2.5,0.1
	c0.5,0,1.1,0,1.7,0c0.2-0.2,0.1-0.3,0.1-0.4c0-0.2-0.1-0.3-0.1-0.5c-0.1-0.4-0.2-0.8-0.4-1.2c-2.3-5.8-5.6-11-8.2-14.8
	c-0.4-0.6-0.8-1.2-1.2-1.8c-1.1-1.7-2.1-3.2-3.4-4.6l-0.2-0.2l-0.1-0.2c-0.4-1-1-1.8-1.7-2.8c-0.3-0.5-0.7-0.9-1-1.4l-0.1-0.2
	c-0.3-0.5-0.6-0.9-0.9-1.4c-0.4-0.8-0.5-1.6-0.2-2.3s0.9-1.2,1.8-1.4c1.5-0.5,3.1-0.6,4.6-0.6c2.1-0.1,4-0.5,5.8-1.2
	c0.1-0.2,0.3-0.4,0.5-0.5c1.4-1.4,1.3-2.2,0.6-3.5c-0.6-1-1.4-1.9-2.3-2.8c-4.7-4.2-10.2-6.5-16.9-9c-0.7-0.3-1.4-0.5-2.2-0.8
	c-0.7-0.2-1.5-0.5-2.2-0.8c-1.2-0.4-2-1.4-2.1-2.7c-0.4-3-1.7-5.8-3.7-8c-2.1-2.4-4.9-3.8-8.1-4.3c-3.8-0.5-6.4,1.2-7.5,2.9
	c-0.1,0.5-0.4,0.8-0.7,0.9c-0.1,0.2-0.2,0.3-0.3,0.4c-0.4,1.5-0.7,2.9-0.6,4.3c0,0.3,0,0.5,0.1,0.8c0,0.5,0.1,0.9,0.1,1.4
	c0.2,1.3-0.6,2.4-1.9,2.7c-0.8,0.2-1.7,0.4-2.5,0.7c-1.4,0.4-2.8,0.8-4.2,1h-0.1c-0.2,0.1-0.5,0.3-0.8,0.4l-0.4,0.1
	c-2,0.7-3.9,1.3-5.6,2.3c-2.2,1.2-4.5,2.6-6,4.8c-0.1,0.2-0.2,0.4-0.3,0.5C-2873.4,2679.2-2873.6,2680.2-2873.5,2680.8z
	 M-2812.9,2696.9C-2812.9,2696.9-2812.8,2696.8-2812.9,2696.9c1.9-2.2,3.8-4.3,5.7-6.4c0.1-0.1,0.1-0.2,0.2-0.2
	c0.5-0.6,1.1-1.1,1.5-1.8c0.1,0,0.2-0.1,0.2-0.2c0.2,0,0.2-0.1,0.2-0.2c-0.1,0-0.2,0.1-0.2,0.2c-0.1,0.1-0.2,0.1-0.2,0.2l0,0
	c-2.1,0.9-4.3,1.4-6.6,1.4c-1.4,0-2.9,0.1-4.3,0.5c-1.1,0.3-1.4,0.9-0.9,2c0.3,0.5,0.6,1,1,1.6c0.9,1.5,2.1,2.8,2.8,4.4
	C-2813.7,2697.7-2813.2,2697.3-2812.9,2696.9z M-2800.7,2723.7c-1.6-0.1-3.1,0-4.7-0.1c-4.6-0.2-9.2-0.3-13.9-0.5
	c-0.8,0-1.7-0.1-2.5-0.2c-0.7-0.1-1.5-0.2-1.9-1c0.2-0.4-0.1-0.6-0.3-0.8c-0.1-0.1-0.1-0.2-0.2-0.3c-1.5-1.9-3.1-3.8-4.6-5.7l0,0
	h-0.1h-0.1l0,0c-0.3-0.2-0.5-0.5-0.6-0.8c-0.9-1.7-2.1-3.1-3.1-4.7c-0.5-0.7-1.1-1.3-2.1-1.2c-0.9,0.2-1.1,0.9-1.3,1.6
	c-0.6,1.8-1.4,3.6-2.1,5.3c-0.7,1.5-1.3,3.1-2,4.6c-0.8,1.7-2.2,2.4-3.9,2.3c-2.3-0.2-4.5-0.2-6.8-0.3c-4-0.2-8-0.4-12-0.3
	c-0.5,0-0.9-0.1-1.3-0.4c-1.1,0.3-1.5-0.5-1.9-1.3c-0.7-1.3-0.3-2.6-0.1-3.9c0.2-1.5,0.5-3.1,0.9-4.6v-0.1c0.2-0.8,0.4-1.5,0.6-2.3
	c0.2-0.8,0.5-1.5,0.7-2.3c1.7-5.1,3.8-10,5.9-14.9c1.2-2.7,0.5-3.3-2.3-3.9c-3.5-0.8-7.1-1.1-10.4-2.6c0.2-0.1,0.2-0.3,0.1-0.4
	c-1.4-1.1-2.7-2.3-4.1-3.4l0,0c-0.5-1.3-0.3-2.5,0.3-3.7l0,0c0.2,0,0.2-0.2,0.2-0.3c-0.1,0.1-0.3,0.2-0.3,0.3
	c-0.6,0.3-0.8,0.9-1.2,1.4c-0.2,0.2-0.3,0.4-0.5,0.6c-2.8,3.6-5.6,7.3-8.4,11c-1.8,2.4-1.4,5.2,1,7.1c2.1,1.7,4.7,2.4,7.3,2.9
	c1.9,0.3,3.8,0.7,5.6,1.1c1.9,0.4,2.3,1.4,1.6,3.2c-0.4,1-1,2-1.4,3.1c-1.5,4.1-3.4,8.1-4.7,12.3c-1.1,3.6-2,7.1-2.2,10.8
	c-0.1,2,0.8,3,2.9,3.1c3.2,0.2,6.5,0.3,9.7,0.4c2.8,0.1,5.7,0,8.5,0.1c1.6,0.1,2.8-0.3,3.8-1.4c0.5-0.6,1.1-1.2,1.6-1.8
	c2.2-2.5,4.5-4.9,6.7-7.4c0.4-0.5,0.6-0.4,0.9,0c0.4,0.6,0.9,1.3,1.3,1.9c1.5,2.1,3.1,4.2,4.6,6.3c1.4,1.9,3.1,3,5.6,3
	c1.7,0,3.3,0.1,5,0.2c4.3,0.1,8.5,0.2,12.8,0.2c0.7,0,1.2-0.3,1.7-0.7c3.5-3.4,6.9-6.9,10.3-10.5
	C-2801.4,2724.5-2801.1,2724.1-2800.7,2723.7z M-2796.5,2776.2c3.6-5.6,9.2-10,15.6-12.5c14.3-14.4,23.3-33.3,24-54
	c1.4-44.3-36.1-79.8-83.7-79.4c-47.6,0.4-87.3,36.7-88.7,81c-0.7,21.2,7.6,40.4,21.6,54.6c1.3-1.9,3.2-3,5.8-3.5
	c-0.6-0.6-1.2-1.1-1.8-1.7c-12.9-13.3-19.8-30.8-19.2-49.1c1.3-40.7,38.2-74.2,82.4-74.6h0.8c21.9,0,42.7,8.5,57.1,23.2
	c12.9,13.3,19.8,30.8,19.2,49.1c-0.8,25.7-15.8,48.5-37.9,61.9c1,2,1.7,4.2,1.9,6.7C-2798.3,2777.4-2797.4,2776.8-2796.5,2776.2z
	 M-2848.3,2681.7c3.4,2.1,6.8,4.2,10.2,6.4l0.4,0.2c0.1-0.1,0.2-0.2,0.3-0.2c2.5-1.9,4.9-3.7,7.4-5.6c0.2-0.1,0.3-0.3,0.5-0.4
	c1.3-1.3,0.9-3.2-1.1-4.6c-2-1.4-5-1.8-6.9-0.9c-0.8,0.4-1.4,0.9-2.1,1.4c-0.3,0.2-0.3,0.2-0.8,0c-0.8-0.5-1.6-1-2.4-1.4
	c-2.5-1.2-5.4-1-7,0.4C-2851.1,2678.2-2850.5,2680.3-2848.3,2681.7z M-2858.5,2783.1c0.3,2.3,0.4,4.6,0.2,6.8
	c-0.3,3.2-1.1,6.3-2.4,9.2c-0.1,0.3-0.3,0.6-0.4,0.9c-1.4,2.9-3.3,5.5-5.7,7.8c-4.4,3.9-9.4,5.9-14.9,5.9c-4.4,0-9.1-1.3-13.9-4
	c-0.9,4.9-1.8,9.7-2.6,14.5c-0.9,5.2-2.1,6.2-7.4,6.2c-1.1,0-2.3,0-3.4,0c-0.6,0-1.1,0-1.7,0c-4,0-5.1-1.3-4.4-5.2
	c1.5-8.2,2.9-16.5,4.4-24.7c1.2-6.7,2.4-13.4,3.6-20c0.1-0.4,0.1-0.7,0.2-1.1c0.5-2.5,0.9-5.1,1.4-7.6c0.2-1.2,0.5-2.2,0.9-3
	c1-1.9,2.6-2.5,5.6-2.5c0.5,0,1,0,1.5,0l0,0l0,0c0.6,0,1.1,0,1.6,0c2.7,0.1,3.6,0.7,3.9,2.9c0,0.4,0.1,0.8,0.1,1.3s0,1.1,0,1.7
	c0.4-0.4,0.7-0.7,1.1-1c0.3-0.2,0.5-0.5,0.8-0.7c3.4-2.8,7-4.6,11.4-4.8c0.4,0,0.9,0,1.3,0c8,0,15.2,5.1,17.8,12.8
	c0.4,1.2,0.7,2.5,1,3.7C-2858.6,2782.4-2858.5,2782.8-2858.5,2783.1z M-2875,2786.1c-0.7-3.9-4.1-6.7-8-6.7c-0.4,0-0.7,0-1.1,0.1
	c-0.7,0.1-1.4,0.3-2.1,0.6c-0.5,0.2-1,0.4-1.4,0.6c-2.7,1.5-4.6,4.2-5.2,7.9c-0.1,0.3-0.1,0.7-0.1,1.1c-0.1,0.6-0.1,1.2-0.1,1.8l0,0
	c-0.1,3.1,1.6,6.1,4.4,7.5c1.3,0.7,2.7,1.1,4.2,1.1c1.9,0,3.7-0.6,5.2-1.8c0.8-0.6,1.5-1.2,2.1-1.9c0.2-0.3,0.5-0.6,0.7-0.8
	c1.8-2.5,2.2-5.6,1.6-9C-2874.9,2786.4-2875,2786.2-2875,2786.1z M-2807.4,2808.1c1-5.1,2-10.3,2.8-15.5c0-0.1,0-0.2,0.1-0.3
	c0.1-0.4,0.1-0.8,0.2-1.2c0.6-3.7,1-7.4,1.1-11.1c0-0.2,0-0.4,0-0.6c-0.1-2.3-0.6-4.4-1.5-6.2c-0.1-0.3-0.3-0.6-0.5-0.9
	c-2.5-4.1-7-6.6-12.5-6.8c-0.2,0-0.3,0-0.5,0c-4.4,0-8.6,1.4-12.2,4c0.5-2.6,0.8-4.6,1.2-6.7c0.7-4,1.5-7.9,2.1-11.9
	c0.4-2.5-0.7-4.1-2.7-4.1c-0.2,0-0.4,0-0.6,0c-3.2,0.5-6.4,1.1-9.5,1.7c-2.1,0.3-3.7,2-3.9,4.1c-1.8,10-3.6,20.1-5.4,30.1
	c-0.1,0.3-0.1,0.7-0.2,1c-0.4,2.2-0.8,4.5-1.2,6.7c-0.6,3.1-1.1,6.3-1.7,9.4c-0.1,0.3-0.1,0.7-0.2,1c-0.5,2.6-0.9,5.1-1.4,7.7
	c-0.5,2.7,0.6,4,3.3,4.1c1.3,0.1,2.6,0.1,3.9,0.1c1.3,0,2.5,0,3.8,0c3.4-0.1,4.9-1.4,5.5-4.8c0.4-2.4,0.9-4.9,1.3-7.3
	c0.1-0.3,0.1-0.7,0.2-1c0.5-2.9,1-5.8,1.6-8.8c0.1-0.3,0.1-0.7,0.2-1c0.4-1.9,0.9-3.9,1.6-5.7c0.2-0.5,0.5-1,0.8-1.5
	c0.3-0.4,0.7-0.8,1.1-1.2c1.3-1.1,2.9-1.7,4.6-1.7c0.6,0,1.2,0.1,1.8,0.3c0.1,0,0.1,0,0.2,0c0.5,0.1,0.9,0.4,1.2,0.6
	c1.8,1.1,2.5,3.3,2.1,6.4c0,0.2,0,0.4-0.1,0.6c-0.5,3.2-1.1,6.4-1.7,9.6c-0.1,0.4-0.1,0.7-0.2,1.1c-0.5,3.2-1.1,6.4-1.6,9.5
	c-0.6,3.7,0.3,4.9,3.9,4.9c1.2,0,2.3,0,3.5,0s2.3,0,3.5,0C-2809.5,2812.8-2808.1,2811.6-2807.4,2808.1z M-2913.5,2773.5
	c0.3-0.6,0.7-1.1,1-1.7c0.7-1.2,1.5-3.3,0.9-4.1c-0.7-1-2.7-1.3-4.2-1.5c-0.5-0.1-1-0.1-1.5-0.1c-0.8,0-1.6,0.1-2.4,0.1
	c-0.2,0-0.4,0-0.5,0c-0.2,0-0.3,0-0.5,0c-0.3,0-0.6-0.1-0.9-0.1l0,0c-3,0-5.7,1.8-6.9,4.6c-2.8,5.3-5.6,10.5-8.4,15.8
	c-1,1.9-2,3.7-3.3,6.1c-0.3-1.1-0.4-1.6-0.5-2.1c-1.3-6.8-2.5-13.6-3.9-20.4c-0.6-3-1.9-3.9-4.9-3.9c-1.1,0-2.2,0-3.2,0
	c-1.2,0-2.4,0-3.5,0c-4.3,0-5.6,1.7-4.5,5.8c3,10.8,5.8,21.6,9,32.4c1,2.7,0.6,5.7-1,8.1c-2.4,3.7-3.5,5-6.2,5c-1,0-2.2-0.2-3.8-0.5
	c-0.3-0.1-0.6-0.1-1-0.1c-1.3,0-2.5,0.8-3,2.1c-0.8,1.7-1.5,3.4-2.3,5.1c-1.5,3.3-0.9,4.7,2.7,5.6c2.2,0.6,4.4,0.9,6.5,0.9
	c4.6,0,8.9-1.4,12.7-4.7c2.9-2.6,5.4-5.5,7.4-8.8c4.4-6.8,8.4-13.8,12.5-20.7c4.4-7.3,8.8-14.6,13.1-21.9
	C-2913.8,2774.1-2913.7,2773.8-2913.5,2773.5z M-2756.9,2809.5c-4.3,3-10.1,4.5-15.9,4.5c-5.4,0-10.7-1.3-14.7-3.9
	c-7.1-4.6-10.5-13-9.3-21.6c0.1-0.4,0.1-0.8,0.2-1.3c0.4-2.3,1.2-4.6,2.3-6.8c4.5-9,14.6-14.7,24.7-15c0.2,0,0.5,0,0.7,0
	s0.4,0,0.6,0c3,0.1,5.9,0.6,8.7,1.7c9.1,3.5,14,13.4,11.2,22.8c-0.4,2-2.3,3.4-4.3,3.4c-0.2,0-0.4,0-0.6,0c-3.6,0-7.2,0-10.8,0
	c-4.8,0-9.6,0-14.4,0h-2.6c-0.6,3.6,1.6,7.1,5.2,8.2c1.6,0.5,3.2,0.8,4.8,0.8c2.9,0,5.8-0.9,8.2-2.5c1.9-1.2,3-1.9,3.9-1.9
	c1.1,0,1.9,1,3.5,3.1C-2752.2,2805.1-2752.4,2806.4-2756.9,2809.5z M-2769.8,2776.9c-0.2,0-0.5,0-0.7,0c-4.3,0-8,3-8.7,7.3h15.5
	C-2763.8,2779.9-2766.1,2777.2-2769.8,2776.9z M-2964.2,2751.1c0.5-2.8-0.6-4.3-2.9-4.3c-0.4,0-0.9,0-1.3,0.1
	c-2.4,0.4-4.8,0.8-7.2,1.3c-4,0.8-5,1.8-5.7,5.8c-2.1,11.3-4.1,22.7-6.2,34c-1.2,6.7-2.4,13.3-3.6,20c-0.6,3.6,0.4,4.7,4.1,4.8
	c0.4,0,0.8,0,1.1,0c0.8,0,1.5,0,2.3,0h2.2c5.3,0,6.3-0.9,7.3-6c1.8-9.9,3.6-19.8,5.3-29.7
	C-2967.3,2768.4-2965.7,2759.8-2964.2,2751.1z M-2704.3,2766.3c-2-0.5-3.9-0.8-5.8-0.8c-4.1,0-7.9,1.4-11.4,4.4
	c-0.6,0.5-1.2,1-2,1.8c-0.1-4.9-0.8-5.5-5.3-5.5c-0.6,0-1.3,0-1.9,0c-0.3,0-0.6,0-1,0c-3.4,0.1-5.2,1.4-5.8,4.7
	c-2.3,12.5-4.5,25.1-6.7,37.6c-0.5,2.7,0.7,4.2,3.5,4.3c1.2,0.1,2.5,0.1,3.7,0.1c1.3,0,2.6,0,3.8,0c3.7-0.1,5.2-1.3,5.9-5
	c1.3-7,2.4-14,3.8-20.9c1-4.8,4.1-7.3,8.7-7.3c0.4,0,0.9,0,1.4,0.1c1.1,0.1,2.2,0.3,3.3,0.7c0.1,0.1,0.3,0.1,0.4,0.2
	c0.4,0.1,0.7,0.2,1.1,0.2c1.4,0,2.6-0.9,3.1-2.2c1.2-2.5,2.4-5.1,3.5-7.7C-2701,2768.3-2701.6,2767.1-2704.3,2766.3z
	 M-2852.2,2826.2h-1.9v13.4h7.9v-1.6h-6V2826.2z M-2844,2839.6h1.9v-13.4h-1.9V2839.6z M-2838.5,2839.6h1.9v-5.7h4.7v-1.6h-4.7v-4.4
	h5.5v-1.6h-7.4V2839.6z M-2826.7,2833.6h4.8v-1.6h-4.8v-4.2h5.9v-1.6h-7.8v13.4h8.1v-1.6h-6.2V2833.6z M-2806.9,2838.1
	c-0.1,0-0.1,0-0.2,0c-2.8-0.1-4.9-2.5-4.8-5.3c0-0.1,0-0.2,0-0.3c0-2.7,2.3-4.8,5-4.8c1.4,0,2.8,0.5,3.9,1.5l0.9-1.4
	c-1.3-1.2-3.1-1.8-4.9-1.8l0,0c-3.7,0.1-6.7,3.1-6.8,6.8c-0.1,3.8,3,7,6.8,7c1.9,0,3.8-0.7,5.2-2.1l-1-1.3
	C-2803.8,2837.4-2805.3,2838-2806.9,2838.1z M-2786.4,2832.6c0,0.1,0,0.1,0,0.2c0.1,3.8-3,6.9-6.8,7s-6.9-3-7-6.8c0-0.1,0-0.1,0-0.2
	c0-3.7,3-6.8,6.7-6.8c0.1,0,0.1,0,0.2,0C-2789.6,2825.9-2786.5,2828.8-2786.4,2832.6z M-2788.4,2832.9v-0.1c0.1-2.7-2-5-4.8-5.1
	s-5,2-5.1,4.8c0,0.1,0,0.2,0,0.4c-0.1,2.8,2,5.2,4.8,5.3h0.1C-2790.5,2838-2788.3,2835.7-2788.4,2832.9z M-2775.2,2834.8
	c-0.1,1.8-1.5,3.2-3.2,3.3c-1.9,0.1-3.5-1.4-3.5-3.2v-8.6h-1.9v8.6c0.2,2.7,2.3,4.8,5,5c2.9,0.2,5.4-2.1,5.6-5v-8.6h-1.9v8.5
	H-2775.2z M-2761.1,2834.9c0,0.7,0.1,1.9,0.1,1.9l0,0c0,0-0.6-1.2-1.1-1.9l-6-8.7h-1.9v13.4h1.9v-8.7c0-0.8-0.1-2-0.1-2l0,0
	c0,0,0.6,1.2,1.1,2l6,8.7h1.8v-13.4h-1.9L-2761.1,2834.9L-2761.1,2834.9z M-2757.3,2827.8h4.6v11.8h1.9v-11.8h4.6v-1.6h-11.1V2827.8
	z M-2742.4,2833.6h4.8v-1.6h-4.8v-4.2h5.9v-1.6h-7.8v13.4h8.1v-1.6h-6.2V2833.6z M-2726.6,2834.4l2.8,5.2h-2.1l-2.8-5.3h-2.9v5.3
	h-1.9v-13.4h4.1c0.8-0.1,1.7,0,2.5,0.3c2,1,2.8,3.3,1.9,5.3c-0.4,0.9-1.1,1.6-2,1.9l0,0C-2726.8,2833.9-2726.7,2834.1-2726.6,2834.4
	z M-2726.5,2830.5c0-0.1,0-0.2,0-0.4c0.1-0.8-0.3-1.6-1.1-2.1c-0.6-0.3-1.2-0.4-1.8-0.3h-2.2v4.8h2.7
	C-2727.6,2832.7-2726.6,2831.8-2726.5,2830.5z"/>
<g id="Group_6" transform="translate(-1749 -802)">
	<path id="Path_27" class="st24" d="M-1279.7,3754.7h20c1.1,0,2,0.9,2,2s-0.9,2-2,2h-20c-1.1,0-2-0.9-2-2
		S-1280.8,3754.7-1279.7,3754.7z"/>
</g>
<path id="Path_28" class="st24" d="M-3050.7,2940.7c0-1.1,0.9-2,2-2h40c1.1,0,2,0.9,2,2s-0.9,2-2,2h-40
	C-3049.8,2942.7-3050.7,2941.8-3050.7,2940.7"/>
<g id="Group_7" transform="translate(-1749 -802)">
	<path id="Path_29" class="st24" d="M-1286.7,3725.7h27c1.1,0,2,0.9,2,2s-0.9,2-2,2h-27c-1.1,0-2-0.9-2-2
		S-1287.8,3725.7-1286.7,3725.7z"/>
</g>
<path class="st25" d="M-4125.7,2130h80c0-18.8,0-37.7,0-56.5c0-10.7-3.9-19.9-12.5-28.4c-10.8-12-33.5-15.6-50.4-3.1
	c-10.3,7.7-15.9,18.2-16.1,31.2c-0.2,16.9-0.1,33.8,0,50.7C-4124.7,2126.2-4125,2128.2-4125.7,2130z"/>
<linearGradient id="SVGID_20_" gradientUnits="userSpaceOnUse" x1="-3776.0876" y1="-1077.8044" x2="-3776.0876" y2="-852.5217" gradientTransform="matrix(1 0 0 -1 0 1158)">
	<stop  offset="0" style="stop-color:#F2D067"/>
	<stop  offset="5.103823e-02" style="stop-color:#EDCB6C"/>
	<stop  offset="0.1155" style="stop-color:#E0BD76"/>
	<stop  offset="0.1873" style="stop-color:#CBA781"/>
	<stop  offset="0.2643" style="stop-color:#B08A8C"/>
	<stop  offset="0.3445" style="stop-color:#916B95"/>
	<stop  offset="0.4233" style="stop-color:#71479C"/>
</linearGradient>
<path class="st26" d="M-3675.5,2222.9c20.6,20.6,14.1,54.5-13.1,65.1c-15.5,6.1-30,3-42.2-8.7c-12-11.6-23.7-23.6-35.5-35.4
	c-6.3-6.3-13.3-6.4-19.7-0.1c-11.9,11.9-23.8,24-35.9,35.8c-9.3,9.1-20.7,12.6-33.4,10.7c-20.8-3.1-34.3-21.7-33.4-37.8
	c-0.1-12,3.7-21.3,11.2-28.9c14.3-14.4,28.7-28.8,43.1-43.1c18.6,18.6,37.1,37.1,55.7,55.7c2.7,2.7,2.7,2.7,5.5,0
	c13.6-13.6,27.1-27.2,40.7-40.8c4.9-4.9,9.8-9.8,14.8-14.8C-3703.6,2194.7-3689.6,2208.8-3675.5,2222.9z"/>
<linearGradient id="SVGID_21_" gradientUnits="userSpaceOnUse" x1="-3776.1213" y1="-996.1917" x2="-3776.1213" y2="-1221.4744" gradientTransform="matrix(1 0 0 -1 0 1158)">
	<stop  offset="0" style="stop-color:#F37567"/>
	<stop  offset="1" style="stop-color:#CA499A"/>
</linearGradient>
<path class="st27" d="M-3663.5,2108.6c0.1,12-3.7,21.3-11.2,28.9c-19.2,19.3-38.5,38.6-57.8,57.9c-13.6,13.6-27.1,27.2-40.7,40.8
	c-2.7,2.7-2.7,2.7-5.5,0c-32.6-32.6-65.3-65.3-97.9-97.9c-20.6-20.6-14.1-54.5,13.1-65.1c15.5-6.1,30-3,42.2,8.7
	c12,11.6,23.7,23.6,35.5,35.4c6.3,6.3,13.3,6.4,19.7,0.1c11.9-11.9,23.8-24,35.9-35.8c9.3-9.1,20.7-12.6,33.4-10.7
	C-3676.2,2073.9-3662.7,2092.5-3663.5,2108.6z"/>
<ellipse transform="matrix(0.8507 -0.5257 0.5257 0.8507 -1721.01 -1951.8068)" class="st25" cx="-4295.8" cy="2053.2" rx="41.4" ry="41.4"/>
<rect x="-3816.3" y="1993.1" transform="matrix(0.7071 -0.7071 0.7071 0.7071 -2543.5908 -2075.009)" class="st28" width="79.5" height="79.5"/>
<circle class="st29" cx="-3750.3" cy="2036.2" r="6.1"/>
<circle class="st29" cx="-3773.4" cy="2059.3" r="6.1"/>
<circle class="st29" cx="-3778.4" cy="2008.2" r="6.1"/>
<circle class="st29" cx="-3801.5" cy="2031.3" r="6.1"/>
<circle class="st29" cx="-3775.1" cy="2034.3" r="6.1"/>
<path class="st0" d="M-3154.8,2033.7l-40.7-40.7c-4.3-4.3-11.2-4.3-15.5,0l-40.7,40.7c-4.3,4.3-4.3,11.2,0,15.5l40.7,40.7
	c4.3,4.3,11.2,4.3,15.5,0l40.7-40.7C-3150.6,2044.9-3150.6,2038-3154.8,2033.7z M-3222.6,2044.5c-1.8,1.8-4.8,1.8-6.6,0
	s-1.8-4.8,0-6.6c1.8-1.8,4.8-1.8,6.6,0C-3220.8,2039.7-3220.8,2042.7-3222.6,2044.5z M-3206.9,2015.5c1.8-1.8,4.8-1.8,6.6,0
	s1.8,4.8,0,6.6c-1.8,1.8-4.8,1.8-6.6,0C-3208.7,2020.3-3208.7,2017.3-3206.9,2015.5z M-3206.7,2038.1c1.8-1.8,4.8-1.8,6.6,0
	s1.8,4.8,0,6.6c-1.8,1.8-4.8,1.8-6.6,0C-3208.5,2042.9-3208.5,2039.9-3206.7,2038.1z M-3200,2067.1c-1.8,1.8-4.8,1.8-6.6,0
	s-1.8-4.8,0-6.6s4.8-1.8,6.6,0C-3198.2,2062.3-3198.2,2065.3-3200,2067.1z M-3177.6,2044.7c-1.8,1.8-4.8,1.8-6.6,0s-1.8-4.8,0-6.6
	c1.8-1.8,4.8-1.8,6.6,0S-3175.8,2042.9-3177.6,2044.7z"/>
<path class="st24" d="M-3411.9,2222.9c20.6,20.6,14.1,54.5-13.1,65.1c-15.5,6.1-30,3-42.2-8.7c-12-11.6-23.7-23.6-35.5-35.4
	c-6.3-6.3-13.3-6.4-19.7-0.1c-11.9,11.9-23.8,24-35.9,35.8c-9.3,9.1-20.7,12.6-33.4,10.7c-20.8-3.1-34.3-21.7-33.4-37.8
	c-0.1-12,3.7-21.3,11.2-28.9c14.3-14.4,28.7-28.8,43.1-43.1c18.6,18.6,37.1,37.1,55.7,55.7c2.7,2.7,2.7,2.7,5.5,0
	c13.6-13.6,27.1-27.2,40.7-40.8c4.9-4.9,9.8-9.8,14.8-14.8C-3440.1,2194.7-3426,2208.8-3411.9,2222.9z"/>
<path class="st24" d="M-3400,2108.6c0.1,12-3.7,21.3-11.2,28.9c-19.2,19.3-38.5,38.6-57.8,57.9c-13.6,13.6-27.1,27.2-40.7,40.8
	c-2.7,2.7-2.7,2.7-5.5,0c-32.6-32.6-65.3-65.3-97.9-97.9c-20.6-20.6-14.1-54.5,13.1-65.1c15.5-6.1,30-3,42.2,8.7
	c12,11.6,23.7,23.6,35.5,35.4c6.3,6.3,13.3,6.4,19.7,0.1c11.9-11.9,23.8-24,35.9-35.8c9.3-9.1,20.7-12.6,33.4-10.7
	C-3412.6,2073.9-3399.1,2092.5-3400,2108.6z"/>
<path class="st24" d="M-3513,1976.6l-56.2,56.2l56.2,56.2l56.2-56.2L-3513,1976.6z M-3537.9,2037.4c-3.4,0-6.1-2.7-6.1-6.1
	s2.7-6.1,6.1-6.1s6.1,2.7,6.1,6.1C-3531.8,2034.6-3534.5,2037.4-3537.9,2037.4z M-3520.9,2008.2c0-3.4,2.7-6.1,6.1-6.1
	s6.1,2.7,6.1,6.1s-2.7,6.1-6.1,6.1S-3520.9,2011.6-3520.9,2008.2z M-3511.5,2028.3c3.4,0,6.1,2.7,6.1,6.1s-2.7,6.1-6.1,6.1
	s-6.1-2.7-6.1-6.1S-3514.9,2028.3-3511.5,2028.3z M-3509.8,2065.4c-3.4,0-6.1-2.7-6.1-6.1c0-3.4,2.7-6.1,6.1-6.1s6.1,2.7,6.1,6.1
	C-3503.8,2062.7-3506.5,2065.4-3509.8,2065.4z M-3486.8,2042.3c-3.4,0-6.1-2.7-6.1-6.1s2.7-6.1,6.1-6.1s6.1,2.7,6.1,6.1
	S-3483.4,2042.3-3486.8,2042.3z"/>
<path class="st24" d="M-3242.5,2146.7"/>
<path class="st4" d="M-3213.1,2117.3c0.6,0.6,1.2,1.1,1.8,1.6C-3211.9,2118.3-3212.6,2117.7-3213.1,2117.3
	C-3213.1,2117.2-3213.1,2117.2-3213.1,2117.3z"/>
<path class="st24" d="M-3093.4,2124.7l-1.5,3.3C-3094.4,2127-3093.9,2125.9-3093.4,2124.7z"/>
<path class="st0" d="M-3211.2,2118.9c-0.6-0.5-1.2-1-1.8-1.6c0,0,0,0-0.1-0.1c-4.8-4.3-7.3-7.4-7.3-7.4l0,0
	c-9.3-9.4-18.6-18.8-28.1-27.9c-10.1-9.7-21.8-13.5-34.4-11c-31.4,6.3-42.7,45.6-20,68.3c32.2,32.2,64.4,64.4,96.6,96.7
	c1.8,1.8,4.6,1.8,6.4,0c13.4-13.4,26.8-26.9,40.3-40.3c19.3-19.3,38.6-38.6,57.8-57.9c2.2-2.2,4.1-4.6,5.6-7.1
	c0.4-0.6-0.3-1.3-0.9-0.9C-3148.8,2163.7-3192.8,2135-3211.2,2118.9z"/>
<path class="st24" d="M-3094.9,2128L-3094.9,2128C-3094.9,2128.1-3094.9,2128.1-3094.9,2128L-3094.9,2128z"/>
<path class="st24" d="M-3213.2,2117.2c-2.5-2.5-4.9-4.9-7.3-7.4l0,0C-3220.5,2109.8-3217.9,2112.8-3213.2,2117.2z"/>
<linearGradient id="SVGID_22_" gradientUnits="userSpaceOnUse" x1="-2867.0571" y1="-1033.8783" x2="-2870.7222" y2="-913.3709" gradientTransform="matrix(1 0 0 -1 0 1158)">
	<stop  offset="0.1307" style="stop-color:#AF984C"/>
	<stop  offset="0.2396" style="stop-color:#BEA553"/>
	<stop  offset="0.4242" style="stop-color:#D4B75C"/>
	<stop  offset="0.6117" style="stop-color:#E3C362"/>
	<stop  offset="0.8021" style="stop-color:#EDCB65"/>
	<stop  offset="0.9995" style="stop-color:#F2D067"/>
</linearGradient>
<path class="st30" d="M-2811.9,2124.7c1.9-4.8,2.8-10.1,2.7-16.1c0.8-16.1-12.7-34.8-33.4-37.8c-12.7-1.9-24.1,1.6-33.4,10.7
	c-12.1,11.8-23.9,23.8-35.9,35.8c-5.7,5.7-12,6.2-17.8,1.6c18.7,16.3,63.7,45.7,116.3,9.2l0,0L-2811.9,2124.7z"/>
<path d="M-2918,2065.4c0,0-25.6,24.6-28.6,26.3s33.1,45.9,33.1,45.9l40.4-39.5l-27.3-27.6L-2918,2065.4z"/>
<linearGradient id="SVGID_23_" gradientUnits="userSpaceOnUse" x1="-2936.5908" y1="-977.7087" x2="-2880.0305" y2="-890.825" gradientTransform="matrix(1 0 0 -1 0 1158)">
	<stop  offset="5.649198e-02" style="stop-color:#86888A"/>
	<stop  offset="9.513317e-02" style="stop-color:#9B9D9F"/>
	<stop  offset="0.1498" style="stop-color:#B4B6B8"/>
	<stop  offset="0.2117" style="stop-color:#CACCCE"/>
	<stop  offset="0.2816" style="stop-color:#DCDEDF"/>
	<stop  offset="0.3634" style="stop-color:#EBEBEC"/>
	<stop  offset="0.4644" style="stop-color:#F5F5F5"/>
	<stop  offset="0.6061" style="stop-color:#FCFCFC"/>
	<stop  offset="0.9995" style="stop-color:#FFFFFF"/>
</linearGradient>
<path class="st31" d="M-2864.7,2092.3l-40.9-40.9c-4.3-4.3-11.2-4.3-15.5,0l-40.9,40.9c-4.3,4.3-4.3,11.2,0,15.5l40.9,40.9
	c4.3,4.3,11.2,4.3,15.5,0l40.9-40.9C-2860.4,2103.5-2860.4,2096.6-2864.7,2092.3z M-2932.6,2103.1c-1.8,1.8-4.8,1.8-6.7,0
	c-1.8-1.8-1.8-4.8,0-6.7c1.8-1.8,4.8-1.8,6.7,0C-2930.8,2098.3-2930.8,2101.3-2932.6,2103.1z M-2916.9,2074c1.8-1.8,4.8-1.8,6.7,0
	c1.8,1.8,1.8,4.8,0,6.7c-1.8,1.8-4.8,1.8-6.7,0C-2918.7,2078.9-2918.7,2075.9-2916.9,2074z M-2916.6,2096.7c1.8-1.8,4.8-1.8,6.7,0
	c1.8,1.8,1.8,4.8,0,6.7c-1.8,1.8-4.8,1.8-6.7,0C-2918.5,2101.5-2918.5,2098.5-2916.6,2096.7z M-2910,2125.8c-1.8,1.8-4.8,1.8-6.7,0
	c-1.8-1.8-1.8-4.8,0-6.7c1.8-1.8,4.8-1.8,6.7,0C-2908.1,2121-2908.1,2124-2910,2125.8z M-2887.5,2103.4c-1.8,1.8-4.8,1.8-6.7,0
	c-1.8-1.8-1.8-4.8,0-6.7c1.8-1.8,4.8-1.8,6.7,0S-2885.7,2101.5-2887.5,2103.4z"/>
<path class="st24" d="M-2960.9,2146.7"/>
<path class="st4" d="M-2931.5,2117.3c0.6,0.6,1.2,1.1,1.8,1.6C-2930.3,2118.3-2931,2117.7-2931.5,2117.3
	C-2931.6,2117.2-2931.5,2117.2-2931.5,2117.3z"/>
<path class="st24" d="M-2811.9,2124.7l-1.5,3.3C-2812.8,2127-2812.3,2125.9-2811.9,2124.7z"/>
<linearGradient id="SVGID_24_" gradientUnits="userSpaceOnUse" x1="-2991.8127" y1="-1023.8452" x2="-2929.7642" y2="-960.6337" gradientTransform="matrix(1 0 0 -1 0 1158)">
	<stop  offset="0.1559" style="stop-color:#AF984C"/>
	<stop  offset="0.2003" style="stop-color:#BAA251"/>
	<stop  offset="0.2984" style="stop-color:#CDB259"/>
	<stop  offset="0.4088" style="stop-color:#DCBE5F"/>
	<stop  offset="0.5366" style="stop-color:#E7C763"/>
	<stop  offset="0.6976" style="stop-color:#EFCD66"/>
	<stop  offset="0.9995" style="stop-color:#F2D067"/>
</linearGradient>
<path class="st32" d="M-2929.7,2118.9c-0.6-0.5-1.2-1-1.8-1.6c0,0,0,0-0.1-0.1c-4.8-4.3-7.3-7.4-7.3-7.4l0,0
	c-9.3-9.4-18.6-18.8-28.1-27.9c-10.1-9.7-21.8-13.5-34.4-11c-31.4,6.3-42.7,45.6-20,68.3c32.2,32.2,64.4,64.4,96.6,96.7
	c1.8,1.8,4.6,1.8,6.4,0c13.4-13.4,26.8-26.9,40.3-40.3c19.3-19.3,38.6-38.6,57.8-57.9c2.2-2.2,4.1-4.6,5.6-7.1
	c0.4-0.6-0.3-1.3-0.9-0.9C-2867.3,2163.7-2911.2,2135-2929.7,2118.9z"/>
<path class="st24" d="M-2813.4,2128L-2813.4,2128C-2813.4,2128.1-2813.4,2128.1-2813.4,2128L-2813.4,2128z"/>
<path class="st24" d="M-2931.6,2117.2c-2.5-2.5-4.9-4.9-7.3-7.4l0,0C-2938.9,2109.8-2936.3,2112.8-2931.6,2117.2z"/>
<path class="st24" d="M-3176.2,1607l-1.5,3.3C-3177.2,1609.2-3176.7,1608.1-3176.2,1607z"/>
<path class="st24" d="M-3177.7,1610.3L-3177.7,1610.3L-3177.7,1610.3L-3177.7,1610.3z"/>
<linearGradient id="SVGID_25_" gradientUnits="userSpaceOnUse" x1="-3221.3591" y1="-512.8105" x2="-3227.5676" y2="-308.6715" gradientTransform="matrix(1 0 0 -1 0 1158)">
	<stop  offset="0.1559" style="stop-color:#9F3224"/>
	<stop  offset="0.2317" style="stop-color:#B23A2C"/>
	<stop  offset="0.326" style="stop-color:#C44132"/>
	<stop  offset="0.432" style="stop-color:#D24636"/>
	<stop  offset="0.5549" style="stop-color:#DC4939"/>
	<stop  offset="0.7097" style="stop-color:#E34B3B"/>
	<stop  offset="1" style="stop-color:#E64C3C"/>
</linearGradient>
<path class="st33" d="M-3166.2,1603.7c1.9-4.8,2.8-10.1,2.7-16.1c0.8-16.1-12.7-34.8-33.4-37.8c-12.7-1.9-24.1,1.6-33.4,10.7
	c-12.1,11.8-23.9,23.8-35.9,35.8c-5.7,5.7-12,6.2-17.8,1.6c18.7,16.3,63.7,45.7,116.3,9.2l0,0L-3166.2,1603.7z"/>
<path d="M-3266.8,1552c0,0-25.6,24.6-28.6,26.3c-3,1.7,33.1,45.9,33.1,45.9l40.4-39.5l-27.3-27.6L-3266.8,1552z"/>
<linearGradient id="SVGID_26_" gradientUnits="userSpaceOnUse" x1="-3285.3914" y1="-464.3098" x2="-3228.8313" y2="-377.4259" gradientTransform="matrix(1 0 0 -1 0 1158)">
	<stop  offset="5.649198e-02" style="stop-color:#86888A"/>
	<stop  offset="9.513317e-02" style="stop-color:#9B9D9F"/>
	<stop  offset="0.1498" style="stop-color:#B4B6B8"/>
	<stop  offset="0.2117" style="stop-color:#CACCCE"/>
	<stop  offset="0.2816" style="stop-color:#DCDEDF"/>
	<stop  offset="0.3634" style="stop-color:#EBEBEC"/>
	<stop  offset="0.4644" style="stop-color:#F5F5F5"/>
	<stop  offset="0.6061" style="stop-color:#FCFCFC"/>
	<stop  offset="0.9995" style="stop-color:#FFFFFF"/>
</linearGradient>
<path class="st34" d="M-3213.5,1578.9l-40.9-40.9c-4.3-4.3-11.2-4.3-15.5,0l-40.9,40.9c-4.3,4.3-4.3,11.2,0,15.5l40.9,40.9
	c4.3,4.3,11.2,4.3,15.5,0l40.9-40.9C-3209.2,1590.1-3209.2,1583.2-3213.5,1578.9z M-3281.4,1589.7c-1.8,1.8-4.8,1.8-6.7,0
	c-1.8-1.8-1.8-4.8,0-6.7c1.8-1.8,4.8-1.8,6.7,0C-3279.6,1584.9-3279.6,1587.9-3281.4,1589.7z M-3265.6,1560.6c1.8-1.8,4.8-1.8,6.7,0
	c1.8,1.8,1.8,4.8,0,6.7c-1.8,1.8-4.8,1.8-6.7,0C-3267.5,1565.5-3267.5,1562.5-3265.6,1560.6z M-3265.4,1583.3c1.8-1.8,4.8-1.8,6.7,0
	c1.8,1.8,1.8,4.8,0,6.7c-1.8,1.8-4.8,1.8-6.7,0C-3267.3,1588.1-3267.3,1585.1-3265.4,1583.3z M-3258.8,1612.4
	c-1.8,1.8-4.8,1.8-6.7,0c-1.8-1.8-1.8-4.8,0-6.7c1.8-1.8,4.8-1.8,6.7,0C-3256.9,1607.6-3256.9,1610.6-3258.8,1612.4z M-3236.3,1590
	c-1.8,1.8-4.8,1.8-6.7,0c-1.8-1.8-1.8-4.8,0-6.7c1.8-1.8,4.8-1.8,6.7,0C-3234.5,1585.2-3234.5,1588.1-3236.3,1590z"/>
<path class="st24" d="M-3315.2,1625.6"/>
<path class="st4" d="M-3285.8,1596.2c0.6,0.6,1.2,1.1,1.8,1.6C-3284.7,1597.2-3285.3,1596.7-3285.8,1596.2
	C-3285.9,1596.1-3285.9,1596.2-3285.8,1596.2z"/>
<linearGradient id="SVGID_27_" gradientUnits="userSpaceOnUse" x1="-3346.1375" y1="-502.7704" x2="-3284.0889" y2="-439.559" gradientTransform="matrix(1 0 0 -1 0 1158)">
	<stop  offset="0.1559" style="stop-color:#9F3224"/>
	<stop  offset="0.2316" style="stop-color:#B23A2C"/>
	<stop  offset="0.3259" style="stop-color:#C44132"/>
	<stop  offset="0.4319" style="stop-color:#D24636"/>
	<stop  offset="0.5547" style="stop-color:#DC4939"/>
	<stop  offset="0.7094" style="stop-color:#E34B3B"/>
	<stop  offset="0.9995" style="stop-color:#E64C3C"/>
</linearGradient>
<path class="st35" d="M-3284,1597.8c-0.6-0.5-1.2-1-1.8-1.6c0,0,0,0-0.1-0.1c-4.8-4.3-7.3-7.4-7.3-7.4l0,0
	c-9.3-9.4-18.6-18.8-28.1-27.9c-10.1-9.7-21.8-13.5-34.4-11c-31.4,6.3-42.7,45.6-20,68.3c32.2,32.2,64.4,64.4,96.6,96.7
	c1.8,1.8,4.6,1.8,6.4,0c13.4-13.4,26.8-26.9,40.3-40.3c19.3-19.3,38.6-38.6,57.8-57.9c2.2-2.2,4.1-4.6,5.6-7.1
	c0.4-0.6-0.3-1.3-0.9-0.9C-3221.6,1642.7-3265.6,1613.9-3284,1597.8z"/>
<path class="st24" d="M-3285.9,1596.1c-2.5-2.5-4.9-4.9-7.3-7.4l0,0C-3293.2,1588.7-3290.7,1591.8-3285.9,1596.1z"/>
<radialGradient id="SVGID_28_" cx="-2429.0774" cy="-819.85" r="51.875" gradientTransform="matrix(1 0 0 -1 0 1158)" gradientUnits="userSpaceOnUse">
	<stop  offset="0" style="stop-color:#F5DB91"/>
	<stop  offset="1" style="stop-color:#F2D067"/>
</radialGradient>
<path class="st36" d="M-2380.4,1970.1l-40.9-40.9c-4.3-4.3-11.2-4.3-15.5,0l-40.9,40.9c-4.3,4.3-4.3,11.2,0,15.5l40.9,40.9
	c4.3,4.3,11.2,4.3,15.5,0l40.9-40.9C-2376.1,1981.4-2376.1,1974.4-2380.4,1970.1z M-2448.4,1981c-1.8,1.8-4.8,1.8-6.7,0
	c-1.8-1.8-1.8-4.8,0-6.7c1.8-1.8,4.8-1.8,6.7,0C-2446.5,1976.2-2446.5,1979.1-2448.4,1981z M-2432.6,1951.9c1.8-1.8,4.8-1.8,6.7,0
	c1.8,1.8,1.8,4.8,0,6.7c-1.8,1.8-4.8,1.8-6.7,0C-2434.4,1956.7-2434.4,1953.7-2432.6,1951.9z M-2432.4,1974.5c1.8-1.8,4.8-1.8,6.7,0
	c1.8,1.8,1.8,4.8,0,6.7c-1.8,1.8-4.8,1.8-6.7,0C-2434.2,1979.3-2434.2,1976.4-2432.4,1974.5z M-2425.7,2003.7
	c-1.8,1.8-4.8,1.8-6.7,0c-1.8-1.8-1.8-4.8,0-6.7c1.8-1.8,4.8-1.8,6.7,0C-2423.8,1998.8-2423.8,2001.8-2425.7,2003.7z
	 M-2403.2,1981.2c-1.8,1.8-4.8,1.8-6.7,0c-1.8-1.8-1.8-4.8,0-6.7c1.8-1.8,4.8-1.8,6.7,0C-2401.4,1976.4-2401.4,1979.4-2403.2,1981.2
	z"/>
<path class="st24" d="M-2467.9,2072.8"/>
<path class="st4" d="M-2438.5,2043.4c0.6,0.6,1.2,1.1,1.8,1.6C-2437.3,2044.5-2438,2043.9-2438.5,2043.4
	C-2438.6,2043.4-2438.5,2043.4-2438.5,2043.4z"/>
<radialGradient id="SVGID_29_" cx="-2428.2332" cy="-921.9013" r="98.8829" gradientTransform="matrix(1 0 0 -1 0 1158)" gradientUnits="userSpaceOnUse">
	<stop  offset="0" style="stop-color:#F5DB91"/>
	<stop  offset="1" style="stop-color:#F2D067"/>
</radialGradient>
<path class="st37" d="M-2349.6,1997c-12.7-1.9-24.1,1.6-33.4,10.7c-12.1,11.8-23.9,23.8-35.9,35.8c-5.7,5.7-12,6.2-17.8,1.6
	c0.3,0.3,0.6,0.5,0.9,0.8c-0.3-0.3-0.6-0.5-0.9-0.8c-0.6-0.5-1.2-1-1.8-1.6c0,0,0,0-0.1-0.1c-4.8-4.3-7.3-7.4-7.3-7.4l0,0
	c-9.3-9.4-18.6-18.8-28.1-27.9c-10.1-9.7-21.8-13.5-34.4-11c-31.4,6.3-42.7,45.6-20,68.3c32.2,32.2,64.4,64.4,96.6,96.7
	c1.8,1.8,4.6,1.8,6.4,0c13.4-13.4,26.8-26.9,40.3-40.3c19.3-19.3,38.6-38.6,57.8-57.9c2.2-2.2,4.1-4.6,5.6-7.1
	c0.4-0.6-0.3-1.3-0.9-0.9c0,0-0.1,0-0.1,0.1c0.8-0.5,1.6-1.1,2.4-1.6l0,0l1.5-3.3c1.9-4.8,2.8-10.1,2.7-16.1
	C-2315.3,2018.7-2328.8,2000-2349.6,1997z M-2328.7,2059.5c-0.4,0.2-0.8,0.5-1.3,0.7C-2329.6,2060-2329.2,2059.8-2328.7,2059.5z
	 M-2331.1,2060.9c-0.4,0.2-0.8,0.5-1.3,0.7C-2332,2061.3-2331.6,2061.1-2331.1,2060.9z M-2333.5,2062.1c-0.4,0.2-0.8,0.4-1.2,0.6
	C-2334.4,2062.5-2334,2062.3-2333.5,2062.1z M-2335.9,2063.3c-0.4,0.2-0.8,0.4-1.2,0.6C-2336.7,2063.7-2336.3,2063.5-2335.9,2063.3z
	 M-2338.3,2064.4c-0.4,0.2-0.8,0.4-1.2,0.5C-2339.1,2064.7-2338.7,2064.5-2338.3,2064.4z M-2340.6,2065.4c-0.4,0.2-0.8,0.3-1.2,0.5
	C-2341.4,2065.7-2341,2065.5-2340.6,2065.4z M-2343,2066.3c-0.4,0.2-0.8,0.3-1.2,0.4C-2343.8,2066.6-2343.4,2066.4-2343,2066.3z
	 M-2345.3,2067.1c-0.4,0.1-0.8,0.3-1.2,0.4C-2346.1,2067.4-2345.7,2067.3-2345.3,2067.1z M-2347.6,2067.9c-0.4,0.1-0.8,0.2-1.2,0.4
	C-2348.4,2068.1-2348,2068-2347.6,2067.9z M-2349.9,2068.6c-0.4,0.1-0.8,0.2-1.2,0.3C-2350.7,2068.8-2350.3,2068.7-2349.9,2068.6z
	 M-2352.2,2069.2c-0.4,0.1-0.8,0.2-1.2,0.3C-2352.9,2069.4-2352.5,2069.3-2352.2,2069.2z M-2354.4,2069.7c-0.4,0.1-0.8,0.2-1.1,0.3
	C-2355.2,2069.9-2354.8,2069.8-2354.4,2069.7z M-2400.7,2066.6c-0.3-0.1-0.6-0.2-0.9-0.3C-2401.3,2066.4-2401,2066.5-2400.7,2066.6z
	 M-2382,2071.1c-0.3,0-0.7-0.1-1-0.1C-2382.7,2071.1-2382.4,2071.1-2382,2071.1z M-2384,2070.9c-0.3,0-0.7-0.1-1-0.2
	C-2384.7,2070.8-2384.3,2070.8-2384,2070.9z M-2386,2070.6c-0.3-0.1-0.7-0.1-1-0.2C-2386.6,2070.4-2386.3,2070.5-2386,2070.6z
	 M-2387.9,2070.2c-0.3-0.1-0.6-0.1-1-0.2C-2388.5,2070.1-2388.2,2070.1-2387.9,2070.2z M-2389.8,2069.8c-0.3-0.1-0.6-0.1-1-0.2
	C-2390.4,2069.7-2390.1,2069.7-2389.8,2069.8z M-2391.7,2069.4c-0.3-0.1-0.6-0.2-1-0.2C-2392.3,2069.2-2392,2069.3-2391.7,2069.4z
	 M-2393.5,2068.9c-0.3-0.1-0.6-0.2-0.9-0.3C-2394.2,2068.7-2393.8,2068.8-2393.5,2068.9z M-2395.4,2068.4c-0.3-0.1-0.6-0.2-0.9-0.3
	C-2396,2068.2-2395.7,2068.3-2395.4,2068.4z M-2397.2,2067.8c-0.3-0.1-0.6-0.2-0.9-0.3C-2397.8,2067.6-2397.5,2067.7-2397.2,2067.8z
	 M-2399,2067.3c-0.3-0.1-0.6-0.2-0.9-0.3C-2399.6,2067-2399.3,2067.2-2399,2067.3z M-2418.2,2058.4c-0.3-0.1-0.5-0.3-0.7-0.4
	C-2418.7,2058.1-2418.4,2058.3-2418.2,2058.4z M-2402.4,2066c-0.3-0.1-0.6-0.2-0.9-0.3C-2403,2065.8-2402.7,2065.9-2402.4,2066z
	 M-2404.1,2065.3c-0.3-0.1-0.6-0.2-0.9-0.4C-2404.7,2065.1-2404.4,2065.2-2404.1,2065.3z M-2405.8,2064.7c-0.3-0.1-0.6-0.2-0.8-0.4
	C-2406.4,2064.4-2406.1,2064.5-2405.8,2064.7z M-2407.5,2063.9c-0.3-0.1-0.6-0.3-0.8-0.4C-2408,2063.7-2407.7,2063.8-2407.5,2063.9z
	 M-2409.1,2063.2c-0.3-0.1-0.6-0.3-0.8-0.4C-2409.6,2062.9-2409.4,2063.1-2409.1,2063.2z M-2410.7,2062.4c-0.3-0.1-0.5-0.3-0.8-0.4
	C-2411.2,2062.2-2410.9,2062.3-2410.7,2062.4z M-2412.2,2061.7c-0.3-0.1-0.5-0.3-0.8-0.4
	C-2412.8,2061.4-2412.5,2061.5-2412.2,2061.7z M-2413.8,2060.9c-0.3-0.1-0.5-0.3-0.8-0.4C-2414.3,2060.6-2414,2060.7-2413.8,2060.9z
	 M-2415.3,2060.1c-0.3-0.1-0.5-0.3-0.8-0.4C-2415.8,2059.8-2415.5,2059.9-2415.3,2060.1z M-2416.7,2059.3c-0.3-0.1-0.5-0.3-0.7-0.4
	C-2417.2,2059-2417,2059.1-2416.7,2059.3z M-2435.6,2046c0.3,0.2,0.5,0.4,0.8,0.7C-2435.1,2046.4-2435.4,2046.2-2435.6,2046z
	 M-2434.5,2046.9c0.2,0.2,0.4,0.3,0.6,0.5C-2434.1,2047.3-2434.3,2047.1-2434.5,2046.9z M-2433.5,2047.8c0.2,0.2,0.4,0.3,0.6,0.5
	C-2433.1,2048.1-2433.3,2047.9-2433.5,2047.8z M-2432.4,2048.6c0.2,0.2,0.4,0.3,0.6,0.5C-2432.1,2048.9-2432.2,2048.8-2432.4,2048.6
	z M-2429.2,2051.1c0.2,0.2,0.4,0.3,0.6,0.5C-2428.7,2051.4-2428.9,2051.3-2429.2,2051.1z M-2431.4,2049.4c0.2,0.2,0.4,0.3,0.6,0.5
	C-2431,2049.8-2431.2,2049.6-2431.4,2049.4z M-2430.3,2050.3c0.2,0.2,0.4,0.3,0.6,0.5C-2429.9,2050.6-2430.1,2050.4-2430.3,2050.3z
	 M-2425.6,2053.7c0.2,0.2,0.4,0.3,0.7,0.5C-2425.1,2054-2425.3,2053.9-2425.6,2053.7z M-2428,2052c0.2,0.2,0.4,0.3,0.6,0.5
	C-2427.6,2052.3-2427.8,2052.1-2428,2052z M-2426.8,2052.9c0.2,0.2,0.4,0.3,0.6,0.5C-2426.4,2053.2-2426.6,2053-2426.8,2052.9z
	 M-2419.6,2057.6c-0.2-0.1-0.5-0.3-0.7-0.5C-2420.1,2057.3-2419.8,2057.4-2419.6,2057.6z M-2421,2056.7c-0.2-0.2-0.5-0.3-0.7-0.5
	C-2421.4,2056.4-2421.2,2056.6-2421,2056.7z M-2422.3,2055.9c-0.2-0.2-0.5-0.3-0.7-0.5C-2422.8,2055.6-2422.5,2055.7-2422.3,2055.9z
	 M-2423.6,2055c-0.2-0.1-0.4-0.3-0.7-0.4C-2424.1,2054.7-2423.8,2054.9-2423.6,2055z M-2372.9,2071.7c0.4,0,0.7,0,1.1,0
	C-2372.2,2071.7-2372.5,2071.7-2372.9,2071.7z M-2381,2071.3c0.3,0,0.7,0.1,1,0.1C-2380.4,2071.3-2380.7,2071.3-2381,2071.3z
	 M-2379,2071.5c0.3,0,0.7,0.1,1,0.1C-2378.3,2071.5-2378.7,2071.5-2379,2071.5z M-2377,2071.6c0.3,0,0.7,0,1,0.1
	C-2376.3,2071.6-2376.7,2071.6-2377,2071.6z M-2374.9,2071.7c0.4,0,0.7,0,1.1,0C-2374.2,2071.7-2374.6,2071.7-2374.9,2071.7z
	 M-2356.7,2070.2c-0.4,0.1-0.8,0.2-1.1,0.2C-2357.4,2070.4-2357,2070.3-2356.7,2070.2z M-2358.9,2070.6c-0.4,0.1-0.8,0.1-1.1,0.2
	C-2359.6,2070.8-2359.3,2070.7-2358.9,2070.6z M-2361.1,2071c-0.4,0.1-0.7,0.1-1.1,0.2C-2361.8,2071.1-2361.5,2071-2361.1,2071z
	 M-2363.3,2071.2c-0.4,0-0.7,0.1-1.1,0.1C-2364,2071.3-2363.6,2071.3-2363.3,2071.2z M-2365.4,2071.5c-0.4,0-0.7,0.1-1.1,0.1
	C-2366.2,2071.5-2365.8,2071.5-2365.4,2071.5z M-2367.6,2071.6c-0.4,0-0.7,0-1.1,0.1C-2368.3,2071.7-2367.9,2071.6-2367.6,2071.6z
	 M-2369.7,2071.7c-0.4,0-0.7,0-1.1,0C-2370.4,2071.7-2370.1,2071.7-2369.7,2071.7z M-2327.6,2058.9c0.4-0.2,0.8-0.5,1.3-0.8
	C-2326.8,2058.3-2327.2,2058.6-2327.6,2058.9z M-2325.2,2057.4c0.4-0.3,0.9-0.6,1.3-0.8C-2324.3,2056.8-2324.7,2057.1-2325.2,2057.4
	z"/>
<path class="st24" d="M-2438.6,2043.4c-2.5-2.5-4.9-4.9-7.3-7.4l0,0C-2445.9,2036-2443.3,2039-2438.6,2043.4z"/>
<g>
	<path d="M-2825.8,478.5l-3.7-7l-3.4-6.2c-2.3-4.1-4.6-8.3-7-12.4c-4.8-8.2-9.8-16.3-14.9-24.3c-10.3-16-21.2-31.7-32.8-46.7
		c-11.7-15-24-29.4-37.3-42.8s-27.5-25.9-42.8-36.7c-7.7-5.4-15.6-10.3-23.8-14.7c-8.2-4.4-16.7-8.1-25.4-11.1
		c-17.4-5.9-35.8-8.7-54.1-7.4l-3.4,0.3l-1.7,0.1l-1.7,0.2c-2.3,0.4-4.5,0.6-6.8,1l-6.7,1.4l-6.6,1.8c-8.8,2.6-17.4,6.2-25.6,10.4
		l-6.1,3.3c-2,1.1-4,2.4-6,3.6l-3,1.8l-2.9,2c-1.9,1.3-3.9,2.6-5.8,4c-7.6,5.6-14.7,11.6-21.6,18c-6.7,6.5-12.9,13.4-18.7,20.8
		c-5.6,7.4-10.7,15.2-15.2,23.3c-4.5,8.1-8.1,16.7-11.2,25.4l-1.1,3.3c-0.4,1.1-0.7,2.2-1,3.3l-1.9,6.7c-1,4.5-2.1,9-2.8,13.6
		c-1.5,9.1-2.5,18.4-2.6,27.7c-0.1,2.3,0,4.6,0,7c0,2.3,0,4.6,0.2,7l0.4,7l0.7,6.9c0.2,2.3,0.6,4.6,0.9,6.9c0.3,2.3,0.6,4.6,1.1,6.9
		l1.3,6.9l1.6,6.8c0.5,2.3,1.1,4.5,1.8,6.8c0.6,2.2,1.2,4.5,1.9,6.8l2.1,6.7l0.5,1.7l0.6,1.7l1.2,3.3c6.3,17.7,14.5,34.7,23.9,51
		c9.4,16.4,20.2,32,31.8,46.9c23.3,29.8,50.3,56.8,79.4,81.2c29.1,24.4,60.5,46.2,93.1,65.9c32.6,19.8,66.6,37.1,101.4,52.8
		c17.4,7.8,35.1,15.1,52.8,22c8.9,3.4,17.9,6.8,26.7,9.9c8.9,3.1,17.8,6,26.8,8.7c8.9,2.7,17.9,5,26.8,7c8.9,2,17.9,3.4,26.6,4.3
		l3.3,0.3l3.2,0.2c2.2,0.2,4.3,0.2,6.4,0.3c4.2,0,8.3-0.1,12.3-0.5c7.9-0.9,15-2.8,20.3-6c5.3-3.1,8.9-7.2,11.6-12.9
		c2.6-5.7,4-13.1,4.2-21.1s-0.5-16.6-1.9-25.3c-0.7-4.3-1.6-8.7-2.6-13.1c-1-4.4-2.1-8.8-3.3-13.2c-4.9-17.6-11.3-35.3-18.5-52.7
		s-15.1-34.8-23.5-51.9c-16.8-34.3-35.4-67.9-55-100.9c-9.9-16.5-20-32.9-30.4-49.1c-5.2-8.1-10.5-16.1-15.8-24.2l-8-12
		L-2825.8,478.5z M-2803.5,464.8c0.2,0.2,0.4,0.5,0.6,0.7l1.1,1.4l2.2,3l4.3,6l8.5,11.9c5.6,8,11.2,16,16.7,24.1
		c11,16.1,21.9,32.4,32.4,48.8c21.2,32.9,41.4,66.4,60,101.2c9.2,17.4,18,35.1,26,53.3c4,9.1,7.8,18.4,11.4,27.8
		c3.6,9.4,6.9,19,9.7,28.8c1.4,4.9,2.8,9.9,4,14.9s2.3,10.2,3.2,15.4c1.8,10.4,2.9,21.2,2.6,32.6c-0.2,5.7-0.7,11.5-1.9,17.4
		s-3,12-5.7,18c-2.7,5.9-6.4,11.7-11,16.8s-10,9.4-15.8,12.7c-5.7,3.3-11.7,5.6-17.6,7.3c-5.9,1.6-11.7,2.6-17.4,3.2
		c-5.7,0.6-11.3,0.7-16.7,0.6c-2.7-0.1-5.5-0.2-8.1-0.4l-4-0.3l-4-0.4c-10.5-1.2-20.7-3.1-30.7-5.4c-10-2.3-19.7-5.1-29.3-8.1
		s-19-6.3-28.3-9.8s-18.4-7.2-27.5-10.9c-18.2-7.5-36.2-15.5-54-24s-35.2-17.6-52.5-27.2c-17.2-9.5-34.2-19.7-50.7-30.4
		c-33.1-21.4-64.8-45.2-94.3-71.6c-29.4-26.4-56.6-55.5-80.1-87.5c-11.7-16-22.6-32.7-31.9-50.3c-9.4-17.5-17.6-35.8-23.9-54.8
		l-1.2-3.6l-0.6-1.8l-0.5-1.8l-2.1-7.2c-0.7-2.4-1.3-4.9-1.9-7.3c-0.6-2.4-1.2-4.9-1.7-7.3l-1.5-7.4l-1.3-7.4
		c-0.5-2.5-0.7-5-1.1-7.5c-0.3-2.5-0.7-5-0.9-7.5c-1.9-20-1.4-40.4,2.4-60.3c0.9-5,2.1-9.9,3.3-14.8l2.2-7.3
		c0.3-1.2,0.8-2.4,1.2-3.6l1.3-3.6c0.4-1.2,0.8-2.4,1.3-3.6l1.4-3.5c1-2.3,1.9-4.7,3-7s2.1-4.6,3.3-6.9l3.6-6.7
		c5-8.8,10.6-17.2,16.8-25.2c6.3-7.9,13.1-15.3,20.4-22.2c7.3-6.9,15.1-13.2,23.1-19.1c8.2-5.8,16.6-11.3,25.6-15.9
		s18.4-8.6,28.1-11.6c9.7-3,19.8-5,30-5.9s20.5-0.8,30.7,0.4s20.2,3.4,29.9,6.5c19.5,6,37.6,15.4,54.3,26.3
		c16.8,10.9,32.3,23.6,46.8,37.2s28,28.2,40.6,43.4c12.6,15.2,24.5,31,35.6,47.3c5.6,8.2,10.9,16.4,16.1,24.8
		c2.6,4.2,5.2,8.4,7.7,12.7c1.3,2.1,2.5,4.3,3.7,6.5l1.8,3.3l0.9,1.7L-2803.5,464.8l0.2,0.4
		C-2803.1,465.6-2803.2,465.3-2803.5,464.8z"/>
</g>
<g>
	<path d="M-2625.5,722.3l3.3-2.7l2.7-2.2l5.4-4.6c3.6-3.1,7.2-6.2,10.7-9.4c7.1-6.4,14-12.9,20.8-19.6
		c13.6-13.3,26.5-27.3,38.7-41.8s23.5-29.6,33.7-45.3s19.1-32,26.2-48.9c7-16.8,12.2-34.2,14.2-51.6c1-8.7,1.3-17.3,0.7-25.8
		s-2.1-16.9-4.3-25c-2.3-8.1-5.4-16-9.4-23.5s-8.7-14.7-14-21.5l-4.1-5c-1.4-1.7-2.9-3.2-4.4-4.9l-2.2-2.4l-2.3-2.3
		c-1.6-1.5-3.1-3.1-4.7-4.6c-6.5-6.1-13.3-11.8-20.4-17c-7.2-5.1-14.6-9.8-22.3-13.9c-7.7-4-15.7-7.4-23.9-10.2l-6.2-2
		c-2.1-0.6-4.2-1.1-6.3-1.7s-4.2-1-6.3-1.4l-3.2-0.7c-1.1-0.2-2.1-0.3-3.2-0.5l-3.2-0.5c-1.1-0.2-2.1-0.4-3.2-0.4l-6.5-0.7
		c-4.3-0.3-8.7-0.6-13-0.5c-17.4-0.2-35,2.6-52.1,7.4c-17.1,4.9-33.8,12-49.7,20.7c-16,8.7-31.2,19.1-45.6,30.6
		c-14.5,11.5-28,24.3-40.9,37.8c-25.8,27-48.4,57.4-68.4,89.6s-37.1,66.3-52,101.4c-14.9,35.1-27.3,71.4-37.7,108.3
		c-5.1,18.5-9.8,37.1-14,55.8c-2,9.4-4.1,18.8-5.8,28.2s-3.3,18.8-4.6,28.2s-2.3,18.8-2.8,28.2s-0.7,18.8-0.1,28l0.2,3.5l0.3,3.4
		c0.2,2.3,0.5,4.5,0.8,6.8c0.7,4.5,1.6,8.9,2.8,13.2c2.4,8.5,5.9,16.6,11.1,22.8c5.2,6.3,12,10.6,20,12.7c8,2.1,16.9,2.1,25.8,0.9
		c8.9-1.3,17.9-3.7,26.7-6.8c4.4-1.5,8.8-3.3,13.1-5.1s8.6-3.8,12.9-5.9c17-8.3,33.5-18.1,49.5-28.7c16-10.5,31.5-21.9,46.7-33.7
		c30.4-23.6,59.4-49.1,87.6-75.3c14.1-13.1,28.1-26.5,41.8-40c6.9-6.8,13.7-13.6,20.5-20.4l10.1-10.3L-2625.5,722.3z M-2610.3,739.4
		c-0.2,0.3-0.5,0.5-0.7,0.7l-1.3,1.3l-2.6,2.6l-5.2,5.1l-10.5,10.2c-7,6.7-14.1,13.4-21.3,20.1c-14.3,13.2-28.8,26.2-43.5,39
		s-29.6,25.3-44.8,37.6c-15.2,12.2-30.5,24.3-46.2,35.9c-15.7,11.7-31.7,22.9-48.1,33.6c-8.2,5.3-16.6,10.5-25.1,15.5
		s-17.2,9.7-26.1,14.1c-4.4,2.2-8.9,4.3-13.5,6.3s-9.2,3.9-13.9,5.6c-9.4,3.5-19.2,6.3-29.5,7.9c-5.1,0.8-10.4,1.3-15.7,1.2
		c-5.4-0.1-10.8-0.7-16.2-2c-5.4-1.4-10.7-3.5-15.6-6.5c-4.9-3-9.3-6.8-12.9-11c-3.7-4.3-6.7-9-9.1-13.8c-2.4-4.9-4.3-9.9-5.8-14.9
		s-2.6-10.1-3.5-15.2c-0.4-2.5-0.8-5.1-1.1-7.6l-0.4-3.8l-0.3-3.8c-1.6-20.2-0.5-40.1,1.6-59.8c1.1-9.8,2.4-19.6,3.9-29.3
		c1.6-9.7,3.4-19.3,5.1-28.9c3.7-19.2,7.8-38.4,12.5-57.4c9.5-38,20.8-75.7,34.9-112.5c14-36.8,30.6-72.7,50.3-107.2
		c19.7-34.4,42.8-67.2,69.6-97.1c1.7-1.9,3.3-3.7,5.1-5.6l5.2-5.5c3.4-3.7,7.1-7.2,10.7-10.7c1.8-1.8,3.7-3.5,5.5-5.2l5.6-5.2l5.7-5
		c1.9-1.7,3.8-3.3,5.8-4.9c15.6-13,32.3-24.9,50.2-35.1c4.4-2.6,9-5,13.6-7.3c2.3-1.2,4.7-2.2,7-3.4c2.3-1.1,4.7-2.2,7.1-3.2l7.2-3
		l7.3-2.8c2.4-1,4.9-1.7,7.4-2.6c2.5-0.8,4.9-1.7,7.5-2.4l7.6-2.2l7.7-1.8c2.5-0.7,5.2-1.1,7.7-1.6c2.6-0.5,5.2-1,7.8-1.4
		c10.4-1.7,21.1-2.4,31.8-2.5c5.3-0.1,10.7,0.3,16,0.6l8,0.8c1.3,0.1,2.7,0.3,4,0.5l4,0.6c1.3,0.2,2.7,0.4,4,0.6l3.9,0.8
		c2.6,0.6,5.3,1,7.8,1.8c2.6,0.7,5.2,1.3,7.8,2.1l7.7,2.4c10.2,3.5,20,7.7,29.4,12.7c9.4,5.1,18.4,10.8,26.9,17
		c4.2,3.2,8.4,6.4,12.3,9.9c4.1,3.3,7.8,7,11.7,10.6c1.9,1.8,3.7,3.8,5.5,5.7l2.8,2.8l2.6,3c1.7,2,3.5,4,5.2,6l5,6.3
		c6.4,8.6,12.2,17.8,17,27.6l3.5,7.4l3,7.6c1,2.6,1.7,5.2,2.6,7.8l0.6,2l0.5,2l1,4c2.7,10.6,4.1,21.5,4.5,32.4
		c0.4,10.8-0.4,21.6-2,32.1s-4.2,20.8-7.4,30.7c-3.2,9.9-7.1,19.5-11.4,28.8c-8.7,18.6-19.2,36-30.8,52.4s-24.2,31.9-37.5,46.6
		c-13.3,14.7-27.3,28.7-41.7,42.1c-7.2,6.7-14.6,13.3-22.1,19.6c-3.8,3.2-7.6,6.3-11.4,9.5c-1.9,1.6-3.9,3.1-5.8,4.6l-3,2.3
		l-1.5,1.1l-0.8,0.6l-0.4,0.3C-2610.9,739.8-2610.7,739.7-2610.3,739.4z"/>
</g>
<linearGradient id="SVGID_30_" gradientUnits="userSpaceOnUse" x1="-5941.4131" y1="652.9588" x2="-5397.5239" y2="1371.3414" gradientTransform="matrix(0.9997 2.304294e-02 2.304294e-02 -0.9997 -337.2253 1059.8335)">
	<stop  offset="0" style="stop-color:#F6AD34"/>
	<stop  offset="0.1192" style="stop-color:#F5A443"/>
	<stop  offset="0.3545" style="stop-color:#F28D5F"/>
	<stop  offset="0.6795" style="stop-color:#EF6576"/>
	<stop  offset="1" style="stop-color:#ED0F81"/>
</linearGradient>
<path class="st38" d="M-5526.2,155.5c3.4-149.5-111.5-274.2-259.2-284.4v-0.3l-97.5-2.2c-21.7-0.5-38.9-18.5-38.4-40.3l2.6-114.1
	h-1.2c-9.2-140.5-122.9-253.5-265.5-259.8c-156.9-7-287.5,119.9-291.2,276.9l-9.6,415h0.3c3.1,138.3,107.4,252.7,243.1,269.9
	l440.6,11.7v-0.2C-5652.3,426.3-5529.7,306.3-5526.2,155.5z"/>
<path class="st39" d="M-5953.1,427.6c-27.3,0-54.6-0.4-81.9,0.1c-16.8,0.3-29.6-6.1-38.5-20c-13.2-20.6-25.6-41.7-38.8-62.3
	c-9.9-15.5-19.9-30.9-30.8-45.6c-9.7-13.1-19-13-28.9,0.2c-10.5,14.1-20.2,28.7-29.6,43.5c-12.6,19.8-24.6,40.1-36.8,60.1
	c-10.1,16.6-24.2,24.4-44.2,24.1c-54-0.7-108-0.2-162.1-0.4c-6.8,0-13.8-1-20.5-2.4c-8.2-1.7-12.8-7.4-14-15.6
	c-2-14,0.9-27.6,4.4-40.9c10-38.1,27.6-73,46.3-107.3c20-36.8,40.8-73.1,60.4-110.1c6.3-11.9,9.9-25.2,14.1-38.1
	c2-6.3-0.5-12.4-6.8-14.7c-8-3-16.5-5.7-24.9-6.4c-18.7-1.6-37.6-1.3-56.3-2.8c-17.7-1.4-34.9-4.9-48.9-17.1
	c-19.2-16.9-24.9-51.6-12.6-76.1c9.1-18.2,23.5-31.6,39.8-43.1c33.6-23.9,71.3-39.6,109.9-53.4c22.3-8,45-14.7,67.3-22.6
	c18.7-6.5,15-3,16.2-21.5c1.8-27.6,5.5-54.7,18.3-79.6c16.1-31.4,42.4-48,77-52.2c26.9-3.3,52.9-0.4,76.8,13.5
	c23.4,13.6,36.2,35.1,44.2,60.1c6.6,20.7,8.9,42.1,9.4,63.7c0.2,7.5,2.6,11.6,9.7,13.9c21.4,6.8,42.8,13.9,64,21.2
	c34.7,12,68.8,25.6,100.5,44.5c21,12.5,40.7,26.6,54.3,47.7c15.3,23.6,15.2,55-0.6,76.4c-9.8,13.3-23.9,19.9-39.8,22.3
	c-13.4,2-27.1,2.7-40.7,3.8c-15.5,1.3-31.2,1.5-46.6,3.8c-15.4,2.2-20.5,10.6-15.5,25.4c4.9,14.3,10.8,28.4,17.9,41.8
	c22.5,42.2,46.2,83.7,68.4,125.9c16.6,31.5,30.6,64.2,36.6,99.6c1.2,7.3,1.3,14.9,0.8,22.4c-0.5,8.4-5.7,13.9-13.8,15.8
	c-6.5,1.5-13.3,2.4-19.9,2.5C-5897.3,427.8-5925.2,427.6-5953.1,427.6z"/>
<linearGradient id="SVGID_31_" gradientUnits="userSpaceOnUse" x1="-4984.4121" y1="153.7752" x2="-4191.144" y2="694.3511" gradientTransform="matrix(1 0 0 -1 0 1158)">
	<stop  offset="0" style="stop-color:#F6AD34"/>
	<stop  offset="0.1192" style="stop-color:#F5A443"/>
	<stop  offset="0.3545" style="stop-color:#F28D5F"/>
	<stop  offset="0.6795" style="stop-color:#EF6576"/>
	<stop  offset="1" style="stop-color:#ED0F81"/>
</linearGradient>
<path class="st40" d="M-4705.8,1253.3l-181.9-4.8c-1.7-0.2-3.5-0.5-5.2-0.7c3.4-3.3,6.5-7.1,9.3-11.7c12.2-20.1,24.2-40.3,36.8-60.1
	c9.4-14.8,19.1-29.5,29.6-43.5c9.9-13.3,19.2-13.4,28.9-0.2c10.9,14.7,20.9,30.1,30.8,45.6c13.2,20.6,25.7,41.7,38.8,62.3
	C-4714.9,1245.7-4710.7,1250.1-4705.8,1253.3z M-5073.6,1093.4c20-36.8,40.8-73.1,60.4-110.1c6.3-11.9,9.9-25.2,14.1-38.1
	c2-6.3-0.5-12.4-6.8-14.7c-8-3-16.5-5.7-24.9-6.4c-18.7-1.6-37.6-1.3-56.3-2.8c-15-1.2-29.7-3.9-42.3-12.2l-1.6,69.4h0.3
	c1.2,52,16.7,100.7,42.8,142C-5083.3,1111.5-5078.5,1102.4-5073.6,1093.4z M-4430.4,703.4v-0.3l-97.5-2.2
	c-21.7-0.5-38.9-18.5-38.4-40.3l2.6-114.1h-1.2c-9.2-140.5-122.9-253.5-265.5-259.8c-156.9-7-287.5,119.9-291.2,276.9l-5.4,236
	c5.6-5.3,11.7-10.1,18.1-14.7c33.6-23.9,71.3-39.6,109.9-53.4c22.3-8,45-14.7,67.3-22.6c18.7-6.5,15-3,16.2-21.5
	c1.8-27.6,5.5-54.7,18.3-79.6c16.1-31.4,42.4-48,77-52.2c26.9-3.3,52.9-0.4,76.8,13.5c23.4,13.6,36.2,35.1,44.2,60.1
	c6.6,20.7,8.9,42.1,9.4,63.7c0.2,7.5,2.6,11.6,9.7,13.9c21.4,6.8,42.8,13.9,64,21.2c34.7,12,68.8,25.6,100.5,44.5
	c21,12.5,40.7,26.6,54.3,47.7c15.3,23.6,15.2,55-0.6,76.4c-9.8,13.3-23.9,19.9-39.8,22.3c-13.4,2-27.1,2.7-40.7,3.8
	c-15.5,1.3-31.2,1.5-46.6,3.8c-15.4,2.2-20.5,10.6-15.5,25.4c4.9,14.3,10.8,28.4,17.9,41.8c22.5,42.2,46.2,83.7,68.4,125.9
	c16.6,31.5,30.6,64.2,36.6,99.6c1.2,7.3,1.3,14.9,0.8,22.4c-0.5,8.4-5.7,13.9-13.8,15.8c-2.4,0.6-4.9,1-7.4,1.4l54.8,1.5v-0.2
	c149.7-1.4,272.4-121.3,275.9-272.1C-4167.7,838.3-4282.7,713.6-4430.4,703.4z"/>
<path id="Path_68_1_" class="st41" d="M548.2,973.7l-155.8,23.3c-1.5,0.1-3,0.2-4.5,0.2c2.6-3.5,4.6-7.4,6.2-11.4
	c7.4-18.9,14.6-38,22.3-56.8c5.8-14.1,11.9-28,18.7-41.6c6.4-12.8,14.3-14.3,24.6-4.5c11.5,10.9,22.4,22.6,33.2,34.3
	c14.3,15.6,28.2,31.7,42.5,47.3C539,968.3,543.4,971.6,548.2,973.7z M210.4,892.8c11.5-34.4,23.8-68.5,34.9-103
	c3.1-11.4,5.2-22.9,6.3-34.6c1.1-5.3-2.3-10.4-7.7-11.4c-0.2,0-0.2-0.1-0.4-0.1c-7.3-1.6-14.8-2.1-22.2-1.7
	c-16.1,1.4-32.2,4.5-48.4,6.1c-12.8,1.9-25.8,0.5-37.9-4l9.1,59.5l0.3-0.1c8.5,42.7,28.5,82.5,57.9,114.7
	C204.8,909.7,207.6,901.2,210.4,892.8L210.4,892.8z M700.3,463.2l-0.1-0.3l-83.4,12.7c-18.6,2.9-36-9.9-38.9-28.6l-14.9-97.7l-1,0.2
	C532.6,230.2,418.3,152,296.3,167.9C161.5,185.6,69.1,313.5,89.7,448l30.9,202.2c4.1-5.4,8.5-10.5,13.3-15.2
	c25.1-25.5,54.9-44.6,85.7-62.1c17.8-10.2,36.2-19.3,54-29.4c14.9-8.3,12.4-4.8,10.6-20.8c-2.7-23.8-3.6-47.4,3.6-70.7
	c9-29.2,29-47.3,57.8-56.1c21.9-7.6,45.6-7.6,67.5-0.1c22,8,36.2,24.5,46.8,44.6c8.4,16.7,14.3,34.5,17.6,52.9
	c0.3,5.6,4.8,10.1,10.4,10.4c19.3,2.6,38.6,5.4,57.8,8.4c31.5,4.4,62.4,12.1,92.4,22.8c19.8,7.5,38.7,16.5,53.5,32.4
	c16.6,17.5,20.9,43.4,11,65.3c-6.4,12.2-17.4,21.2-30.5,25c-11.1,3.8-22.7,6.4-34.1,9.3c-13,3.4-26.4,6-39.2,10.2
	c-12.8,4.2-15.9,12.1-9.4,24c6.3,11.5,13.5,22.6,21.5,33c25.5,32.6,52,64.4,77.4,97.1c19.6,23.9,35.2,50.7,46.2,79.4
	c2,6.1,3.4,12.5,4.1,18.9c1,6.7-3,13.3-9.3,15.5c-2,0.8-4,1.7-6.1,2.3l46.9-7v-0.2c128-23.9,214-145,194.3-273.7
	C944.8,539.2,828.5,449.6,700.3,463.2L700.3,463.2z"/>
<path class="st41" d="M2650.4,496.5c35.4-24.1,70.7-35.5,110.1-34.4c71,2,124.1,49.8,125.8,120.8c0.9,38-6.7,76.4-12.5,114.4
	c-6.9,45-15.6,89.7-24.1,134.4c-5.7,30.2-18.2,40.4-49,40.9c-20.4,0.4-40.8,0.4-61.1,0c-31-0.6-39.3-10.9-34-43
	c9.7-58.7,20.2-117.3,30.1-176c6.1-36.4-3.6-58.7-28.1-66.5c-28.8-9.1-61.2,5-74.4,35.9c-7.9,18.4-11.7,38.8-15.5,58.6
	c-9.5,49.5-17.9,99.2-26.9,148.8c-5.4,30-18.4,41.5-48.2,42.1c-22.5,0.5-45,0.7-67.5-0.3c-23.5-1-33.1-12.7-29-35.8
	c28.7-162,57.8-324,86.8-486c3.4-19.3,14.7-31.6,34.1-35.4c27.6-5.4,55.1-10.9,82.9-15c20.9-3.1,33,10.9,29.4,34.8
	c-5.2,34.6-12.1,69-18.2,103.4C2657.7,456.2,2654.4,474,2650.4,496.5z"/>
<path class="st41" d="M1696.5,697.4c11.1-20.5,20-36.8,28.7-53.1c24.4-45.7,49-91.4,73-137.3c14.4-27.5,35.1-42.7,67.5-40
	c14,1.2,28.3-1.4,42.1,0.7c13,1.9,30.1,4.2,36.6,12.8c4.8,6.4-2,24.8-8.2,35.3c-41.8,71.4-84.8,142-127.4,212.9
	c-36.1,60.1-70.9,121-109,179.8c-18,27.9-39.4,55.2-64.6,76.6c-48.2,41.1-106.1,49-166.7,33c-31.5-8.3-36.3-19.9-23.3-48.9
	c6.6-14.7,13.4-29.3,20-44c6.8-15.1,18-19.7,34.2-16.7c52,9.3,59,4.4,87.4-39.5c15.1-23.3,16.8-44,9-70.4
	c-27.5-93.3-52.5-187.4-78.3-281.3c-9.6-35.1,1.8-49.8,38.8-50.2c19.7-0.2,39.4-0.2,59,0c26.2,0.3,37.6,8.4,42.7,34.2
	c11.9,59,22.6,118.3,33.8,177.5C1692.9,683.5,1694.2,688,1696.5,697.4z"/>
<path class="st41" d="M1318.3,872.6c-9.8,0-19.7,0.2-29.5,0c-31.8-0.6-40.9-10.5-35.6-41.5c9.9-58,20.5-115.9,31-173.7
	c17.8-98.6,35.7-197.1,53.5-295.6c6.3-34.6,14.8-43.4,49.6-50c20.7-3.9,41.5-7.5,62.2-11.2c28.6-5.1,41.9,7.1,37,35.9
	c-12.8,75.3-26.4,150.4-39.8,225.5c-15.4,86.2-30.8,172.4-46.3,258.5c-8,44.3-17.5,52.2-63.1,52.2
	C1330.9,872.7,1324.6,872.7,1318.3,872.6z"/>
<path class="st41" d="M3578.5,515.2c7.5-6.7,12.6-11.2,17.7-15.7c44-38.9,94.8-46.2,149.8-31.2c23.5,6.4,28.3,17.1,19,39.1
	c-9.6,22.6-19.7,44.9-30.4,67c-8.2,16.7-21,23.4-39.9,16.1c-9.1-3.5-19-5.4-28.7-6.3c-46.9-4.4-78.1,16.8-87.4,62.8
	c-12.3,60.4-22,121.3-33.2,181.9c-6,32.3-18.9,43.2-51.3,43.6c-21.8,0.3-43.6,0.6-65.4-0.3c-23.9-1-34.5-14-30.3-37.6
	c19.1-109,38.5-218,58.2-326.9c5.1-28.1,20.8-40.1,50.2-40.6c8.4-0.1,16.9,0,25.3,0C3571.8,467.2,3577.7,472.9,3578.5,515.2z"/>
<path class="st41" d="M2396,572.9c-26.6-72-89.5-113.8-166.5-110.6c-45.3,1.9-81.7,22.8-115.3,56.2c0.5-47.3-3.6-51.4-49-51.4
	c-4.2,0-8.4,0-12.6,0c-37.4,0.1-50.2,10.9-56.7,47.7c-14.9,83.4-29.8,166.8-44.7,250.2c-12.8,71.7-25.7,143.3-38.3,215
	c-6.1,34.4,3.1,45.2,38.2,45.5c14.8,0.2,29.5,0,44.3,0c46.6,0,56.6-8.5,64.5-53.5c7.3-41.7,15-83.4,22.6-125.8
	c92.3,51.8,181.4,45.5,250.3-16.6C2400.3,768.8,2427.6,658.2,2396,572.9z M2224.7,746.4c-25.1,17.7-53.6,21-81.8,6.2
	c-28.8-15.2-37.6-41.7-38.1-65.3c-0.1-51,22.9-86.8,59.5-99.4c46.6-16.1,89.8,8,98.4,56.3C2270.1,685.1,2259.9,721.5,2224.7,746.4z"
	/>
<path class="st41" d="M3265.3,475.2c-110.1-42.6-248.7,10.6-301.6,115.7c-48,95.4-22.9,205.9,58.5,258.4
	c73.5,47.4,194.8,45,266.3-5.3c38.8-27.3,40.7-38.4,12.5-75.3c-25.3-33.1-28.3-33.7-64.7-10.2c-35.3,22.9-73.3,27.9-112.9,15.1
	c-31.9-10.3-48.3-37-44.8-71c7.4,0,15,0,22.6,0c73.1,0,146.2-0.3,219.4,0.1c21.8,0.1,36.1-7.9,42.3-29.6
	C3386.3,591.6,3344.1,505.7,3265.3,475.2z M3093.7,623.1c7.9-39.8,44-67,82.4-63c32.1,3.3,52.1,26.6,52.6,63
	C3182.7,623.1,3138.3,623.1,3093.7,623.1z"/>
</svg>
