<?xml version="1.0" encoding="utf-8"?>
<!-- Generator: Adobe Illustrator 24.2.3, SVG Export Plug-In . SVG Version: 6.00 Build 0)  -->
<svg version="1.1" id="Layer_1" xmlns="http://www.w3.org/2000/svg" xmlns:xlink="http://www.w3.org/1999/xlink" x="0px" y="0px"
	 viewBox="0 0 2517.8 726.5" style="enable-background:new 0 0 2517.8 726.5;" xml:space="preserve">
<style type="text/css">
	.st0{fill:none;stroke:#F2D067;stroke-width:9;stroke-miterlimit:10;}
	.st1{fill:#EC2027;}
	.st2{fill:#C1272D;}
	.st3{fill:#3BB54A;}
	.st4{fill:none;}
	.st5{fill:url(#SVGID_1_);}
	.st6{fill:url(#SVGID_2_);}
	.st7{fill:url(#SVGID_3_);}
	.st8{fill:url(#SVGID_4_);}
	.st9{fill:url(#SVGID_5_);}
	.st10{fill:url(#SVGID_6_);}
	.st11{fill:url(#SVGID_7_);}
	.st12{fill:url(#SVGID_8_);}
	.st13{fill:url(#SVGID_9_);}
	.st14{fill:url(#SVGID_10_);}
	.st15{fill:url(#SVGID_11_);}
	.st16{fill:url(#SVGID_12_);}
	.st17{fill:url(#SVGID_13_);}
	.st18{fill:url(#SVGID_14_);}
	.st19{fill:url(#SVGID_15_);}
	.st20{fill:url(#SVGID_16_);}
	.st21{fill:url(#SVGID_17_);}
	.st22{fill:url(#SVGID_18_);}
	.st23{fill:url(#SVGID_19_);}
	.st24{fill:#F2D067;}
	.st25{fill:#FFFFFF;stroke:#200F10;stroke-width:19;stroke-linecap:round;stroke-linejoin:round;stroke-miterlimit:10;}
	.st26{fill:url(#SVGID_20_);}
	.st27{fill:url(#SVGID_21_);}
	.st28{fill:none;stroke:#200F10;stroke-width:12.9999;stroke-linecap:round;stroke-linejoin:round;stroke-miterlimit:9.9999;}
	.st29{fill:#200F10;}
	.st30{fill:url(#SVGID_22_);}
	.st31{fill:url(#SVGID_23_);}
	.st32{fill:url(#SVGID_24_);}
	.st33{fill:url(#SVGID_25_);}
	.st34{fill:url(#SVGID_26_);}
	.st35{fill:url(#SVGID_27_);}
	.st36{fill:url(#SVGID_28_);}
	.st37{fill:url(#SVGID_29_);}
	.st38{fill:url(#SVGID_30_);}
	.st39{fill:#606161;}
	.st40{fill:url(#SVGID_31_);}
	.st41{fill:#FFF4A3;}
</style>
<path class="st0" d="M-4345.1,1825.4c1.9-4.8,2.8-10.1,2.7-16.1c0.8-16.1-12.7-34.8-33.4-37.8c-12.7-1.9-24.1,1.6-33.4,10.7
	c-12.1,11.8-23.9,23.8-35.9,35.8c-5.7,5.7-12,6.2-17.8,1.6c18.7,16.3,63.7,45.7,116.3,9.2l0,0L-4345.1,1825.4z"/>
<g id="Group_2" transform="translate(-1635.178 -193.438)">
	<path id="Path_18" class="st1" d="M-3440.3,2916.7l31.7-44.1c-4.2-4.2-8.3-7.1-12.5-11.2l-1.1-1.1c-0.5,0.4-0.9,0.8-1.2,1.1
		c-9,9-18.1,18.1-27.1,27.1c-0.6,0.6-1.2,1.3-1.8,1.9c-5.1,6.2-5,15.1,0.2,21.1c2.9,3.3,7,5.4,11.4,5.7L-3440.3,2916.7z"/>
	<path id="Path_19" class="st1" d="M-3397.5,2892.8c-4.5-4.5-9-9-13.5-13.5l-25.5,39.8c0.2,0,0.4,0,0.6,0.1c0.2-0.3,0.5-0.5,0.8-0.7
		c2.8-1.9,5.1-4.5,7.6-6.8c1.2-1.2,1.2-1.2,2.4,0c2.2,2.1,4.2,4.5,6.7,6.3c7.1,5.1,16.5,3.7,22.2-3
		C-3390.9,2908.4-3391.4,2898.8-3397.5,2892.8z"/>
</g>
<path id="Path_20" class="st2" d="M-5009.2,2675.5c-7.7-8.9-18.8-14-30.6-14c-2.5,0-4.9,0.2-7.3,0.7l5.9,5.9
	c6.5,6.5,13,13,19.5,19.5c10.2,10.2,11,26.6,1.8,37.4c-5.3,6.3-13.1,10-21.4,10.1c-5.8,0-11.4-1.8-16-5.2c-0.5-0.3-0.9-0.7-1.4-1.1
	c-0.8,0.6-1.6,1.2-2.4,1.8c-4.4,2.9-9.6,4.5-14.8,4.5c-8.1,0-15.7-3.5-21-9.6c-4.3-4.9-6.7-11.2-6.7-17.8
	c-0.1-6.5,2.2-12.9,6.3-17.9c0.8-1,1.6-1.9,2.5-2.7c8.3-8.3,16.5-16.6,24.8-24.8c-2.4-0.4-4.9-0.7-7.3-0.7
	c-12,0.1-23.4,5.4-31.1,14.6c-6.6,7.8-9.9,17.8-9.3,27.9c0.5,10,4.8,19.5,11.9,26.6s14.1,14.2,21.2,21.2l8.9,8.9l16.4,16.4
	l15.9-14.5c0.1-0.1,0.2-0.2,0.3-0.3c0.4-0.4,1.1-1,1.8-1.7c9.8-9.8,19.6-19.6,29.4-29.4c1.2-1.2,2.3-2.4,3.3-3.7
	c6.1-7.4,9.3-16.6,9.2-26.1C-4999.4,2691.9-5002.9,2682.7-5009.2,2675.5z M-5045.1,2751.4c0,1.1-0.9,1.9-1.9,1.9l0,0h-23
	c-1.1,0-1.9-0.9-1.9-1.9l0,0v-1.9c0-1.1,0.9-1.9,1.9-1.9l0,0h23c1.1,0,1.9,0.9,1.9,1.9l0,0V2751.4z"/>
<path id="Path_21" class="st1" d="M-5058.4,2635.7l-1.1-1.1c-9.2-9.2-18.5-18.5-27.7-27.7c-6-5.9-6.6-15.5-1.2-22
	c5.7-6.7,15.1-8.1,22.1-3c2.5,1.8,4.5,4.2,6.7,6.3c1.2,1.2,1.2,1.2,2.4,0c2.5-2.3,4.8-4.9,7.6-6.8c6.7-4.5,15.7-2.9,21,3.2
	c5.2,6,5.3,14.9,0.2,21.1c-0.6,0.7-1.1,1.3-1.8,1.9c-9,9-18,18-27,27C-5057.5,2634.9-5057.9,2635.2-5058.4,2635.7z"/>
<path id="Path_22" class="st3" d="M-4999.4,2598.5c-0.5-10-4.8-19.4-11.8-26.5s-14.1-14.1-21.2-21.2l-8.9-8.9l-16.4-16.4l-15.9,14.5
	c-0.1,0.1-0.2,0.2-0.3,0.3c-0.4,0.4-1.1,1-1.8,1.7c-9.8,9.8-19.5,19.5-29.3,29.3c-1.2,1.2-2.3,2.4-3.3,3.7c-6,7.3-9.3,16.6-9.2,26.1
	s3.6,18.7,9.8,25.9c7.7,8.8,18.8,13.9,30.5,14c2.5,0,4.9-0.2,7.3-0.7l-5.9-5.9c-6.5-6.5-13-13-19.4-19.5
	c-10.1-10.2-10.9-26.5-1.8-37.3c5.3-6.3,13.1-10,21.3-10.1c5.7,0,11.3,1.8,16,5.2c0.5,0.3,0.9,0.7,1.4,1.1c0.8-0.6,1.6-1.2,2.4-1.8
	c4.4-2.9,9.5-4.5,14.8-4.5c8,0,15.7,3.5,21,9.6c4.3,4.9,6.7,11.2,6.7,17.7c0.1,6.5-2.2,12.9-6.3,17.9c-0.8,0.9-1.6,1.9-2.5,2.7
	c-8.2,8.3-16.5,16.5-24.7,24.7c2.4,0.4,4.8,0.7,7.3,0.7c12-0.1,23.3-5.4,31-14.5C-5002.1,2618.6-4998.8,2608.6-4999.4,2598.5z
	 M-5045.8,2553.6c0,1-0.8,1.7-1.7,1.7h-7.9v7.9c0,1-0.8,1.7-1.7,1.7l0,0h-1.7c-1,0-1.7-0.8-1.7-1.7l0,0v-7.9h-7.9
	c-1,0-1.7-0.8-1.7-1.7l0,0v-1.7c0-1,0.8-1.7,1.7-1.7l0,0h7.9v-7.9c0-1,0.8-1.7,1.7-1.7l0,0h1.7c1,0,1.7,0.8,1.7,1.7v7.9h7.9
	c1,0,1.7,0.8,1.7,1.7V2553.6z"/>
<path class="st4" d="M-4515.3,2722.7c0.1-0.8-0.3-1.6-1.1-2.1c-0.6-0.3-1.2-0.4-1.8-0.3h-2.2v4.8h2.7c1.2,0.1,2.3-0.8,2.4-2.1
	C-4515.3,2722.9-4515.3,2722.8-4515.3,2722.7z"/>
<path class="st4" d="M-4645.4,2692.2c0.1,0,0.2,0,0.3,0c0.1-0.5,0.2-1,0.3-1.5C-4645,2691.2-4645.2,2691.7-4645.4,2692.2z"/>
<path class="st4" d="M-4581.9,2720.2c-2.7-0.1-5,2-5.1,4.8c0,0.1,0,0.2,0,0.4c-0.1,2.8,2,5.2,4.8,5.3h0.1c2.8-0.1,5-2.4,4.9-5.2
	v-0.1C-4577.1,2722.5-4579.2,2720.3-4581.9,2720.2z"/>
<path class="st4" d="M-4581.9,2720.2c-2.7-0.1-5,2-5.1,4.8c0,0.1,0,0.2,0,0.4c-0.1,2.8,2,5.2,4.8,5.3h0.1c2.8-0.1,5-2.4,4.9-5.2
	v-0.1C-4577.1,2722.5-4579.2,2720.3-4581.9,2720.2z"/>
<path class="st4" d="M-4558.7,2669.4c-0.2,0-0.5,0-0.7,0c-4.3,0-8,3-8.7,7.3h15.5C-4552.7,2672.4-4555,2669.7-4558.7,2669.4z"/>
<path class="st4" d="M-4515.3,2722.7c0.1-0.8-0.3-1.6-1.1-2.1c-0.6-0.3-1.2-0.4-1.8-0.3h-2.2v4.8h2.7c1.2,0.1,2.3-0.8,2.4-2.1
	C-4515.3,2722.9-4515.3,2722.8-4515.3,2722.7z"/>
<radialGradient id="SVGID_1_" cx="-4635.2568" cy="-2057.7783" r="130.8239" gradientTransform="matrix(1 0 0 -1 0 559.3721)" gradientUnits="userSpaceOnUse">
	<stop  offset="0" style="stop-color:#F5DB91"/>
	<stop  offset="1" style="stop-color:#F2D067"/>
</radialGradient>
<path class="st5" d="M-4628.7,2641.2c-2.1,0.3-3.7,2-3.9,4.1c-1.8,10-3.6,20.1-5.4,30.1c-0.1,0.3-0.1,0.7-0.2,1
	c-0.4,2.2-0.8,4.5-1.2,6.7c-0.6,3.1-1.1,6.3-1.7,9.4c-0.1,0.3-0.1,0.7-0.2,1c-0.5,2.6-0.9,5.1-1.4,7.7c-0.5,2.7,0.6,4,3.3,4.1
	c1.3,0.1,2.6,0.1,3.9,0.1c1.3,0,2.5,0,3.8,0c3.4-0.1,4.9-1.4,5.5-4.8c0.4-2.4,0.9-4.9,1.3-7.3c0.1-0.3,0.1-0.7,0.2-1
	c0.5-2.9,1-5.8,1.6-8.8c0.1-0.3,0.1-0.7,0.2-1c0.4-1.9,0.9-3.9,1.6-5.7c0.2-0.5,0.5-1,0.8-1.5c0.3-0.4,0.7-0.8,1.1-1.2
	c1.3-1.1,2.9-1.7,4.6-1.7c0.6,0,1.2,0.1,1.8,0.3c0.1,0,0.1,0,0.2,0c0.5,0.1,0.9,0.4,1.2,0.6c1.8,1.1,2.5,3.3,2.1,6.4
	c0,0.2,0,0.4-0.1,0.6c-0.5,3.2-1.1,6.4-1.7,9.6c-0.1,0.4-0.1,0.7-0.2,1.1c-0.5,3.2-1.1,6.4-1.6,9.5c-0.6,3.7,0.3,4.9,3.9,4.9
	c1.2,0,2.3,0,3.5,0c1.2,0,2.3,0,3.5,0c3.5-0.1,5-1.2,5.6-4.7c1-5.1,2-10.3,2.8-15.5c0-0.1,0-0.2,0.1-0.3c0.1-0.4,0.1-0.8,0.2-1.2
	c0.6-3.7,1-7.4,1.1-11.1c0-0.2,0-0.4,0-0.6c-0.1-2.3-0.6-4.4-1.5-6.2c-0.1-0.3-0.3-0.6-0.5-0.9c-2.5-4.1-7-6.6-12.5-6.8
	c-0.2,0-0.3,0-0.5,0c-4.4,0-8.6,1.4-12.2,4c0.5-2.6,0.8-4.6,1.2-6.7c0.7-4,1.5-7.9,2.1-11.9c0.4-2.5-0.7-4.1-2.7-4.1
	c-0.2,0-0.4,0-0.6,0C-4622.4,2639.9-4625.6,2640.6-4628.7,2641.2z"/>
<radialGradient id="SVGID_2_" cx="-4635.2568" cy="-2057.7783" r="130.8239" gradientTransform="matrix(1 0 0 -1 0 559.3721)" gradientUnits="userSpaceOnUse">
	<stop  offset="0" style="stop-color:#F5DB91"/>
	<stop  offset="1" style="stop-color:#F2D067"/>
</radialGradient>
<path class="st6" d="M-4702.3,2666c0.3-0.6,0.7-1.1,1-1.7c0.7-1.2,1.5-3.3,0.9-4.1c-0.7-1-2.7-1.3-4.2-1.5c-0.5-0.1-1-0.1-1.5-0.1
	c-0.8,0-1.6,0.1-2.4,0.1c-0.2,0-0.4,0-0.5,0c-0.2,0-0.3,0-0.5,0c-0.3,0-0.6-0.1-0.9-0.1l0,0c-3,0-5.7,1.8-6.9,4.6
	c-2.8,5.3-5.6,10.5-8.4,15.8c-1,1.9-2,3.7-3.3,6.1c-0.3-1.1-0.4-1.6-0.5-2.1c-1.3-6.8-2.5-13.6-3.9-20.4c-0.6-3-1.9-3.9-4.9-3.9
	c-1.1,0-2.2,0-3.2,0c-1.2,0-2.4,0-3.5,0c-4.3,0-5.6,1.7-4.5,5.8c3,10.8,5.8,21.6,9,32.4c1,2.7,0.6,5.7-1,8.1c-2.4,3.7-3.5,5-6.2,5
	c-1,0-2.2-0.2-3.8-0.5c-0.3-0.1-0.6-0.1-1-0.1c-1.3,0-2.5,0.8-3,2.1c-0.8,1.7-1.5,3.4-2.3,5.1c-1.5,3.3-0.9,4.7,2.7,5.6
	c2.2,0.6,4.4,0.9,6.5,0.9c4.6,0,8.9-1.4,12.7-4.7c2.9-2.6,5.4-5.5,7.4-8.8c4.4-6.8,8.4-13.8,12.5-20.7c4.4-7.3,8.8-14.6,13.1-21.9
	C-4702.7,2666.6-4702.5,2666.3-4702.3,2666z"/>
<radialGradient id="SVGID_3_" cx="-4635.2568" cy="-2057.7783" r="130.8239" gradientTransform="matrix(1 0 0 -1 0 559.3721)" gradientUnits="userSpaceOnUse">
	<stop  offset="0" style="stop-color:#F5DB91"/>
	<stop  offset="1" style="stop-color:#F2D067"/>
</radialGradient>
<path class="st7" d="M-4753,2643.6c0.5-2.8-0.6-4.3-2.9-4.3c-0.4,0-0.9,0-1.3,0.1c-2.4,0.4-4.8,0.8-7.2,1.3c-4,0.8-5,1.8-5.7,5.8
	c-2.1,11.3-4.1,22.7-6.2,34c-1.2,6.7-2.4,13.3-3.6,20c-0.6,3.6,0.4,4.7,4.1,4.8c0.4,0,0.8,0,1.1,0c0.8,0,1.5,0,2.3,0h2.2
	c5.3,0,6.3-0.9,7.3-6c1.8-9.9,3.6-19.8,5.3-29.7C-4756.1,2660.9-4754.5,2652.3-4753,2643.6z"/>
<radialGradient id="SVGID_4_" cx="-4635.2568" cy="-2057.7783" r="130.8239" gradientTransform="matrix(1 0 0 -1 0 559.3721)" gradientUnits="userSpaceOnUse">
	<stop  offset="0" style="stop-color:#F5DB91"/>
	<stop  offset="1" style="stop-color:#F2D067"/>
</radialGradient>
<path class="st8" d="M-4595.7,2730.6c-0.1,0-0.1,0-0.2,0c-2.8-0.1-4.9-2.5-4.8-5.3c0-0.1,0-0.2,0-0.3c0-2.7,2.3-4.8,5-4.8
	c1.4,0,2.8,0.5,3.9,1.5l0.9-1.4c-1.3-1.2-3.1-1.8-4.9-1.8l0,0c-3.7,0.1-6.7,3.1-6.8,6.8c-0.1,3.8,3,7,6.8,7c1.9,0,3.8-0.7,5.2-2.1
	l-1-1.3C-4592.7,2729.9-4594.1,2730.5-4595.7,2730.6z"/>
<radialGradient id="SVGID_5_" cx="-4635.2568" cy="-2057.7783" r="130.8239" gradientTransform="matrix(1 0 0 -1 0 559.3721)" gradientUnits="userSpaceOnUse">
	<stop  offset="0" style="stop-color:#F5DB91"/>
	<stop  offset="1" style="stop-color:#F2D067"/>
</radialGradient>
<polygon class="st9" points="-4641,2718.7 -4642.9,2718.7 -4642.8,2732.1 -4635,2732.1 -4635,2730.4 -4641,2730.4 "/>
<radialGradient id="SVGID_6_" cx="-4635.2568" cy="-2057.7783" r="130.8239" gradientTransform="matrix(1 0 0 -1 0 559.3721)" gradientUnits="userSpaceOnUse">
	<stop  offset="0" style="stop-color:#F5DB91"/>
	<stop  offset="1" style="stop-color:#F2D067"/>
</radialGradient>
<polygon class="st10" points="-4615.5,2726.1 -4610.8,2726.1 -4610.8,2724.5 -4615.5,2724.5 -4615.5,2720.3 -4609.7,2720.3 
	-4609.7,2718.7 -4617.4,2718.7 -4617.4,2732.1 -4609.3,2732.1 -4609.3,2730.4 -4615.5,2730.4 "/>
<radialGradient id="SVGID_7_" cx="-4635.2568" cy="-2057.7783" r="130.8239" gradientTransform="matrix(1 0 0 -1 0 559.3721)" gradientUnits="userSpaceOnUse">
	<stop  offset="0" style="stop-color:#F5DB91"/>
	<stop  offset="1" style="stop-color:#F2D067"/>
</radialGradient>
<path class="st11" d="M-4699.3,2668.9c-0.2,0.3-0.3,0.6-0.5,0.8c0.1,0.1,0.2,0.2,0.3,0.3
	C-4699.5,2669.6-4699.4,2669.2-4699.3,2668.9z"/>
<radialGradient id="SVGID_8_" cx="-4635.2568" cy="-2057.7783" r="130.8239" gradientTransform="matrix(1 0 0 -1 0 559.3721)" gradientUnits="userSpaceOnUse">
	<stop  offset="0" style="stop-color:#F5DB91"/>
	<stop  offset="1" style="stop-color:#F2D067"/>
</radialGradient>
<rect x="-4632.8" y="2718.7" class="st12" width="1.9" height="13.4"/>
<radialGradient id="SVGID_9_" cx="-4635.2568" cy="-2057.7783" r="130.8239" gradientTransform="matrix(1 0 0 -1 0 559.3721)" gradientUnits="userSpaceOnUse">
	<stop  offset="0" style="stop-color:#F5DB91"/>
	<stop  offset="1" style="stop-color:#F2D067"/>
</radialGradient>
<path class="st13" d="M-4647.4,2674.6c-0.2-1.2-0.6-2.5-1-3.7c-2.6-7.7-9.8-12.8-17.8-12.8c-0.4,0-0.9,0-1.3,0
	c-4.4,0.2-8,1.9-11.4,4.8c-0.3,0.2-0.5,0.5-0.8,0.7c-0.4,0.3-0.7,0.7-1.1,1c0-0.6,0-1.2,0-1.7s0-0.9-0.1-1.3
	c-0.3-2.2-1.2-2.8-3.9-2.9c-0.5,0-1,0-1.6,0l0,0l0,0c-0.5,0-1,0-1.5,0c-3.1,0-4.7,0.7-5.6,2.5c-0.4,0.8-0.7,1.7-0.9,3
	c-0.5,2.5-0.9,5.1-1.4,7.6c-0.1,0.4-0.1,0.7-0.2,1.1c-1.2,6.7-2.4,13.4-3.6,20c-1.5,8.2-3,16.5-4.4,24.7c-0.7,4,0.4,5.2,4.4,5.2
	c0.6,0,1.1,0,1.7,0c1.1,0,2.3,0,3.4,0c5.4,0,6.5-1,7.4-6.2c0.8-4.8,1.7-9.6,2.6-14.5c4.8,2.7,9.5,4,13.9,4c5.4,0,10.5-2,14.9-5.9
	c2.4-2.3,4.3-4.9,5.7-7.8c0.2-0.3,0.3-0.6,0.4-0.9c1.3-2.9,2.2-6,2.4-9.2c0.2-2.3,0.1-4.5-0.2-6.8
	C-4647.3,2675.3-4647.4,2674.9-4647.4,2674.6z M-4665.3,2688c-0.2,0.3-0.4,0.6-0.7,0.8c-0.6,0.7-1.3,1.3-2.1,1.9
	c-1.5,1.2-3.4,1.8-5.2,1.8c-1.4,0-2.9-0.4-4.2-1.1c-2.8-1.5-4.5-4.4-4.4-7.5l0,0c0-0.6,0-1.2,0.1-1.8c0-0.4,0.1-0.7,0.1-1.1
	c0.6-3.7,2.5-6.5,5.2-7.9c0.5-0.2,0.9-0.5,1.4-0.6c0.7-0.3,1.4-0.5,2.1-0.6c0.4,0,0.7-0.1,1.1-0.1c3.9,0,7.3,2.8,8,6.7
	c0,0.2,0.1,0.3,0.1,0.5C-4663.1,2682.4-4663.6,2685.5-4665.3,2688z"/>
<radialGradient id="SVGID_10_" cx="-4635.2568" cy="-2057.7783" r="130.8239" gradientTransform="matrix(1 0 0 -1 0 559.3721)" gradientUnits="userSpaceOnUse">
	<stop  offset="0" style="stop-color:#F5DB91"/>
	<stop  offset="1" style="stop-color:#F2D067"/>
</radialGradient>
<polygon class="st14" points="-4627.3,2732.1 -4625.4,2732.1 -4625.4,2726.3 -4620.7,2726.3 -4620.7,2724.7 -4625.4,2724.7 
	-4625.4,2720.3 -4619.9,2720.3 -4619.9,2718.7 -4627.3,2718.7 "/>
<radialGradient id="SVGID_11_" cx="-4635.2568" cy="-2057.7783" r="130.8239" gradientTransform="matrix(1 0 0 -1 0 559.3721)" gradientUnits="userSpaceOnUse">
	<stop  offset="0" style="stop-color:#F5DB91"/>
	<stop  offset="1" style="stop-color:#F2D067"/>
</radialGradient>
<polygon class="st15" points="-4546.1,2720.3 -4541.5,2720.3 -4541.5,2732.1 -4539.6,2732.1 -4539.6,2720.3 -4535,2720.3 
	-4535,2718.7 -4546.1,2718.7 "/>
<radialGradient id="SVGID_12_" cx="-4635.2568" cy="-2057.7783" r="130.8239" gradientTransform="matrix(1 0 0 -1 0 559.3721)" gradientUnits="userSpaceOnUse">
	<stop  offset="0" style="stop-color:#F5DB91"/>
	<stop  offset="1" style="stop-color:#F2D067"/>
</radialGradient>
<path class="st16" d="M-4582.1,2718.4c-0.1,0-0.1,0-0.2,0c-3.7,0-6.7,3.1-6.7,6.8c0,0.1,0,0.1,0,0.2c0.1,3.8,3.2,6.8,7,6.8
	c3.8-0.1,6.8-3.2,6.8-7c0-0.1,0-0.1,0-0.2C-4575.3,2721.4-4578.4,2718.4-4582.1,2718.4z M-4582.1,2730.6h-0.1
	c-2.8-0.1-5-2.5-4.8-5.3c0-0.1,0-0.2,0-0.4c0.1-2.7,2.4-4.9,5.1-4.8c2.7,0.1,4.9,2.4,4.8,5.1v0.1
	C-4577.1,2728.2-4579.3,2730.5-4582.1,2730.6z"/>
<radialGradient id="SVGID_13_" cx="-4635.2568" cy="-2057.7783" r="130.8239" gradientTransform="matrix(1 0 0 -1 0 559.3721)" gradientUnits="userSpaceOnUse">
	<stop  offset="0" style="stop-color:#F5DB91"/>
	<stop  offset="1" style="stop-color:#F2D067"/>
</radialGradient>
<path class="st17" d="M-4564,2727.3c-0.1,1.8-1.5,3.2-3.2,3.3c-1.9,0.1-3.5-1.4-3.5-3.2v-8.6h-1.9v8.6c0.2,2.7,2.3,4.8,5,5
	c2.9,0.2,5.4-2.1,5.6-5v-8.6h-1.9v8.5H-4564z"/>
<radialGradient id="SVGID_14_" cx="-4635.2568" cy="-2057.7783" r="130.8239" gradientTransform="matrix(1 0 0 -1 0 559.3721)" gradientUnits="userSpaceOnUse">
	<stop  offset="0" style="stop-color:#F5DB91"/>
	<stop  offset="1" style="stop-color:#F2D067"/>
</radialGradient>
<path class="st18" d="M-4544.3,2693.4c-1.6-2.1-2.4-3.1-3.5-3.1c-0.9,0-2,0.7-3.9,1.9c-2.5,1.7-5.3,2.5-8.2,2.5
	c-1.6,0-3.2-0.3-4.8-0.8c-3.5-1-5.8-4.5-5.2-8.2h2.6c4.8,0,9.6,0,14.4,0c3.6,0,7.2,0,10.8,0c0.2,0,0.4,0,0.6,0c2,0,3.8-1.4,4.3-3.4
	c2.7-9.4-2.2-19.2-11.2-22.8c-2.8-1.1-5.7-1.6-8.7-1.7c-0.2,0-0.4,0-0.6,0c-0.2,0-0.5,0-0.7,0c-10.1,0.3-20.1,5.9-24.7,15
	c-1.1,2.2-1.9,4.5-2.3,6.8c-0.1,0.4-0.2,0.8-0.2,1.3c-1.2,8.6,2.2,17,9.3,21.6c4.1,2.6,9.4,3.9,14.7,3.9c5.8,0,11.6-1.5,15.9-4.5
	C-4541.2,2698.9-4541,2697.6-4544.3,2693.4z M-4559.4,2669.3c0.2,0,0.5,0,0.7,0c3.7,0.4,6,3.1,6.1,7.3h-15.5
	C-4567.4,2672.4-4563.6,2669.3-4559.4,2669.3z"/>
<radialGradient id="SVGID_15_" cx="-4635.2568" cy="-2057.7783" r="130.8239" gradientTransform="matrix(1 0 0 -1 0 559.3721)" gradientUnits="userSpaceOnUse">
	<stop  offset="0" style="stop-color:#F5DB91"/>
	<stop  offset="1" style="stop-color:#F2D067"/>
</radialGradient>
<path class="st19" d="M-4515.8,2726.3L-4515.8,2726.3c0.9-0.4,1.6-1.1,2-2c1-2,0.1-4.4-1.9-5.3c-0.8-0.3-1.7-0.4-2.5-0.3h-4.1v13.4
	h1.9v-5.3h2.9l2.8,5.3h2.1l-2.8-5.2C-4515.5,2726.6-4515.6,2726.4-4515.8,2726.3z M-4517.7,2725.1h-2.7v-4.8h2.2
	c0.6-0.1,1.3,0,1.8,0.3c0.7,0.4,1.1,1.2,1.1,2.1c0,0.1,0,0.2,0,0.4C-4515.4,2724.3-4516.4,2725.2-4517.7,2725.1z"/>
<radialGradient id="SVGID_16_" cx="-4635.2568" cy="-2057.7783" r="130.8239" gradientTransform="matrix(1 0 0 -1 0 559.3721)" gradientUnits="userSpaceOnUse">
	<stop  offset="0" style="stop-color:#F5DB91"/>
	<stop  offset="1" style="stop-color:#F2D067"/>
</radialGradient>
<path class="st20" d="M-4493.1,2658.8c-2-0.5-3.9-0.8-5.8-0.8c-4.1,0-7.9,1.4-11.4,4.4c-0.6,0.5-1.2,1-2,1.8
	c-0.1-4.9-0.8-5.5-5.3-5.5c-0.6,0-1.3,0-1.9,0c-0.3,0-0.6,0-1,0c-3.4,0.1-5.2,1.4-5.8,4.7c-2.3,12.5-4.5,25.1-6.7,37.6
	c-0.5,2.7,0.7,4.2,3.5,4.3c1.2,0.1,2.5,0.1,3.7,0.1c1.3,0,2.6,0,3.8,0c3.7-0.1,5.2-1.3,5.9-5c1.3-7,2.4-14,3.8-20.9
	c1-4.8,4.1-7.3,8.7-7.3c0.4,0,0.9,0,1.4,0.1c1.1,0.1,2.2,0.3,3.3,0.7c0.1,0.1,0.3,0.1,0.4,0.2c0.4,0.1,0.7,0.2,1.1,0.2
	c1.4,0,2.6-0.9,3.1-2.2c1.2-2.5,2.4-5.1,3.5-7.7C-4489.8,2660.8-4490.4,2659.6-4493.1,2658.8z"/>
<radialGradient id="SVGID_17_" cx="-4635.2568" cy="-2057.7783" r="130.8239" gradientTransform="matrix(1 0 0 -1 0 559.3721)" gradientUnits="userSpaceOnUse">
	<stop  offset="0" style="stop-color:#F5DB91"/>
	<stop  offset="1" style="stop-color:#F2D067"/>
</radialGradient>
<polygon class="st21" points="-4531.2,2726.1 -4526.4,2726.1 -4526.4,2724.5 -4531.2,2724.5 -4531.2,2720.3 -4525.3,2720.3 
	-4525.3,2718.7 -4533.1,2718.7 -4533.1,2732.1 -4525,2732.1 -4525,2730.4 -4531.2,2730.4 "/>
<radialGradient id="SVGID_18_" cx="-4635.2568" cy="-2057.7783" r="130.8239" gradientTransform="matrix(1 0 0 -1 0 559.3721)" gradientUnits="userSpaceOnUse">
	<stop  offset="0" style="stop-color:#F5DB91"/>
	<stop  offset="1" style="stop-color:#F2D067"/>
</radialGradient>
<path class="st22" d="M-4549.9,2727.4c0,0.7,0.1,1.9,0.1,1.9l0,0c0,0-0.6-1.2-1.1-1.9l-6-8.7h-1.9v13.4h1.9v-8.7c0-0.8-0.1-2-0.1-2
	l0,0c0,0,0.6,1.2,1.1,2l6,8.7h1.8v-13.4h-1.9v8.7H-4549.9z"/>
<path class="st4" d="M-4138.5,2496.2L-4138.5,2496.2c0.7,0.4,1.5,0.6,2.3,0.6c1,0,2-0.3,2.8-1l0.1-0.1c0.1,0,0.1-0.1,0.2-0.1
	c-2.6-1-5.2-2-7.7-3.2C-4140.8,2494-4139.9,2495.4-4138.5,2496.2z"/>
<path class="st4" d="M-4027.2,2498c0.2,0.1,0.5,0.3,0.8,0.3c0.1,0,0.1,0,0.2,0.1c1.1,0.4,2.3,0.6,3.5,0.6c1.6,0,3.1-0.3,4.5-1
	c-1.5,0-3,0-4.6,0C-4024.4,2498-4025.8,2498-4027.2,2498z"/>
<path class="st4" d="M-4171.9,2462.9c0.2,0,0.4,0,0.6,0c0.3,0,0.7,0,1,0c0.4,0,0.9,0,1.3,0c0.8,0,1.4,0,2.1,0.1h0.2
	c2,0.3,5,0.7,6.7,3c0.2,0.3,0.3,0.5,0.5,0.8c0.1-0.1,0.1-0.2,0.2-0.3c-14-14.2-22.3-33.4-21.6-54.6c1.4-44.3,41.1-80.5,88.7-81
	c47.6-0.4,85.1,35.1,83.7,79.4c-0.6,20.7-9.7,39.6-24,54c3.8-1.4,7.8-2.3,11.9-2.3c0.8,0,1.7,0,2.5,0.1c11.4-14.6,18.4-32.4,19-51.6
	c0.7-22.8-7.7-44.5-23.8-61c-17.3-17.9-42.3-28.1-68.5-28.1h-1c-52.6,0.5-96.6,40.9-98.1,90.2c-0.6,18.5,4.9,36.4,15.6,51.3
	c0.6-0.1,1.1-0.1,1.7-0.1C-4172.7,2462.8-4172.3,2462.8-4171.9,2462.9z"/>
<path class="st4" d="M-4076.3,2488.8c-1.7,0.4-3.3,0.7-5,1c-0.2,0.8-0.3,1.5-0.5,2.3v0.1c-0.5,2.5-0.9,5-1.4,7.5
	c1.7-0.3,3.5-0.5,5.2-0.9c0.1-0.7,0.2-1.4,0.4-2.1C-4077.3,2494.2-4076.8,2491.5-4076.3,2488.8z"/>
<path class="st4" d="M-3978.2,2530.9c0.1-0.8-0.3-1.6-1.1-2.1c-0.6-0.3-1.2-0.4-1.8-0.3h-2.2v4.8h2.7c1.2,0.1,2.3-0.8,2.4-2.1
	C-3978.2,2531.1-3978.2,2531-3978.2,2530.9z"/>
<path class="st4" d="M-4050.9,2480.1c0,0.1,0,0.1,0,0.2c0,0.8-0.1,1.6-0.1,2.4c0.4-1.1,0.9-2.3,1.4-3.4c0.4-0.8,0.9-1.6,1.4-2.4
	c-0.9,0.6-1.9,1.2-2.8,1.7C-4050.9,2479.1-4050.9,2479.6-4050.9,2480.1z"/>
<path class="st4" d="M-4108.3,2500.3c0.1,0,0.2,0,0.3,0c0.1-0.5,0.2-1,0.3-1.5C-4107.9,2499.4-4108.1,2499.9-4108.3,2500.3z"/>
<path class="st4" d="M-4044.8,2528.4c-2.7-0.1-5,2-5.1,4.8c0,0.1,0,0.2,0,0.4c-0.1,2.8,2,5.2,4.8,5.3h0.1c2.8-0.1,5-2.4,4.9-5.2
	v-0.1C-4040,2530.7-4042.1,2528.5-4044.8,2528.4z"/>
<radialGradient id="SVGID_19_" cx="-4098.1431" cy="-1871.17" r="128.6396" gradientTransform="matrix(1 0 0 -1 0 559.3721)" gradientUnits="userSpaceOnUse">
	<stop  offset="0" style="stop-color:#F2D067"/>
	<stop  offset="1" style="stop-color:#F9B118"/>
</radialGradient>
<path class="st23" d="M-4175.9,2463.2c-10.7-15-16.1-32.9-15.6-51.5c1.5-49.8,46-90.7,99.1-91.2h1c26.5,0,51.7,10.4,69.3,28.4
	c16.2,16.8,24.8,38.7,24.1,61.8c-0.6,19.1-7.5,36.9-18.8,51.6c-0.4,0-0.8-0.1-1.2-0.1c11.4-14.6,18.4-32.4,19-51.6
	c0.7-22.8-7.7-44.5-23.8-61c-17.3-17.9-42.3-28.1-68.5-28.1h-1c-52.6,0.5-96.6,40.9-98.1,90.2c-0.6,18.5,4.9,36.4,15.6,51.3
	C-4175.2,2463-4175.6,2463.1-4175.9,2463.2z M-4053.4,2471.1c-3.1-5.2-8.8-8.6-15.9-8.8c-0.2,0-0.4,0-0.6,0c-2.3,0-4.6,0.3-6.8,1
	c0.2-0.8,0.3-1.6,0.5-2.5c0.5-2.8,1.1-5.7,1.5-8.5c0.4-2.5-0.2-4.8-1.6-6.4c-1.3-1.5-3.1-2.3-5.1-2.3c-0.4,0-0.8,0-1.2,0.1
	c-3,0.4-6.1,1-9,1.6l-0.6,0.1c-3.8,0.6-6.7,3.6-7.2,7.4c-1.8,10.1-3.6,20.3-5.5,30.5c-0.4,0-0.8-0.1-1.2-0.1
	c-0.3-1.8-0.7-3.7-1.3-5.5c-3.2-9.3-11.9-15.5-21.6-15.5c-0.5,0-1,0-1.5,0.1c-3.7,0.2-7.2,1.3-10.5,3.3c-0.2-0.2-0.4-0.5-0.6-0.7
	c-2.1-2.1-5-2.1-7.6-2.1h-1.5c-0.5,0-1,0-1.5,0.1c-0.8-0.7-1.6-1.5-2.3-2.3c-12.7-13.2-19.5-30.3-18.9-48.4
	c1.2-40.2,37.8-73.2,81.4-73.6h0.8c21.7,0,42.2,8.4,56.3,22.9c12.7,13.2,19.5,30.3,18.9,48.4
	C-4016.8,2435.3-4031.6,2457.8-4053.4,2471.1z M-4103.4,2358.8c0.3-0.1,0.4-0.3,0.4-0.5C-4103.1,2358.4-4103.3,2358.6-4103.4,2358.8
	z M-4112.2,2369.8c2.3-0.4,4.6-1.2,6.9-1.7c0.7-0.2,1-0.6,0.9-1.4c-0.1-0.7-0.1-1.5-0.2-2.2c-0.2-1.8,0.3-3.4,0.8-5.1
	c0.2,0,0.2-0.2,0.3-0.3c-0.1,0.1-0.3,0.1-0.3,0.3c-0.6,0.5-1,1.2-1.4,1.8c-0.1,0.1-0.2,0.3-0.3,0.4c-1.9,2.2-3.6,4.5-5.4,6.8
	C-4111.4,2368.8-4111.8,2369.3-4112.2,2369.8z M-4125.2,2381.5c0.7,0.6,1.5,1.4,2.3,2c0.8,0.7,1.2,1.2,1.5,1.5
	c2.1,0.9,4.4,1.3,6.8,1.8c1,0.2,2,0.4,3,0.6c1.5,0.3,2.9,0.7,3.5,1.9c0.6,1.1,0.2,2.4-0.4,3.7l-0.1,0.3c-2,4.7-4.1,9.6-5.7,14.5
	c-0.9,2.7-1.6,5.5-2.1,8.5c0.3,0.5,0.2,1,0.2,1.2v0.1c0.2,1.4,0.6,2.5,1.3,3.4c0.1,0.1,0.2,0.1,0.4,0.1c3.3-0.1,6.7,0,10,0.2
	c0.7,0,1.4,0.1,2.1,0.1c0.8,0,1.6,0,2.4,0.1c1.4,0,2.9,0.1,4.4,0.2c0.9,0.1,2.1-0.1,2.7-1.6c0.5-1.1,1-2.2,1.4-3.3
	c0.2-0.4,0.4-0.9,0.6-1.3l0.2-0.6c0.6-1.5,1.3-3.1,1.8-4.7v-0.1c0.2-0.7,0.6-2,2.2-2.3c2-0.4,3,1.2,3.3,1.7c0.4,0.5,0.7,1.1,1.1,1.6
	c0.7,1,1.4,2,2,3.1c0.2,0.3,1.4,1.7,2.4,2.9c1.1,1.3,2.4,2.8,3.1,3.8c0,0,0,0,0.1,0.1c0.3,0.4,0.5,0.7,0.5,1.1
	c0.1,0.1,0.3,0.1,0.7,0.2h0.2c0.8,0.1,1.6,0.2,2.3,0.2c1.5,0,3,0.1,4.5,0.1c3.1,0.1,6.2,0.2,9.4,0.3c0.8,0,1.7,0.1,2.5,0.1
	c0.5,0,1.1,0,1.7,0c0.2-0.2,0.1-0.3,0.1-0.4c0-0.2-0.1-0.3-0.1-0.5c-0.1-0.4-0.2-0.8-0.4-1.2c-2.3-5.8-5.6-11-8.2-14.8
	c-0.4-0.6-0.8-1.2-1.2-1.8c-1.1-1.7-2.1-3.2-3.4-4.6l-0.2-0.2l-0.1-0.2c-0.4-1-1-1.8-1.7-2.8c-0.3-0.5-0.7-0.9-1-1.4l-0.1-0.2
	c-0.3-0.5-0.6-0.9-0.9-1.4c-0.4-0.8-0.5-1.6-0.2-2.3s0.9-1.2,1.8-1.4c1.5-0.5,3.1-0.6,4.6-0.6c2.1-0.1,4-0.5,5.8-1.2
	c0.1-0.2,0.3-0.4,0.5-0.5c1.4-1.4,1.3-2.2,0.6-3.5c-0.6-1-1.4-1.9-2.3-2.8c-4.7-4.2-10.2-6.5-16.9-9c-0.7-0.3-1.4-0.5-2.2-0.8
	c-0.7-0.2-1.5-0.5-2.2-0.8c-1.2-0.4-2-1.4-2.1-2.7c-0.4-3-1.7-5.8-3.7-8c-2.1-2.4-4.9-3.8-8.1-4.3c-3.8-0.5-6.4,1.2-7.5,2.9
	c-0.1,0.5-0.4,0.8-0.7,0.9c-0.1,0.2-0.2,0.3-0.3,0.4c-0.4,1.5-0.7,2.9-0.6,4.3c0,0.3,0,0.5,0.1,0.8c0,0.5,0.1,0.9,0.1,1.4
	c0.2,1.3-0.6,2.4-1.9,2.7c-0.8,0.2-1.7,0.4-2.5,0.7c-1.4,0.4-2.8,0.8-4.2,1h-0.1c-0.2,0.1-0.5,0.3-0.8,0.4l-0.4,0.1
	c-2,0.7-3.9,1.3-5.6,2.3c-2.2,1.2-4.5,2.6-6,4.8c-0.1,0.2-0.2,0.4-0.3,0.5C-4125.1,2379.9-4125.3,2380.9-4125.2,2381.5z
	 M-4064.6,2397.6C-4064.6,2397.6-4064.5,2397.5-4064.6,2397.6c1.9-2.2,3.8-4.3,5.7-6.4c0.1-0.1,0.1-0.2,0.2-0.2
	c0.5-0.6,1.1-1.1,1.5-1.8c0.1,0,0.2-0.1,0.2-0.2c0.2,0,0.2-0.1,0.2-0.2c-0.1,0-0.2,0.1-0.2,0.2c-0.1,0.1-0.2,0.1-0.2,0.2l0,0
	c-2.1,0.9-4.3,1.4-6.6,1.4c-1.4,0-2.9,0.1-4.3,0.5c-1.1,0.3-1.4,0.9-0.9,2c0.3,0.5,0.6,1,1,1.6c0.9,1.5,2.1,2.8,2.8,4.4
	C-4065.4,2398.4-4064.9,2398-4064.6,2397.6z M-4052.4,2424.4c-1.6-0.1-3.1,0-4.7-0.1c-4.6-0.2-9.2-0.3-13.9-0.5
	c-0.8,0-1.7-0.1-2.5-0.2c-0.7-0.1-1.5-0.2-1.9-1c0.2-0.4-0.1-0.6-0.3-0.8c-0.1-0.1-0.1-0.2-0.2-0.3c-1.5-1.9-3.1-3.8-4.6-5.7l0,0
	h-0.1h-0.1l0,0c-0.3-0.2-0.5-0.5-0.6-0.8c-0.9-1.7-2.1-3.1-3.1-4.7c-0.5-0.7-1.1-1.3-2.1-1.2c-0.9,0.2-1.1,0.9-1.3,1.6
	c-0.6,1.8-1.4,3.6-2.1,5.3c-0.7,1.5-1.3,3.1-2,4.6c-0.8,1.7-2.2,2.4-3.9,2.3c-2.3-0.2-4.5-0.2-6.8-0.3c-4-0.2-8-0.4-12-0.3
	c-0.5,0-0.9-0.1-1.3-0.4c-1.1,0.3-1.5-0.5-1.9-1.3c-0.7-1.3-0.3-2.6-0.1-3.9c0.2-1.5,0.5-3.1,0.9-4.6v-0.1c0.2-0.8,0.4-1.5,0.6-2.3
	c0.2-0.8,0.5-1.5,0.7-2.3c1.7-5.1,3.8-10,5.9-14.9c1.2-2.7,0.5-3.3-2.3-3.9c-3.5-0.8-7.1-1.1-10.4-2.6c0.2-0.1,0.2-0.3,0.1-0.4
	c-1.4-1.1-2.7-2.3-4.1-3.4l0,0c-0.5-1.3-0.3-2.5,0.3-3.7l0,0c0.2,0,0.2-0.2,0.2-0.3c-0.1,0.1-0.3,0.2-0.3,0.3
	c-0.6,0.3-0.8,0.9-1.2,1.4c-0.2,0.2-0.3,0.4-0.5,0.6c-2.8,3.6-5.6,7.3-8.4,11c-1.8,2.4-1.4,5.2,1,7.1c2.1,1.7,4.7,2.4,7.3,2.9
	c1.9,0.3,3.8,0.7,5.6,1.1c1.9,0.4,2.3,1.4,1.6,3.2c-0.4,1-1,2-1.4,3.1c-1.5,4.1-3.4,8.1-4.7,12.3c-1.1,3.6-2,7.1-2.2,10.8
	c-0.1,2,0.8,3,2.9,3.1c3.2,0.2,6.5,0.3,9.7,0.4c2.8,0.1,5.7,0,8.5,0.1c1.6,0.1,2.8-0.3,3.8-1.4c0.5-0.6,1.1-1.2,1.6-1.8
	c2.2-2.5,4.5-4.9,6.7-7.4c0.4-0.5,0.6-0.4,0.9,0c0.4,0.6,0.9,1.3,1.3,1.9c1.5,2.1,3.1,4.2,4.6,6.3c1.4,1.9,3.1,3,5.6,3
	c1.7,0,3.3,0.1,5,0.2c4.3,0.1,8.5,0.2,12.8,0.2c0.7,0,1.2-0.3,1.7-0.7c3.5-3.4,6.9-6.9,10.3-10.5
	C-4053.1,2425.2-4052.8,2424.8-4052.4,2424.4z M-4048.2,2476.9c3.6-5.6,9.2-10,15.6-12.5c14.3-14.4,23.3-33.3,24-54
	c1.4-44.3-36.1-79.8-83.7-79.4c-47.6,0.4-87.3,36.7-88.7,81c-0.7,21.2,7.6,40.4,21.6,54.6c1.3-1.9,3.2-3,5.8-3.5
	c-0.6-0.6-1.2-1.1-1.8-1.7c-12.9-13.3-19.8-30.8-19.2-49.1c1.3-40.7,38.2-74.2,82.4-74.6h0.8c21.9,0,42.7,8.5,57.1,23.2
	c12.9,13.3,19.8,30.8,19.2,49.1c-0.8,25.7-15.8,48.5-37.9,61.9c1,2,1.7,4.2,1.9,6.7C-4050,2478.1-4049.1,2477.5-4048.2,2476.9z
	 M-4100,2382.4c3.4,2.1,6.8,4.2,10.2,6.4l0.4,0.2c0.1-0.1,0.2-0.2,0.3-0.2c2.5-1.9,4.9-3.7,7.4-5.6c0.2-0.1,0.3-0.3,0.5-0.4
	c1.3-1.3,0.9-3.2-1.1-4.6c-2-1.4-5-1.8-6.9-0.9c-0.8,0.4-1.4,0.9-2.1,1.4c-0.3,0.2-0.3,0.2-0.8,0c-0.8-0.5-1.6-1-2.4-1.4
	c-2.5-1.2-5.4-1-7,0.4C-4102.8,2378.9-4102.2,2381-4100,2382.4z M-4110.2,2483.8c0.3,2.3,0.4,4.6,0.2,6.8c-0.3,3.2-1.1,6.3-2.4,9.2
	c-0.1,0.3-0.3,0.6-0.4,0.9c-1.4,2.9-3.3,5.5-5.7,7.8c-4.4,3.9-9.4,5.9-14.9,5.9c-4.4,0-9.1-1.3-13.9-4c-0.9,4.9-1.8,9.7-2.6,14.5
	c-0.9,5.2-2.1,6.2-7.4,6.2c-1.1,0-2.3,0-3.4,0c-0.6,0-1.1,0-1.7,0c-4,0-5.1-1.3-4.4-5.2c1.5-8.2,2.9-16.5,4.4-24.7
	c1.2-6.7,2.4-13.4,3.6-20c0.1-0.4,0.1-0.7,0.2-1.1c0.5-2.5,0.9-5.1,1.4-7.6c0.2-1.2,0.5-2.2,0.9-3c1-1.9,2.6-2.5,5.6-2.5
	c0.5,0,1,0,1.5,0l0,0l0,0c0.6,0,1.1,0,1.6,0c2.7,0.1,3.6,0.7,3.9,2.9c0,0.4,0.1,0.8,0.1,1.3s0,1.1,0,1.7c0.4-0.4,0.7-0.7,1.1-1
	c0.3-0.2,0.5-0.5,0.8-0.7c3.4-2.8,7-4.6,11.4-4.8c0.4,0,0.9,0,1.3,0c8,0,15.2,5.1,17.8,12.8c0.4,1.2,0.7,2.5,1,3.7
	C-4110.3,2483.1-4110.2,2483.5-4110.2,2483.8z M-4126.7,2486.8c-0.7-3.9-4.1-6.7-8-6.7c-0.4,0-0.7,0-1.1,0.1
	c-0.7,0.1-1.4,0.3-2.1,0.6c-0.5,0.2-1,0.4-1.4,0.6c-2.7,1.5-4.6,4.2-5.2,7.9c-0.1,0.3-0.1,0.7-0.1,1.1c-0.1,0.6-0.1,1.2-0.1,1.8l0,0
	c-0.1,3.1,1.6,6.1,4.4,7.5c1.3,0.7,2.7,1.1,4.2,1.1c1.9,0,3.7-0.6,5.2-1.8c0.8-0.6,1.5-1.2,2.1-1.9c0.2-0.3,0.5-0.6,0.7-0.8
	c1.8-2.5,2.2-5.6,1.6-9C-4126.6,2487.1-4126.7,2486.9-4126.7,2486.8z M-4059.1,2508.8c1-5.1,2-10.3,2.8-15.5c0-0.1,0-0.2,0.1-0.3
	c0.1-0.4,0.1-0.8,0.2-1.2c0.6-3.7,1-7.4,1.1-11.1c0-0.2,0-0.4,0-0.6c-0.1-2.3-0.6-4.4-1.5-6.2c-0.1-0.3-0.3-0.6-0.5-0.9
	c-2.5-4.1-7-6.6-12.5-6.8c-0.2,0-0.3,0-0.5,0c-4.4,0-8.6,1.4-12.2,4c0.5-2.6,0.8-4.6,1.2-6.7c0.7-4,1.5-7.9,2.1-11.9
	c0.4-2.5-0.7-4.1-2.7-4.1c-0.2,0-0.4,0-0.6,0c-3.2,0.5-6.4,1.1-9.5,1.7c-2.1,0.3-3.7,2-3.9,4.1c-1.8,10-3.6,20.1-5.4,30.1
	c-0.1,0.3-0.1,0.7-0.2,1c-0.4,2.2-0.8,4.5-1.2,6.7c-0.6,3.1-1.1,6.3-1.7,9.4c-0.1,0.3-0.1,0.7-0.2,1c-0.5,2.6-0.9,5.1-1.4,7.7
	c-0.5,2.7,0.6,4,3.3,4.1c1.3,0.1,2.6,0.1,3.9,0.1c1.3,0,2.5,0,3.8,0c3.4-0.1,4.9-1.4,5.5-4.8c0.4-2.4,0.9-4.9,1.3-7.3
	c0.1-0.3,0.1-0.7,0.2-1c0.5-2.9,1-5.8,1.6-8.8c0.1-0.3,0.1-0.7,0.2-1c0.4-1.9,0.9-3.9,1.6-5.7c0.2-0.5,0.5-1,0.8-1.5
	c0.3-0.4,0.7-0.8,1.1-1.2c1.3-1.1,2.9-1.7,4.6-1.7c0.6,0,1.2,0.1,1.8,0.3c0.1,0,0.1,0,0.2,0c0.5,0.1,0.9,0.4,1.2,0.6
	c1.8,1.1,2.5,3.3,2.1,6.4c0,0.2,0,0.4-0.1,0.6c-0.5,3.2-1.1,6.4-1.7,9.6c-0.1,0.4-0.1,0.7-0.2,1.1c-0.5,3.2-1.1,6.4-1.6,9.5
	c-0.6,3.7,0.3,4.9,3.9,4.9c1.2,0,2.3,0,3.5,0s2.3,0,3.5,0C-4061.2,2513.5-4059.8,2512.3-4059.1,2508.8z M-4165.2,2474.2
	c0.3-0.6,0.7-1.1,1-1.7c0.7-1.2,1.5-3.3,0.9-4.1c-0.7-1-2.7-1.3-4.2-1.5c-0.5-0.1-1-0.1-1.5-0.1c-0.8,0-1.6,0.1-2.4,0.1
	c-0.2,0-0.4,0-0.5,0c-0.2,0-0.3,0-0.5,0c-0.3,0-0.6-0.1-0.9-0.1l0,0c-3,0-5.7,1.8-6.9,4.6c-2.8,5.3-5.6,10.5-8.4,15.8
	c-1,1.9-2,3.7-3.3,6.1c-0.3-1.1-0.4-1.6-0.5-2.1c-1.3-6.8-2.5-13.6-3.9-20.4c-0.6-3-1.9-3.9-4.9-3.9c-1.1,0-2.2,0-3.2,0
	c-1.2,0-2.4,0-3.5,0c-4.3,0-5.6,1.7-4.5,5.8c3,10.8,5.8,21.6,9,32.4c1,2.7,0.6,5.7-1,8.1c-2.4,3.7-3.5,5-6.2,5c-1,0-2.2-0.2-3.8-0.5
	c-0.3-0.1-0.6-0.1-1-0.1c-1.3,0-2.5,0.8-3,2.1c-0.8,1.7-1.5,3.4-2.3,5.1c-1.5,3.3-0.9,4.7,2.7,5.6c2.2,0.6,4.4,0.9,6.5,0.9
	c4.6,0,8.9-1.4,12.7-4.7c2.9-2.6,5.4-5.5,7.4-8.8c4.4-6.8,8.4-13.8,12.5-20.7c4.4-7.3,8.8-14.6,13.1-21.9
	C-4165.5,2474.8-4165.4,2474.5-4165.2,2474.2z M-4008.6,2510.2c-4.3,3-10.1,4.5-15.9,4.5c-5.4,0-10.7-1.3-14.7-3.9
	c-7.1-4.6-10.5-13-9.3-21.6c0.1-0.4,0.1-0.8,0.2-1.3c0.4-2.3,1.2-4.6,2.3-6.8c4.5-9,14.6-14.7,24.7-15c0.2,0,0.5,0,0.7,0
	s0.4,0,0.6,0c3,0.1,5.9,0.6,8.7,1.7c9.1,3.5,14,13.4,11.2,22.8c-0.4,2-2.3,3.4-4.3,3.4c-0.2,0-0.4,0-0.6,0c-3.6,0-7.2,0-10.8,0
	c-4.8,0-9.6,0-14.4,0h-2.6c-0.6,3.6,1.6,7.1,5.2,8.2c1.6,0.5,3.2,0.8,4.8,0.8c2.9,0,5.8-0.9,8.2-2.5c1.9-1.2,3-1.9,3.9-1.9
	c1.1,0,1.9,1,3.5,3.1C-4003.9,2505.8-4004.1,2507.1-4008.6,2510.2z M-4021.5,2477.6c-0.2,0-0.5,0-0.7,0c-4.3,0-8,3-8.7,7.3h15.5
	C-4015.5,2480.6-4017.8,2477.9-4021.5,2477.6z M-4215.9,2451.8c0.5-2.8-0.6-4.3-2.9-4.3c-0.4,0-0.9,0-1.3,0.1
	c-2.4,0.4-4.8,0.8-7.2,1.3c-4,0.8-5,1.8-5.7,5.8c-2.1,11.3-4.1,22.7-6.2,34c-1.2,6.7-2.4,13.3-3.6,20c-0.6,3.6,0.4,4.7,4.1,4.8
	c0.4,0,0.8,0,1.1,0c0.8,0,1.5,0,2.3,0h2.2c5.3,0,6.3-0.9,7.3-6c1.8-9.9,3.6-19.8,5.3-29.7C-4219,2469.1-4217.4,2460.5-4215.9,2451.8
	z M-3956,2467c-2-0.5-3.9-0.8-5.8-0.8c-4.1,0-7.9,1.4-11.4,4.4c-0.6,0.5-1.2,1-2,1.8c-0.1-4.9-0.8-5.5-5.3-5.5c-0.6,0-1.3,0-1.9,0
	c-0.3,0-0.6,0-1,0c-3.4,0.1-5.2,1.4-5.8,4.7c-2.3,12.5-4.5,25.1-6.7,37.6c-0.5,2.7,0.7,4.2,3.5,4.3c1.2,0.1,2.5,0.1,3.7,0.1
	c1.3,0,2.6,0,3.8,0c3.7-0.1,5.2-1.3,5.9-5c1.3-7,2.4-14,3.8-20.9c1-4.8,4.1-7.3,8.7-7.3c0.4,0,0.9,0,1.4,0.1
	c1.1,0.1,2.2,0.3,3.3,0.7c0.1,0.1,0.3,0.1,0.4,0.2c0.4,0.1,0.7,0.2,1.1,0.2c1.4,0,2.6-0.9,3.1-2.2c1.2-2.5,2.4-5.1,3.5-7.7
	C-3952.7,2469-3953.3,2467.8-3956,2467z M-4103.9,2526.9h-1.9v13.4h7.9v-1.6h-6V2526.9z M-4095.7,2540.3h1.9v-13.4h-1.9V2540.3z
	 M-4090.2,2540.3h1.9v-5.7h4.7v-1.6h-4.7v-4.4h5.5v-1.6h-7.4V2540.3z M-4078.4,2534.3h4.8v-1.6h-4.8v-4.2h5.9v-1.6h-7.8v13.4h8.1
	v-1.6h-6.2V2534.3z M-4058.6,2538.8c-0.1,0-0.1,0-0.2,0c-2.8-0.1-4.9-2.5-4.8-5.3c0-0.1,0-0.2,0-0.3c0-2.7,2.3-4.8,5-4.8
	c1.4,0,2.8,0.5,3.9,1.5l0.9-1.4c-1.3-1.2-3.1-1.8-4.9-1.8l0,0c-3.7,0.1-6.7,3.1-6.8,6.8c-0.1,3.8,3,7,6.8,7c1.9,0,3.8-0.7,5.2-2.1
	l-1-1.3C-4055.5,2538.1-4057,2538.7-4058.6,2538.8z M-4038.1,2533.3c0,0.1,0,0.1,0,0.2c0.1,3.8-3,6.9-6.8,7s-6.9-3-7-6.8
	c0-0.1,0-0.1,0-0.2c0-3.7,3-6.8,6.7-6.8c0.1,0,0.1,0,0.2,0C-4041.3,2526.6-4038.2,2529.5-4038.1,2533.3z M-4040.1,2533.6v-0.1
	c0.1-2.7-2-5-4.8-5.1s-5,2-5.1,4.8c0,0.1,0,0.2,0,0.4c-0.1,2.8,2,5.2,4.8,5.3h0.1C-4042.2,2538.7-4040,2536.4-4040.1,2533.6z
	 M-4026.9,2535.5c-0.1,1.8-1.5,3.2-3.2,3.3c-1.9,0.1-3.5-1.4-3.5-3.2v-8.6h-1.9v8.6c0.2,2.7,2.3,4.8,5,5c2.9,0.2,5.4-2.1,5.6-5v-8.6
	h-1.9v8.5H-4026.9z M-4012.8,2535.6c0,0.7,0.1,1.9,0.1,1.9l0,0c0,0-0.6-1.2-1.1-1.9l-6-8.7h-1.9v13.4h1.9v-8.7c0-0.8-0.1-2-0.1-2
	l0,0c0,0,0.6,1.2,1.1,2l6,8.7h1.8v-13.4h-1.9L-4012.8,2535.6L-4012.8,2535.6z M-4009,2528.5h4.6v11.8h1.9v-11.8h4.6v-1.6h-11.1
	V2528.5z M-3994.1,2534.3h4.8v-1.6h-4.8v-4.2h5.9v-1.6h-7.8v13.4h8.1v-1.6h-6.2V2534.3z M-3978.3,2535.1l2.8,5.2h-2.1l-2.8-5.3h-2.9
	v5.3h-1.9v-13.4h4.1c0.8-0.1,1.7,0,2.5,0.3c2,1,2.8,3.3,1.9,5.3c-0.4,0.9-1.1,1.6-2,1.9l0,0
	C-3978.5,2534.6-3978.4,2534.8-3978.3,2535.1z M-3978.2,2531.2c0-0.1,0-0.2,0-0.4c0.1-0.8-0.3-1.6-1.1-2.1c-0.6-0.3-1.2-0.4-1.8-0.3
	h-2.2v4.8h2.7C-3979.3,2533.4-3978.3,2532.5-3978.2,2531.2z"/>
<g id="Group_6" transform="translate(-1749 -802)">
	<path id="Path_27" class="st24" d="M-2531.4,3455.4h20c1.1,0,2,0.9,2,2s-0.9,2-2,2h-20c-1.1,0-2-0.9-2-2
		S-2532.5,3455.4-2531.4,3455.4z"/>
</g>
<path id="Path_28" class="st24" d="M-4302.4,2641.4c0-1.1,0.9-2,2-2h40c1.1,0,2,0.9,2,2s-0.9,2-2,2h-40
	C-4301.5,2643.4-4302.4,2642.5-4302.4,2641.4"/>
<g id="Group_7" transform="translate(-1749 -802)">
	<path id="Path_29" class="st24" d="M-2538.4,3426.4h27c1.1,0,2,0.9,2,2s-0.9,2-2,2h-27c-1.1,0-2-0.9-2-2
		S-2539.5,3426.4-2538.4,3426.4z"/>
</g>
<path class="st25" d="M-5377.4,1830.7h80c0-18.8,0-37.7,0-56.5c0-10.7-3.9-19.9-12.5-28.4c-10.8-12-33.5-15.6-50.4-3.1
	c-10.3,7.7-15.9,18.2-16.1,31.2c-0.2,16.9-0.1,33.8,0,50.7C-5376.4,1826.9-5376.7,1828.9-5377.4,1830.7z"/>
<linearGradient id="SVGID_20_" gradientUnits="userSpaceOnUse" x1="-5027.7998" y1="-1377.1184" x2="-5027.7998" y2="-1151.8357" gradientTransform="matrix(1 0 0 -1 0 559.3721)">
	<stop  offset="0" style="stop-color:#F2D067"/>
	<stop  offset="5.103823e-02" style="stop-color:#EDCB6C"/>
	<stop  offset="0.1155" style="stop-color:#E0BD76"/>
	<stop  offset="0.1873" style="stop-color:#CBA781"/>
	<stop  offset="0.2643" style="stop-color:#B08A8C"/>
	<stop  offset="0.3445" style="stop-color:#916B95"/>
	<stop  offset="0.4233" style="stop-color:#71479C"/>
</linearGradient>
<path class="st26" d="M-4927.2,1923.6c20.6,20.6,14.1,54.5-13.1,65.1c-15.5,6.1-30,3-42.2-8.7c-12-11.6-23.7-23.6-35.5-35.4
	c-6.3-6.3-13.3-6.4-19.7-0.1c-11.9,11.9-23.8,24-35.9,35.8c-9.3,9.1-20.7,12.6-33.4,10.7c-20.8-3.1-34.3-21.7-33.4-37.8
	c-0.1-12,3.7-21.3,11.2-28.9c14.3-14.4,28.7-28.8,43.1-43.1c18.6,18.6,37.1,37.1,55.7,55.7c2.7,2.7,2.7,2.7,5.5,0
	c13.6-13.6,27.1-27.2,40.7-40.8c4.9-4.9,9.8-9.8,14.8-14.8C-4955.3,1895.4-4941.3,1909.5-4927.2,1923.6z"/>
<linearGradient id="SVGID_21_" gradientUnits="userSpaceOnUse" x1="-5027.8335" y1="-1295.5056" x2="-5027.8335" y2="-1520.7883" gradientTransform="matrix(1 0 0 -1 0 559.3721)">
	<stop  offset="0" style="stop-color:#F37567"/>
	<stop  offset="1" style="stop-color:#CA499A"/>
</linearGradient>
<path class="st27" d="M-4915.2,1809.3c0.1,12-3.7,21.3-11.2,28.9c-19.2,19.3-38.5,38.6-57.8,57.9c-13.6,13.6-27.1,27.2-40.7,40.8
	c-2.7,2.7-2.7,2.7-5.5,0c-32.6-32.6-65.3-65.3-97.9-97.9c-20.6-20.6-14.1-54.5,13.1-65.1c15.5-6.1,30-3,42.2,8.7
	c12,11.6,23.7,23.6,35.5,35.4c6.3,6.3,13.3,6.4,19.7,0.1c11.9-11.9,23.8-24,35.9-35.8c9.3-9.1,20.7-12.6,33.4-10.7
	C-4927.9,1774.6-4914.4,1793.2-4915.2,1809.3z"/>
<ellipse transform="matrix(0.8507 -0.5257 0.5257 0.8507 -1750.5936 -2654.5732)" class="st25" cx="-5547.5" cy="1753.9" rx="41.4" ry="41.4"/>
<rect x="-5068" y="1693.8" transform="matrix(0.7071 -0.7071 0.7071 0.7071 -2698.562 -3047.77)" class="st28" width="79.5" height="79.5"/>
<circle class="st29" cx="-5002" cy="1736.9" r="6.1"/>
<circle class="st29" cx="-5025.1" cy="1760" r="6.1"/>
<circle class="st29" cx="-5030.1" cy="1708.9" r="6.1"/>
<circle class="st29" cx="-5053.2" cy="1732" r="6.1"/>
<circle class="st29" cx="-5026.8" cy="1735" r="6.1"/>
<path class="st0" d="M-4406.5,1734.4l-40.7-40.7c-4.3-4.3-11.2-4.3-15.5,0l-40.7,40.7c-4.3,4.3-4.3,11.2,0,15.5l40.7,40.7
	c4.3,4.3,11.2,4.3,15.5,0l40.7-40.7C-4402.3,1745.6-4402.3,1738.7-4406.5,1734.4z M-4474.3,1745.2c-1.8,1.8-4.8,1.8-6.6,0
	c-1.8-1.8-1.8-4.8,0-6.6c1.8-1.8,4.8-1.8,6.6,0C-4472.5,1740.4-4472.5,1743.4-4474.3,1745.2z M-4458.6,1716.2c1.8-1.8,4.8-1.8,6.6,0
	c1.8,1.8,1.8,4.8,0,6.6c-1.8,1.8-4.8,1.8-6.6,0C-4460.4,1721-4460.4,1718-4458.6,1716.2z M-4458.4,1738.8c1.8-1.8,4.8-1.8,6.6,0
	c1.8,1.8,1.8,4.8,0,6.6c-1.8,1.8-4.8,1.8-6.6,0C-4460.2,1743.6-4460.2,1740.6-4458.4,1738.8z M-4451.7,1767.8
	c-1.8,1.8-4.8,1.8-6.6,0c-1.8-1.8-1.8-4.8,0-6.6c1.8-1.8,4.8-1.8,6.6,0C-4449.9,1763-4449.9,1766-4451.7,1767.8z M-4429.3,1745.4
	c-1.8,1.8-4.8,1.8-6.6,0c-1.8-1.8-1.8-4.8,0-6.6c1.8-1.8,4.8-1.8,6.6,0C-4427.5,1740.6-4427.5,1743.6-4429.3,1745.4z"/>
<path class="st24" d="M-4663.6,1923.6c20.6,20.6,14.1,54.5-13.1,65.1c-15.5,6.1-30,3-42.2-8.7c-12-11.6-23.7-23.6-35.5-35.4
	c-6.3-6.3-13.3-6.4-19.7-0.1c-11.9,11.9-23.8,24-35.9,35.8c-9.3,9.1-20.7,12.6-33.4,10.7c-20.8-3.1-34.3-21.7-33.4-37.8
	c-0.1-12,3.7-21.3,11.2-28.9c14.3-14.4,28.7-28.8,43.1-43.1c18.6,18.6,37.1,37.1,55.7,55.7c2.7,2.7,2.7,2.7,5.5,0
	c13.6-13.6,27.1-27.2,40.7-40.8c4.9-4.9,9.8-9.8,14.8-14.8C-4691.8,1895.4-4677.7,1909.5-4663.6,1923.6z"/>
<path class="st24" d="M-4651.7,1809.3c0.1,12-3.7,21.3-11.2,28.9c-19.2,19.3-38.5,38.6-57.8,57.9c-13.6,13.6-27.1,27.2-40.7,40.8
	c-2.7,2.7-2.7,2.7-5.5,0c-32.6-32.6-65.3-65.3-97.9-97.9c-20.6-20.6-14.1-54.5,13.1-65.1c15.5-6.1,30-3,42.2,8.7
	c12,11.6,23.7,23.6,35.5,35.4c6.3,6.3,13.3,6.4,19.7,0.1c11.9-11.9,23.8-24,35.9-35.8c9.3-9.1,20.7-12.6,33.4-10.7
	C-4664.3,1774.6-4650.8,1793.2-4651.7,1809.3z"/>
<path class="st24" d="M-4764.7,1677.3l-56.2,56.2l56.2,56.2l56.2-56.2L-4764.7,1677.3z M-4789.6,1738.1c-3.4,0-6.1-2.7-6.1-6.1
	s2.7-6.1,6.1-6.1c3.4,0,6.1,2.7,6.1,6.1C-4783.5,1735.3-4786.2,1738.1-4789.6,1738.1z M-4772.6,1708.9c0-3.4,2.7-6.1,6.1-6.1
	c3.4,0,6.1,2.7,6.1,6.1s-2.7,6.1-6.1,6.1C-4769.9,1715-4772.6,1712.3-4772.6,1708.9z M-4763.2,1729c3.4,0,6.1,2.7,6.1,6.1
	s-2.7,6.1-6.1,6.1c-3.4,0-6.1-2.7-6.1-6.1S-4766.6,1729-4763.2,1729z M-4761.5,1766.1c-3.4,0-6.1-2.7-6.1-6.1c0-3.4,2.7-6.1,6.1-6.1
	c3.4,0,6.1,2.7,6.1,6.1C-4755.5,1763.4-4758.2,1766.1-4761.5,1766.1z M-4738.5,1743c-3.4,0-6.1-2.7-6.1-6.1s2.7-6.1,6.1-6.1
	c3.4,0,6.1,2.7,6.1,6.1S-4735.1,1743-4738.5,1743z"/>
<path class="st24" d="M-4494.2,1847.4"/>
<path class="st4" d="M-4464.8,1818c0.6,0.6,1.2,1.1,1.8,1.6C-4463.6,1819-4464.3,1818.4-4464.8,1818
	C-4464.8,1817.9-4464.8,1817.9-4464.8,1818z"/>
<path class="st24" d="M-4345.1,1825.4l-1.5,3.3C-4346.1,1827.7-4345.6,1826.6-4345.1,1825.4z"/>
<path class="st0" d="M-4462.9,1819.6c-0.6-0.5-1.2-1-1.8-1.6c0,0,0,0-0.1-0.1c-4.8-4.3-7.3-7.4-7.3-7.4l0,0
	c-9.3-9.4-18.6-18.8-28.1-27.9c-10.1-9.7-21.8-13.5-34.4-11c-31.4,6.3-42.7,45.6-20,68.3c32.2,32.2,64.4,64.4,96.6,96.7
	c1.8,1.8,4.6,1.8,6.4,0c13.4-13.4,26.8-26.9,40.3-40.3c19.3-19.3,38.6-38.6,57.8-57.9c2.2-2.2,4.1-4.6,5.6-7.1
	c0.4-0.6-0.3-1.3-0.9-0.9C-4400.5,1864.4-4444.5,1835.7-4462.9,1819.6z"/>
<path class="st24" d="M-4346.6,1828.7L-4346.6,1828.7C-4346.6,1828.8-4346.6,1828.8-4346.6,1828.7L-4346.6,1828.7z"/>
<path class="st24" d="M-4464.9,1817.9c-2.5-2.5-4.9-4.9-7.3-7.4l0,0C-4472.2,1810.5-4469.6,1813.5-4464.9,1817.9z"/>
<linearGradient id="SVGID_22_" gradientUnits="userSpaceOnUse" x1="-4118.769" y1="-1333.1923" x2="-4122.4341" y2="-1212.6849" gradientTransform="matrix(1 0 0 -1 0 559.3721)">
	<stop  offset="0.1307" style="stop-color:#AF984C"/>
	<stop  offset="0.2396" style="stop-color:#BEA553"/>
	<stop  offset="0.4242" style="stop-color:#D4B75C"/>
	<stop  offset="0.6117" style="stop-color:#E3C362"/>
	<stop  offset="0.8021" style="stop-color:#EDCB65"/>
	<stop  offset="0.9995" style="stop-color:#F2D067"/>
</linearGradient>
<path class="st30" d="M-4063.6,1825.4c1.9-4.8,2.8-10.1,2.7-16.1c0.8-16.1-12.7-34.8-33.4-37.8c-12.7-1.9-24.1,1.6-33.4,10.7
	c-12.1,11.8-23.9,23.8-35.9,35.8c-5.7,5.7-12,6.2-17.8,1.6c18.7,16.3,63.7,45.7,116.3,9.2l0,0L-4063.6,1825.4z"/>
<path d="M-4169.7,1766.1c0,0-25.6,24.6-28.6,26.3s33.1,45.9,33.1,45.9l40.4-39.5l-27.3-27.6L-4169.7,1766.1z"/>
<linearGradient id="SVGID_23_" gradientUnits="userSpaceOnUse" x1="-4188.3027" y1="-1277.0227" x2="-4131.7427" y2="-1190.1389" gradientTransform="matrix(1 0 0 -1 0 559.3721)">
	<stop  offset="5.649198e-02" style="stop-color:#86888A"/>
	<stop  offset="9.513317e-02" style="stop-color:#9B9D9F"/>
	<stop  offset="0.1498" style="stop-color:#B4B6B8"/>
	<stop  offset="0.2117" style="stop-color:#CACCCE"/>
	<stop  offset="0.2816" style="stop-color:#DCDEDF"/>
	<stop  offset="0.3634" style="stop-color:#EBEBEC"/>
	<stop  offset="0.4644" style="stop-color:#F5F5F5"/>
	<stop  offset="0.6061" style="stop-color:#FCFCFC"/>
	<stop  offset="0.9995" style="stop-color:#FFFFFF"/>
</linearGradient>
<path class="st31" d="M-4116.4,1793l-40.9-40.9c-4.3-4.3-11.2-4.3-15.5,0l-40.9,40.9c-4.3,4.3-4.3,11.2,0,15.5l40.9,40.9
	c4.3,4.3,11.2,4.3,15.5,0l40.9-40.9C-4112.1,1804.2-4112.1,1797.3-4116.4,1793z M-4184.3,1803.8c-1.8,1.8-4.8,1.8-6.7,0
	c-1.8-1.8-1.8-4.8,0-6.7c1.8-1.8,4.8-1.8,6.7,0C-4182.5,1799-4182.5,1802-4184.3,1803.8z M-4168.6,1774.7c1.8-1.8,4.8-1.8,6.7,0
	c1.8,1.8,1.8,4.8,0,6.7c-1.8,1.8-4.8,1.8-6.7,0C-4170.4,1779.6-4170.4,1776.6-4168.6,1774.7z M-4168.3,1797.4c1.8-1.8,4.8-1.8,6.7,0
	c1.8,1.8,1.8,4.8,0,6.7c-1.8,1.8-4.8,1.8-6.7,0C-4170.2,1802.2-4170.2,1799.2-4168.3,1797.4z M-4161.7,1826.5
	c-1.8,1.8-4.8,1.8-6.7,0c-1.8-1.8-1.8-4.8,0-6.7c1.8-1.8,4.8-1.8,6.7,0C-4159.8,1821.7-4159.8,1824.7-4161.7,1826.5z
	 M-4139.2,1804.1c-1.8,1.8-4.8,1.8-6.7,0c-1.8-1.8-1.8-4.8,0-6.7c1.8-1.8,4.8-1.8,6.7,0S-4137.4,1802.2-4139.2,1804.1z"/>
<path class="st24" d="M-4212.6,1847.4"/>
<path class="st4" d="M-4183.2,1818c0.6,0.6,1.2,1.1,1.8,1.6C-4182,1819-4182.7,1818.4-4183.2,1818
	C-4183.3,1817.9-4183.2,1817.9-4183.2,1818z"/>
<path class="st24" d="M-4063.6,1825.4l-1.5,3.3C-4064.5,1827.7-4064,1826.6-4063.6,1825.4z"/>
<linearGradient id="SVGID_24_" gradientUnits="userSpaceOnUse" x1="-4243.5249" y1="-1323.1591" x2="-4181.4766" y2="-1259.9476" gradientTransform="matrix(1 0 0 -1 0 559.3721)">
	<stop  offset="0.1559" style="stop-color:#AF984C"/>
	<stop  offset="0.2003" style="stop-color:#BAA251"/>
	<stop  offset="0.2984" style="stop-color:#CDB259"/>
	<stop  offset="0.4088" style="stop-color:#DCBE5F"/>
	<stop  offset="0.5366" style="stop-color:#E7C763"/>
	<stop  offset="0.6976" style="stop-color:#EFCD66"/>
	<stop  offset="0.9995" style="stop-color:#F2D067"/>
</linearGradient>
<path class="st32" d="M-4181.4,1819.6c-0.6-0.5-1.2-1-1.8-1.6c0,0,0,0-0.1-0.1c-4.8-4.3-7.3-7.4-7.3-7.4l0,0
	c-9.3-9.4-18.6-18.8-28.1-27.9c-10.1-9.7-21.8-13.5-34.4-11c-31.4,6.3-42.7,45.6-20,68.3c32.2,32.2,64.4,64.4,96.6,96.7
	c1.8,1.8,4.6,1.8,6.4,0c13.4-13.4,26.8-26.9,40.3-40.3c19.3-19.3,38.6-38.6,57.8-57.9c2.2-2.2,4.1-4.6,5.6-7.1
	c0.4-0.6-0.3-1.3-0.9-0.9C-4119,1864.4-4162.9,1835.7-4181.4,1819.6z"/>
<path class="st24" d="M-4065.1,1828.7L-4065.1,1828.7C-4065.1,1828.8-4065.1,1828.8-4065.1,1828.7L-4065.1,1828.7z"/>
<path class="st24" d="M-4183.3,1817.9c-2.5-2.5-4.9-4.9-7.3-7.4l0,0C-4190.6,1810.5-4188,1813.5-4183.3,1817.9z"/>
<path class="st24" d="M-4427.9,1307.7l-1.5,3.3C-4428.9,1309.9-4428.4,1308.8-4427.9,1307.7z"/>
<path class="st24" d="M-4429.4,1311L-4429.4,1311L-4429.4,1311L-4429.4,1311z"/>
<linearGradient id="SVGID_25_" gradientUnits="userSpaceOnUse" x1="-4473.0713" y1="-812.1245" x2="-4479.2798" y2="-607.9855" gradientTransform="matrix(1 0 0 -1 0 559.3721)">
	<stop  offset="0.1559" style="stop-color:#9F3224"/>
	<stop  offset="0.2317" style="stop-color:#B23A2C"/>
	<stop  offset="0.326" style="stop-color:#C44132"/>
	<stop  offset="0.432" style="stop-color:#D24636"/>
	<stop  offset="0.5549" style="stop-color:#DC4939"/>
	<stop  offset="0.7097" style="stop-color:#E34B3B"/>
	<stop  offset="1" style="stop-color:#E64C3C"/>
</linearGradient>
<path class="st33" d="M-4417.9,1304.4c1.9-4.8,2.8-10.1,2.7-16.1c0.8-16.1-12.7-34.8-33.4-37.8c-12.7-1.9-24.1,1.6-33.4,10.7
	c-12.1,11.8-23.9,23.8-35.9,35.8c-5.7,5.7-12,6.2-17.8,1.6c18.7,16.3,63.7,45.7,116.3,9.2l0,0L-4417.9,1304.4z"/>
<path d="M-4518.5,1252.7c0,0-25.6,24.6-28.6,26.3c-3,1.7,33.1,45.9,33.1,45.9l40.4-39.5l-27.3-27.6L-4518.5,1252.7z"/>
<linearGradient id="SVGID_26_" gradientUnits="userSpaceOnUse" x1="-4537.1035" y1="-763.6238" x2="-4480.5435" y2="-676.7399" gradientTransform="matrix(1 0 0 -1 0 559.3721)">
	<stop  offset="5.649198e-02" style="stop-color:#86888A"/>
	<stop  offset="9.513317e-02" style="stop-color:#9B9D9F"/>
	<stop  offset="0.1498" style="stop-color:#B4B6B8"/>
	<stop  offset="0.2117" style="stop-color:#CACCCE"/>
	<stop  offset="0.2816" style="stop-color:#DCDEDF"/>
	<stop  offset="0.3634" style="stop-color:#EBEBEC"/>
	<stop  offset="0.4644" style="stop-color:#F5F5F5"/>
	<stop  offset="0.6061" style="stop-color:#FCFCFC"/>
	<stop  offset="0.9995" style="stop-color:#FFFFFF"/>
</linearGradient>
<path class="st34" d="M-4465.2,1279.6l-40.9-40.9c-4.3-4.3-11.2-4.3-15.5,0l-40.9,40.9c-4.3,4.3-4.3,11.2,0,15.5l40.9,40.9
	c4.3,4.3,11.2,4.3,15.5,0l40.9-40.9C-4460.9,1290.8-4460.9,1283.9-4465.2,1279.6z M-4533.1,1290.4c-1.8,1.8-4.8,1.8-6.7,0
	c-1.8-1.8-1.8-4.8,0-6.7c1.8-1.8,4.8-1.8,6.7,0C-4531.3,1285.6-4531.3,1288.6-4533.1,1290.4z M-4517.3,1261.3c1.8-1.8,4.8-1.8,6.7,0
	c1.8,1.8,1.8,4.8,0,6.7c-1.8,1.8-4.8,1.8-6.7,0C-4519.2,1266.2-4519.2,1263.2-4517.3,1261.3z M-4517.1,1284c1.8-1.8,4.8-1.8,6.7,0
	c1.8,1.8,1.8,4.8,0,6.7c-1.8,1.8-4.8,1.8-6.7,0C-4519,1288.8-4519,1285.8-4517.1,1284z M-4510.5,1313.1c-1.8,1.8-4.8,1.8-6.7,0
	c-1.8-1.8-1.8-4.8,0-6.7c1.8-1.8,4.8-1.8,6.7,0C-4508.6,1308.3-4508.6,1311.3-4510.5,1313.1z M-4488,1290.7c-1.8,1.8-4.8,1.8-6.7,0
	c-1.8-1.8-1.8-4.8,0-6.7c1.8-1.8,4.8-1.8,6.7,0C-4486.2,1285.9-4486.2,1288.8-4488,1290.7z"/>
<path class="st24" d="M-4566.9,1326.3"/>
<path class="st4" d="M-4537.5,1296.9c0.6,0.6,1.2,1.1,1.8,1.6C-4536.4,1297.9-4537,1297.4-4537.5,1296.9
	C-4537.6,1296.8-4537.6,1296.9-4537.5,1296.9z"/>
<linearGradient id="SVGID_27_" gradientUnits="userSpaceOnUse" x1="-4597.8496" y1="-802.0844" x2="-4535.8008" y2="-738.8729" gradientTransform="matrix(1 0 0 -1 0 559.3721)">
	<stop  offset="0.1559" style="stop-color:#9F3224"/>
	<stop  offset="0.2316" style="stop-color:#B23A2C"/>
	<stop  offset="0.3259" style="stop-color:#C44132"/>
	<stop  offset="0.4319" style="stop-color:#D24636"/>
	<stop  offset="0.5547" style="stop-color:#DC4939"/>
	<stop  offset="0.7094" style="stop-color:#E34B3B"/>
	<stop  offset="0.9995" style="stop-color:#E64C3C"/>
</linearGradient>
<path class="st35" d="M-4535.7,1298.5c-0.6-0.5-1.2-1-1.8-1.6c0,0,0,0-0.1-0.1c-4.8-4.3-7.3-7.4-7.3-7.4l0,0
	c-9.3-9.4-18.6-18.8-28.1-27.9c-10.1-9.7-21.8-13.5-34.4-11c-31.4,6.3-42.7,45.6-20,68.3c32.2,32.2,64.4,64.4,96.6,96.7
	c1.8,1.8,4.6,1.8,6.4,0c13.4-13.4,26.8-26.9,40.3-40.3c19.3-19.3,38.6-38.6,57.8-57.9c2.2-2.2,4.1-4.6,5.6-7.1
	c0.4-0.6-0.3-1.3-0.9-0.9C-4473.3,1343.4-4517.3,1314.6-4535.7,1298.5z"/>
<path class="st24" d="M-4537.6,1296.8c-2.5-2.5-4.9-4.9-7.3-7.4l0,0C-4544.9,1289.4-4542.4,1292.5-4537.6,1296.8z"/>
<radialGradient id="SVGID_28_" cx="-3680.7896" cy="-1119.1639" r="51.875" gradientTransform="matrix(1 0 0 -1 0 559.3721)" gradientUnits="userSpaceOnUse">
	<stop  offset="0" style="stop-color:#F5DB91"/>
	<stop  offset="1" style="stop-color:#F2D067"/>
</radialGradient>
<path class="st36" d="M-3632.1,1670.8l-40.9-40.9c-4.3-4.3-11.2-4.3-15.5,0l-40.9,40.9c-4.3,4.3-4.3,11.2,0,15.5l40.9,40.9
	c4.3,4.3,11.2,4.3,15.5,0l40.9-40.9C-3627.8,1682.1-3627.8,1675.1-3632.1,1670.8z M-3700.1,1681.7c-1.8,1.8-4.8,1.8-6.7,0
	c-1.8-1.8-1.8-4.8,0-6.7c1.8-1.8,4.8-1.8,6.7,0C-3698.2,1676.9-3698.2,1679.8-3700.1,1681.7z M-3684.3,1652.6c1.8-1.8,4.8-1.8,6.7,0
	c1.8,1.8,1.8,4.8,0,6.7c-1.8,1.8-4.8,1.8-6.7,0C-3686.1,1657.4-3686.1,1654.4-3684.3,1652.6z M-3684.1,1675.2c1.8-1.8,4.8-1.8,6.7,0
	c1.8,1.8,1.8,4.8,0,6.7c-1.8,1.8-4.8,1.8-6.7,0C-3685.9,1680-3685.9,1677.1-3684.1,1675.2z M-3677.4,1704.4c-1.8,1.8-4.8,1.8-6.7,0
	c-1.8-1.8-1.8-4.8,0-6.7c1.8-1.8,4.8-1.8,6.7,0C-3675.5,1699.5-3675.5,1702.5-3677.4,1704.4z M-3654.9,1681.9
	c-1.8,1.8-4.8,1.8-6.7,0c-1.8-1.8-1.8-4.8,0-6.7c1.8-1.8,4.8-1.8,6.7,0C-3653.1,1677.1-3653.1,1680.1-3654.9,1681.9z"/>
<path class="st24" d="M-3719.6,1773.5"/>
<path class="st4" d="M-3690.2,1744.1c0.6,0.6,1.2,1.1,1.8,1.6C-3689,1745.2-3689.7,1744.6-3690.2,1744.1
	C-3690.3,1744.1-3690.2,1744.1-3690.2,1744.1z"/>
<radialGradient id="SVGID_29_" cx="-3679.9453" cy="-1221.2153" r="98.8829" gradientTransform="matrix(1 0 0 -1 0 559.3721)" gradientUnits="userSpaceOnUse">
	<stop  offset="0" style="stop-color:#F5DB91"/>
	<stop  offset="1" style="stop-color:#F2D067"/>
</radialGradient>
<path class="st37" d="M-3601.3,1697.7c-12.7-1.9-24.1,1.6-33.4,10.7c-12.1,11.8-23.9,23.8-35.9,35.8c-5.7,5.7-12,6.2-17.8,1.6
	c0.3,0.3,0.6,0.5,0.9,0.8c-0.3-0.3-0.6-0.5-0.9-0.8c-0.6-0.5-1.2-1-1.8-1.6c0,0,0,0-0.1-0.1c-4.8-4.3-7.3-7.4-7.3-7.4l0,0
	c-9.3-9.4-18.6-18.8-28.1-27.9c-10.1-9.7-21.8-13.5-34.4-11c-31.4,6.3-42.7,45.6-20,68.3c32.2,32.2,64.4,64.4,96.6,96.7
	c1.8,1.8,4.6,1.8,6.4,0c13.4-13.4,26.8-26.9,40.3-40.3c19.3-19.3,38.6-38.6,57.8-57.9c2.2-2.2,4.1-4.6,5.6-7.1
	c0.4-0.6-0.3-1.3-0.9-0.9c0,0-0.1,0-0.1,0.1c0.8-0.5,1.6-1.1,2.4-1.6l0,0l1.5-3.3c1.9-4.8,2.8-10.1,2.7-16.1
	C-3567,1719.4-3580.5,1700.7-3601.3,1697.7z M-3580.4,1760.2c-0.4,0.2-0.8,0.5-1.3,0.7C-3581.3,1760.7-3580.9,1760.5-3580.4,1760.2z
	 M-3582.8,1761.6c-0.4,0.2-0.8,0.5-1.3,0.7C-3583.7,1762-3583.3,1761.8-3582.8,1761.6z M-3585.2,1762.8c-0.4,0.2-0.8,0.4-1.2,0.6
	C-3586.1,1763.2-3585.7,1763-3585.2,1762.8z M-3587.6,1764c-0.4,0.2-0.8,0.4-1.2,0.6C-3588.4,1764.4-3588,1764.2-3587.6,1764z
	 M-3590,1765.1c-0.4,0.2-0.8,0.4-1.2,0.5C-3590.8,1765.4-3590.4,1765.2-3590,1765.1z M-3592.3,1766.1c-0.4,0.2-0.8,0.3-1.2,0.5
	C-3593.1,1766.4-3592.7,1766.2-3592.3,1766.1z M-3594.7,1767c-0.4,0.2-0.8,0.3-1.2,0.4C-3595.5,1767.3-3595.1,1767.1-3594.7,1767z
	 M-3597,1767.8c-0.4,0.1-0.8,0.3-1.2,0.4C-3597.8,1768.1-3597.4,1768-3597,1767.8z M-3599.3,1768.6c-0.4,0.1-0.8,0.2-1.2,0.4
	C-3600.1,1768.8-3599.7,1768.7-3599.3,1768.6z M-3601.6,1769.3c-0.4,0.1-0.8,0.2-1.2,0.3C-3602.4,1769.5-3602,1769.4-3601.6,1769.3z
	 M-3603.9,1769.9c-0.4,0.1-0.8,0.2-1.2,0.3C-3604.6,1770.1-3604.2,1770-3603.9,1769.9z M-3606.1,1770.4c-0.4,0.1-0.8,0.2-1.1,0.3
	C-3606.9,1770.6-3606.5,1770.5-3606.1,1770.4z M-3652.4,1767.3c-0.3-0.1-0.6-0.2-0.9-0.3C-3653,1767.1-3652.7,1767.2-3652.4,1767.3z
	 M-3633.7,1771.8c-0.3,0-0.7-0.1-1-0.1C-3634.4,1771.8-3634.1,1771.8-3633.7,1771.8z M-3635.7,1771.6c-0.3,0-0.7-0.1-1-0.2
	C-3636.4,1771.5-3636,1771.5-3635.7,1771.6z M-3637.7,1771.3c-0.3-0.1-0.7-0.1-1-0.2C-3638.3,1771.1-3638,1771.2-3637.7,1771.3z
	 M-3639.6,1770.9c-0.3-0.1-0.6-0.1-1-0.2C-3640.2,1770.8-3639.9,1770.8-3639.6,1770.9z M-3641.5,1770.5c-0.3-0.1-0.6-0.1-1-0.2
	C-3642.1,1770.4-3641.8,1770.4-3641.5,1770.5z M-3643.4,1770.1c-0.3-0.1-0.6-0.2-1-0.2C-3644,1769.9-3643.7,1770-3643.4,1770.1z
	 M-3645.2,1769.6c-0.3-0.1-0.6-0.2-0.9-0.3C-3645.9,1769.4-3645.5,1769.5-3645.2,1769.6z M-3647.1,1769.1c-0.3-0.1-0.6-0.2-0.9-0.3
	C-3647.7,1768.9-3647.4,1769-3647.1,1769.1z M-3648.9,1768.5c-0.3-0.1-0.6-0.2-0.9-0.3C-3649.5,1768.3-3649.2,1768.4-3648.9,1768.5z
	 M-3650.7,1768c-0.3-0.1-0.6-0.2-0.9-0.3C-3651.3,1767.7-3651,1767.9-3650.7,1768z M-3669.9,1759.1c-0.3-0.1-0.5-0.3-0.7-0.4
	C-3670.4,1758.8-3670.1,1759-3669.9,1759.1z M-3654.1,1766.7c-0.3-0.1-0.6-0.2-0.9-0.3C-3654.7,1766.5-3654.4,1766.6-3654.1,1766.7z
	 M-3655.8,1766c-0.3-0.1-0.6-0.2-0.9-0.4C-3656.4,1765.8-3656.1,1765.9-3655.8,1766z M-3657.5,1765.4c-0.3-0.1-0.6-0.2-0.8-0.4
	C-3658.1,1765.1-3657.8,1765.2-3657.5,1765.4z M-3659.2,1764.6c-0.3-0.1-0.6-0.3-0.8-0.4
	C-3659.7,1764.4-3659.4,1764.5-3659.2,1764.6z M-3660.8,1763.9c-0.3-0.1-0.6-0.3-0.8-0.4
	C-3661.3,1763.6-3661.1,1763.8-3660.8,1763.9z M-3662.4,1763.1c-0.3-0.1-0.5-0.3-0.8-0.4C-3662.9,1762.9-3662.6,1763-3662.4,1763.1z
	 M-3663.9,1762.4c-0.3-0.1-0.5-0.3-0.8-0.4C-3664.5,1762.1-3664.2,1762.2-3663.9,1762.4z M-3665.5,1761.6c-0.3-0.1-0.5-0.3-0.8-0.4
	C-3666,1761.3-3665.7,1761.4-3665.5,1761.6z M-3667,1760.8c-0.3-0.1-0.5-0.3-0.8-0.4C-3667.5,1760.5-3667.2,1760.6-3667,1760.8z
	 M-3668.4,1760c-0.3-0.1-0.5-0.3-0.7-0.4C-3668.9,1759.7-3668.7,1759.8-3668.4,1760z M-3687.3,1746.7c0.3,0.2,0.5,0.4,0.8,0.7
	C-3686.8,1747.1-3687.1,1746.9-3687.3,1746.7z M-3686.2,1747.6c0.2,0.2,0.4,0.3,0.6,0.5C-3685.8,1748-3686,1747.8-3686.2,1747.6z
	 M-3685.2,1748.5c0.2,0.2,0.4,0.3,0.6,0.5C-3684.8,1748.8-3685,1748.6-3685.2,1748.5z M-3684.1,1749.3c0.2,0.2,0.4,0.3,0.6,0.5
	C-3683.8,1749.6-3683.9,1749.5-3684.1,1749.3z M-3680.9,1751.8c0.2,0.2,0.4,0.3,0.6,0.5C-3680.4,1752.1-3680.6,1752-3680.9,1751.8z
	 M-3683.1,1750.1c0.2,0.2,0.4,0.3,0.6,0.5C-3682.7,1750.5-3682.9,1750.3-3683.1,1750.1z M-3682,1751c0.2,0.2,0.4,0.3,0.6,0.5
	C-3681.6,1751.3-3681.8,1751.1-3682,1751z M-3677.3,1754.4c0.2,0.2,0.4,0.3,0.7,0.5C-3676.8,1754.7-3677,1754.6-3677.3,1754.4z
	 M-3679.7,1752.7c0.2,0.2,0.4,0.3,0.6,0.5C-3679.3,1753-3679.5,1752.8-3679.7,1752.7z M-3678.5,1753.6c0.2,0.2,0.4,0.3,0.6,0.5
	C-3678.1,1753.9-3678.3,1753.7-3678.5,1753.6z M-3671.3,1758.3c-0.2-0.1-0.5-0.3-0.7-0.5C-3671.8,1758-3671.5,1758.1-3671.3,1758.3z
	 M-3672.7,1757.4c-0.2-0.2-0.5-0.3-0.7-0.5C-3673.1,1757.1-3672.9,1757.3-3672.7,1757.4z M-3674,1756.6c-0.2-0.2-0.5-0.3-0.7-0.5
	C-3674.5,1756.3-3674.2,1756.4-3674,1756.6z M-3675.3,1755.7c-0.2-0.1-0.4-0.3-0.7-0.4C-3675.8,1755.4-3675.5,1755.6-3675.3,1755.7z
	 M-3624.6,1772.4c0.4,0,0.7,0,1.1,0C-3623.9,1772.4-3624.2,1772.4-3624.6,1772.4z M-3632.7,1772c0.3,0,0.7,0.1,1,0.1
	C-3632.1,1772-3632.4,1772-3632.7,1772z M-3630.7,1772.2c0.3,0,0.7,0.1,1,0.1C-3630,1772.2-3630.4,1772.2-3630.7,1772.2z
	 M-3628.7,1772.3c0.3,0,0.7,0,1,0.1C-3628,1772.3-3628.4,1772.3-3628.7,1772.3z M-3626.6,1772.4c0.4,0,0.7,0,1.1,0
	C-3625.9,1772.4-3626.3,1772.4-3626.6,1772.4z M-3608.4,1770.9c-0.4,0.1-0.8,0.2-1.1,0.2C-3609.1,1771.1-3608.7,1771-3608.4,1770.9z
	 M-3610.6,1771.3c-0.4,0.1-0.8,0.1-1.1,0.2C-3611.3,1771.5-3611,1771.4-3610.6,1771.3z M-3612.8,1771.7c-0.4,0.1-0.7,0.1-1.1,0.2
	C-3613.5,1771.8-3613.2,1771.7-3612.8,1771.7z M-3615,1771.9c-0.4,0-0.7,0.1-1.1,0.1C-3615.7,1772-3615.3,1772-3615,1771.9z
	 M-3617.1,1772.2c-0.4,0-0.7,0.1-1.1,0.1C-3617.9,1772.2-3617.5,1772.2-3617.1,1772.2z M-3619.3,1772.3c-0.4,0-0.7,0-1.1,0.1
	C-3620,1772.4-3619.6,1772.3-3619.3,1772.3z M-3621.4,1772.4c-0.4,0-0.7,0-1.1,0C-3622.1,1772.4-3621.8,1772.4-3621.4,1772.4z
	 M-3579.3,1759.6c0.4-0.2,0.8-0.5,1.3-0.8C-3578.5,1759-3578.9,1759.3-3579.3,1759.6z M-3576.9,1758.1c0.4-0.3,0.9-0.6,1.3-0.8
	C-3576,1757.5-3576.4,1757.8-3576.9,1758.1z"/>
<path class="st24" d="M-3690.3,1744.1c-2.5-2.5-4.9-4.9-7.3-7.4l0,0C-3697.6,1736.7-3695,1739.7-3690.3,1744.1z"/>
<g>
	<path d="M-4077.5,179.2l-3.7-7l-3.4-6.2c-2.3-4.1-4.6-8.3-7-12.4c-4.8-8.2-9.8-16.3-14.9-24.3c-10.3-16-21.2-31.7-32.8-46.7
		c-11.7-15-24-29.4-37.3-42.8c-13.3-13.4-27.5-25.9-42.8-36.7c-7.7-5.4-15.6-10.3-23.8-14.7c-8.2-4.4-16.7-8.1-25.4-11.1
		c-17.4-5.9-35.8-8.7-54.1-7.4l-3.4,0.3l-1.7,0.1l-1.7,0.2c-2.3,0.4-4.5,0.6-6.8,1l-6.7,1.4l-6.6,1.8c-8.8,2.6-17.4,6.2-25.6,10.4
		l-6.1,3.3c-2,1.1-4,2.4-6,3.6l-3,1.8l-2.9,2c-1.9,1.3-3.9,2.6-5.8,4c-7.6,5.6-14.7,11.6-21.6,18c-6.7,6.5-12.9,13.4-18.7,20.8
		c-5.6,7.4-10.7,15.2-15.2,23.3c-4.5,8.1-8.1,16.7-11.2,25.4l-1.1,3.3c-0.4,1.1-0.7,2.2-1,3.3l-1.9,6.7c-1,4.5-2.1,9-2.8,13.6
		c-1.5,9.1-2.5,18.4-2.6,27.7c-0.1,2.3,0,4.6,0,7c0,2.3,0,4.6,0.2,7l0.4,7l0.7,6.9c0.2,2.3,0.6,4.6,0.9,6.9c0.3,2.3,0.6,4.6,1.1,6.9
		l1.3,6.9l1.6,6.8c0.5,2.3,1.1,4.5,1.8,6.8c0.6,2.2,1.2,4.5,1.9,6.8l2.1,6.7l0.5,1.7l0.6,1.7l1.2,3.3c6.3,17.7,14.5,34.7,23.9,51
		c9.4,16.4,20.2,32,31.8,46.9c23.3,29.8,50.3,56.8,79.4,81.2c29.1,24.4,60.5,46.2,93.1,65.9c32.6,19.8,66.6,37.1,101.4,52.8
		c17.4,7.8,35.1,15.1,52.8,22c8.9,3.4,17.9,6.8,26.7,9.9c8.9,3.1,17.8,6,26.8,8.7c8.9,2.7,17.9,5,26.8,7c8.9,2,17.9,3.4,26.6,4.3
		l3.3,0.3l3.2,0.2c2.2,0.2,4.3,0.2,6.4,0.3c4.2,0,8.3-0.1,12.3-0.5c7.9-0.9,15-2.8,20.3-6c5.3-3.1,8.9-7.2,11.6-12.9
		c2.6-5.7,4-13.1,4.2-21.1s-0.5-16.6-1.9-25.3c-0.7-4.3-1.6-8.7-2.6-13.1c-1-4.4-2.1-8.8-3.3-13.2c-4.9-17.6-11.3-35.3-18.5-52.7
		s-15.1-34.8-23.5-51.9c-16.8-34.3-35.4-67.9-55-100.9c-9.9-16.5-20-32.9-30.4-49.1c-5.2-8.1-10.5-16.1-15.8-24.2l-8-12
		L-4077.5,179.2z M-4055.2,165.5c0.2,0.2,0.4,0.5,0.6,0.7l1.1,1.4l2.2,3l4.3,6l8.5,11.9c5.6,8,11.2,16,16.7,24.1
		c11,16.1,21.9,32.4,32.4,48.8c21.2,32.9,41.4,66.4,60,101.2c9.2,17.4,18,35.1,26,53.3c4,9.1,7.8,18.4,11.4,27.8
		c3.6,9.4,6.9,19,9.7,28.8c1.4,4.9,2.8,9.9,4,14.9s2.3,10.2,3.2,15.4c1.8,10.4,2.9,21.2,2.6,32.6c-0.2,5.7-0.7,11.5-1.9,17.4
		s-3,12-5.7,18c-2.7,5.9-6.4,11.7-11,16.8s-10,9.4-15.8,12.7c-5.7,3.3-11.7,5.6-17.6,7.3c-5.9,1.6-11.7,2.6-17.4,3.2
		c-5.7,0.6-11.3,0.7-16.7,0.6c-2.7-0.1-5.5-0.2-8.1-0.4l-4-0.3l-4-0.4c-10.5-1.2-20.7-3.1-30.7-5.4c-10-2.3-19.7-5.1-29.3-8.1
		s-19-6.3-28.3-9.8s-18.4-7.2-27.5-10.9c-18.2-7.5-36.2-15.5-54-24c-17.8-8.5-35.2-17.6-52.5-27.2c-17.2-9.5-34.2-19.7-50.7-30.4
		c-33.1-21.4-64.8-45.2-94.3-71.6c-29.4-26.4-56.6-55.5-80.1-87.5c-11.7-16-22.6-32.7-31.9-50.3c-9.4-17.5-17.6-35.8-23.9-54.8
		l-1.2-3.6l-0.6-1.8l-0.5-1.8l-2.1-7.2c-0.7-2.4-1.3-4.9-1.9-7.3c-0.6-2.4-1.2-4.9-1.7-7.3l-1.5-7.4l-1.3-7.4
		c-0.5-2.5-0.7-5-1.1-7.5c-0.3-2.5-0.7-5-0.9-7.5c-1.9-20-1.4-40.4,2.4-60.3c0.9-5,2.1-9.9,3.3-14.8l2.2-7.3
		c0.3-1.2,0.8-2.4,1.2-3.6l1.3-3.6c0.4-1.2,0.8-2.4,1.3-3.6l1.4-3.5c1-2.3,1.9-4.7,3-7s2.1-4.6,3.3-6.9l3.6-6.7
		c5-8.8,10.6-17.2,16.8-25.2c6.3-7.9,13.1-15.3,20.4-22.2c7.3-6.9,15.1-13.2,23.1-19.1c8.2-5.8,16.6-11.3,25.6-15.9
		s18.4-8.6,28.1-11.6s19.8-5,30-5.9c10.2-0.9,20.5-0.8,30.7,0.4c10.2,1.2,20.2,3.4,29.9,6.5c19.5,6,37.6,15.4,54.3,26.3
		c16.8,10.9,32.3,23.6,46.8,37.2s28,28.2,40.6,43.4c12.6,15.2,24.5,31,35.6,47.3c5.6,8.2,10.9,16.4,16.1,24.8
		c2.6,4.2,5.2,8.4,7.7,12.7c1.3,2.1,2.5,4.3,3.7,6.5l1.8,3.3l0.9,1.7L-4055.2,165.5l0.2,0.4C-4054.8,166.3-4054.9,166-4055.2,165.5z
		"/>
</g>
<g>
	<path d="M-3877.2,423l3.3-2.7l2.7-2.2l5.4-4.6c3.6-3.1,7.2-6.2,10.7-9.4c7.1-6.4,14-12.9,20.8-19.6c13.6-13.3,26.5-27.3,38.7-41.8
		s23.5-29.6,33.7-45.3s19.1-32,26.2-48.9c7-16.8,12.2-34.2,14.2-51.6c1-8.7,1.3-17.3,0.7-25.8s-2.1-16.9-4.3-25
		c-2.3-8.1-5.4-16-9.4-23.5s-8.7-14.7-14-21.5l-4.1-5c-1.4-1.7-2.9-3.2-4.4-4.9l-2.2-2.4l-2.3-2.3c-1.6-1.5-3.1-3.1-4.7-4.6
		c-6.5-6.1-13.3-11.8-20.4-17c-7.2-5.1-14.6-9.8-22.3-13.9c-7.7-4-15.7-7.4-23.9-10.2l-6.2-2c-2.1-0.6-4.2-1.1-6.3-1.7
		s-4.2-1-6.3-1.4l-3.2-0.7c-1.1-0.2-2.1-0.3-3.2-0.5l-3.2-0.5c-1.1-0.2-2.1-0.4-3.2-0.4l-6.5-0.7c-4.3-0.3-8.7-0.6-13-0.5
		c-17.4-0.2-35,2.6-52.1,7.4c-17.1,4.9-33.8,12-49.7,20.7c-16,8.7-31.2,19.1-45.6,30.6c-14.5,11.5-28,24.3-40.9,37.8
		c-25.8,27-48.4,57.4-68.4,89.6s-37.1,66.3-52,101.4c-14.9,35.1-27.3,71.4-37.7,108.3c-5.1,18.5-9.8,37.1-14,55.8
		c-2,9.4-4.1,18.8-5.8,28.2c-1.7,9.4-3.3,18.8-4.6,28.2c-1.3,9.4-2.3,18.8-2.8,28.2s-0.7,18.8-0.1,28l0.2,3.5l0.3,3.4
		c0.2,2.3,0.5,4.5,0.8,6.8c0.7,4.5,1.6,8.9,2.8,13.2c2.4,8.5,5.9,16.6,11.1,22.8c5.2,6.3,12,10.6,20,12.7c8,2.1,16.9,2.1,25.8,0.9
		c8.9-1.3,17.9-3.7,26.7-6.8c4.4-1.5,8.8-3.3,13.1-5.1c4.3-1.8,8.6-3.8,12.9-5.9c17-8.3,33.5-18.1,49.5-28.7
		c16-10.5,31.5-21.9,46.7-33.7c30.4-23.6,59.4-49.1,87.6-75.3c14.1-13.1,28.1-26.5,41.8-40c6.9-6.8,13.7-13.6,20.5-20.4l10.1-10.3
		L-3877.2,423z M-3862,440.1c-0.2,0.3-0.5,0.5-0.7,0.7l-1.3,1.3l-2.6,2.6l-5.2,5.1l-10.5,10.2c-7,6.7-14.1,13.4-21.3,20.1
		c-14.3,13.2-28.8,26.2-43.5,39c-14.7,12.8-29.6,25.3-44.8,37.6c-15.2,12.2-30.5,24.3-46.2,35.9c-15.7,11.7-31.7,22.9-48.1,33.6
		c-8.2,5.3-16.6,10.5-25.1,15.5s-17.2,9.7-26.1,14.1c-4.4,2.2-8.9,4.3-13.5,6.3s-9.2,3.9-13.9,5.6c-9.4,3.5-19.2,6.3-29.5,7.9
		c-5.1,0.8-10.4,1.3-15.7,1.2c-5.4-0.1-10.8-0.7-16.2-2c-5.4-1.4-10.7-3.5-15.6-6.5c-4.9-3-9.3-6.8-12.9-11c-3.7-4.3-6.7-9-9.1-13.8
		c-2.4-4.9-4.3-9.9-5.8-14.9s-2.6-10.1-3.5-15.2c-0.4-2.5-0.8-5.1-1.1-7.6l-0.4-3.8l-0.3-3.8c-1.6-20.2-0.5-40.1,1.6-59.8
		c1.1-9.8,2.4-19.6,3.9-29.3c1.6-9.7,3.4-19.3,5.1-28.9c3.7-19.2,7.8-38.4,12.5-57.4c9.5-38,20.8-75.7,34.9-112.5
		c14-36.8,30.6-72.7,50.3-107.2c19.7-34.4,42.8-67.2,69.6-97.1c1.7-1.9,3.3-3.7,5.1-5.6l5.2-5.5c3.4-3.7,7.1-7.2,10.7-10.7
		c1.8-1.8,3.7-3.5,5.5-5.2l5.6-5.2l5.7-5c1.9-1.7,3.8-3.3,5.8-4.9c15.6-13,32.3-24.9,50.2-35.1c4.4-2.6,9-5,13.6-7.3
		c2.3-1.2,4.7-2.2,7-3.4c2.3-1.1,4.7-2.2,7.1-3.2l7.2-3l7.3-2.8c2.4-1,4.9-1.7,7.4-2.6c2.5-0.8,4.9-1.7,7.5-2.4l7.6-2.2l7.7-1.8
		c2.5-0.7,5.2-1.1,7.7-1.6c2.6-0.5,5.2-1,7.8-1.4c10.4-1.7,21.1-2.4,31.8-2.5c5.3-0.1,10.7,0.3,16,0.6l8,0.8c1.3,0.1,2.7,0.3,4,0.5
		l4,0.6c1.3,0.2,2.7,0.4,4,0.6l3.9,0.8c2.6,0.6,5.3,1,7.8,1.8c2.6,0.7,5.2,1.3,7.8,2.1l7.7,2.4c10.2,3.5,20,7.7,29.4,12.7
		c9.4,5.1,18.4,10.8,26.9,17c4.2,3.2,8.4,6.4,12.3,9.9c4.1,3.3,7.8,7,11.7,10.6c1.9,1.8,3.7,3.8,5.5,5.7l2.8,2.8l2.6,3
		c1.7,2,3.5,4,5.2,6l5,6.3c6.4,8.6,12.2,17.8,17,27.6l3.5,7.4l3,7.6c1,2.6,1.7,5.2,2.6,7.8l0.6,2l0.5,2l1,4
		c2.7,10.6,4.1,21.5,4.5,32.4c0.4,10.8-0.4,21.6-2,32.1s-4.2,20.8-7.4,30.7c-3.2,9.9-7.1,19.5-11.4,28.8
		c-8.7,18.6-19.2,36-30.8,52.4s-24.2,31.9-37.5,46.6c-13.3,14.7-27.3,28.7-41.7,42.1c-7.2,6.7-14.6,13.3-22.1,19.6
		c-3.8,3.2-7.6,6.3-11.4,9.5c-1.9,1.6-3.9,3.1-5.8,4.6l-3,2.3l-1.5,1.1l-0.8,0.6l-0.4,0.3C-3862.6,440.5-3862.4,440.4-3862,440.1z"
		/>
</g>
<linearGradient id="SVGID_30_" gradientUnits="userSpaceOnUse" x1="-7193.1255" y1="353.6448" x2="-6649.2363" y2="1072.0276" gradientTransform="matrix(0.9997 2.304294e-02 2.304294e-02 -0.9997 -330.7037 490.1385)">
	<stop  offset="0" style="stop-color:#F6AD34"/>
	<stop  offset="0.1192" style="stop-color:#F5A443"/>
	<stop  offset="0.3545" style="stop-color:#F28D5F"/>
	<stop  offset="0.6795" style="stop-color:#EF6576"/>
	<stop  offset="1" style="stop-color:#ED0F81"/>
</linearGradient>
<path class="st38" d="M-6777.9-143.8c3.4-149.5-111.5-274.2-259.2-284.4v-0.3l-97.5-2.2c-21.7-0.5-38.9-18.5-38.4-40.3l2.6-114.1
	h-1.2c-9.2-140.5-122.9-253.5-265.5-259.8c-156.9-7-287.5,119.9-291.2,276.9l-9.6,415h0.3c3.1,138.3,107.4,252.7,243.1,269.9
	l440.6,11.7v-0.2C-6904,127-6781.4,7-6777.9-143.8z"/>
<path class="st39" d="M-7204.8,128.3c-27.3,0-54.6-0.4-81.9,0.1c-16.8,0.3-29.6-6.1-38.5-20c-13.2-20.6-25.6-41.7-38.8-62.3
	c-9.9-15.5-19.9-30.9-30.8-45.6c-9.7-13.1-19-13-28.9,0.2c-10.5,14.1-20.2,28.7-29.6,43.5c-12.6,19.8-24.6,40.1-36.8,60.1
	c-10.1,16.6-24.2,24.4-44.2,24.1c-54-0.7-108-0.2-162.1-0.4c-6.8,0-13.8-1-20.5-2.4c-8.2-1.7-12.8-7.4-14-15.6
	c-2-14,0.9-27.6,4.4-40.9c10-38.1,27.6-73,46.3-107.3c20-36.8,40.8-73.1,60.4-110.1c6.3-11.9,9.9-25.2,14.1-38.1
	c2-6.3-0.5-12.4-6.8-14.7c-8-3-16.5-5.7-24.9-6.4c-18.7-1.6-37.6-1.3-56.3-2.8c-17.7-1.4-34.9-4.9-48.9-17.1
	c-19.2-16.9-24.9-51.6-12.6-76.1c9.1-18.2,23.5-31.6,39.8-43.1c33.6-23.9,71.3-39.6,109.9-53.4c22.3-8,45-14.7,67.3-22.6
	c18.7-6.5,15-3,16.2-21.5c1.8-27.6,5.5-54.7,18.3-79.6c16.1-31.4,42.4-48,77-52.2c26.9-3.3,52.9-0.4,76.8,13.5
	c23.4,13.6,36.2,35.1,44.2,60.1c6.6,20.7,8.9,42.1,9.4,63.7c0.2,7.5,2.6,11.6,9.7,13.9c21.4,6.8,42.8,13.9,64,21.2
	c34.7,12,68.8,25.6,100.5,44.5c21,12.5,40.7,26.6,54.3,47.7c15.3,23.6,15.2,55-0.6,76.4c-9.8,13.3-23.9,19.9-39.8,22.3
	c-13.4,2-27.1,2.7-40.7,3.8c-15.5,1.3-31.2,1.5-46.6,3.8c-15.4,2.2-20.5,10.6-15.5,25.4c4.9,14.3,10.8,28.4,17.9,41.8
	c22.5,42.2,46.2,83.7,68.4,125.9c16.6,31.5,30.6,64.2,36.6,99.6c1.2,7.3,1.3,14.9,0.8,22.4c-0.5,8.4-5.7,13.9-13.8,15.8
	c-6.5,1.5-13.3,2.4-19.9,2.5C-7149,128.5-7176.9,128.3-7204.8,128.3z"/>
<linearGradient id="SVGID_31_" gradientUnits="userSpaceOnUse" x1="-6236.1245" y1="-145.5388" x2="-5442.856" y2="395.0372" gradientTransform="matrix(1 0 0 -1 0 559.3721)">
	<stop  offset="0" style="stop-color:#F6AD34"/>
	<stop  offset="0.1192" style="stop-color:#F5A443"/>
	<stop  offset="0.3545" style="stop-color:#F28D5F"/>
	<stop  offset="0.6795" style="stop-color:#EF6576"/>
	<stop  offset="1" style="stop-color:#ED0F81"/>
</linearGradient>
<path class="st40" d="M-5957.5,954l-181.9-4.8c-1.7-0.2-3.5-0.5-5.2-0.7c3.4-3.3,6.5-7.1,9.3-11.7c12.2-20.1,24.2-40.3,36.8-60.1
	c9.4-14.8,19.1-29.5,29.6-43.5c9.9-13.3,19.2-13.4,28.9-0.2c10.9,14.7,20.9,30.1,30.8,45.6c13.2,20.6,25.7,41.7,38.8,62.3
	C-5966.6,946.4-5962.4,950.8-5957.5,954z M-6325.3,794.1c20-36.8,40.8-73.1,60.4-110.1c6.3-11.9,9.9-25.2,14.1-38.1
	c2-6.3-0.5-12.4-6.8-14.7c-8-3-16.5-5.7-24.9-6.4c-18.7-1.6-37.6-1.3-56.3-2.8c-15-1.2-29.7-3.9-42.3-12.2l-1.6,69.4h0.3
	c1.2,52,16.7,100.7,42.8,142C-6335,812.2-6330.2,803.1-6325.3,794.1z M-5682.1,404.1v-0.3l-97.5-2.2c-21.7-0.5-38.9-18.5-38.4-40.3
	l2.6-114.1h-1.2c-9.2-140.5-122.9-253.5-265.5-259.8c-156.9-7-287.5,119.9-291.2,276.9l-5.4,236c5.6-5.3,11.7-10.1,18.1-14.7
	c33.6-23.9,71.3-39.6,109.9-53.4c22.3-8,45-14.7,67.3-22.6c18.7-6.5,15-3,16.2-21.5c1.8-27.6,5.5-54.7,18.3-79.6
	c16.1-31.4,42.4-48,77-52.2c26.9-3.3,52.9-0.4,76.8,13.5c23.4,13.6,36.2,35.1,44.2,60.1c6.6,20.7,8.9,42.1,9.4,63.7
	c0.2,7.5,2.6,11.6,9.7,13.9c21.4,6.8,42.8,13.9,64,21.2c34.7,12,68.8,25.6,100.5,44.5c21,12.5,40.7,26.6,54.3,47.7
	c15.3,23.6,15.2,55-0.6,76.4c-9.8,13.3-23.9,19.9-39.8,22.3c-13.4,2-27.1,2.7-40.7,3.8c-15.5,1.3-31.2,1.5-46.6,3.8
	c-15.4,2.2-20.5,10.6-15.5,25.4c4.9,14.3,10.8,28.4,17.9,41.8c22.5,42.2,46.2,83.7,68.4,125.9c16.6,31.5,30.6,64.2,36.6,99.6
	c1.2,7.3,1.3,14.9,0.8,22.4c-0.5,8.4-5.7,13.9-13.8,15.8c-2.4,0.6-4.9,1-7.4,1.4l54.8,1.5v-0.2c149.7-1.4,272.4-121.3,275.9-272.1
	C-5419.4,539-5534.4,414.3-5682.1,404.1z"/>
<path id="Path_68_1_" class="st41" d="M-703.5,674.4l-155.8,23.3c-1.5,0.1-3,0.2-4.5,0.2c2.6-3.5,4.6-7.4,6.2-11.4
	c7.4-18.9,14.6-38,22.3-56.8c5.8-14.1,11.9-28,18.7-41.6c6.4-12.8,14.3-14.3,24.6-4.5c11.5,10.9,22.4,22.6,33.2,34.3
	c14.3,15.6,28.2,31.7,42.5,47.3C-712.7,669-708.3,672.3-703.5,674.4z M-1041.3,593.5c11.5-34.4,23.8-68.5,34.9-103
	c3.1-11.4,5.2-22.9,6.3-34.6c1.1-5.3-2.3-10.4-7.7-11.4c-0.2,0-0.2-0.1-0.4-0.1c-7.3-1.6-14.8-2.1-22.2-1.7
	c-16.1,1.4-32.2,4.5-48.4,6.1c-12.8,1.9-25.8,0.5-37.9-4l9.1,59.5l0.3-0.1c8.5,42.7,28.5,82.5,57.9,114.7
	C-1046.9,610.4-1044.1,601.9-1041.3,593.5L-1041.3,593.5z M-551.4,163.9l-0.1-0.3l-83.4,12.7c-18.6,2.9-36-9.9-38.9-28.6l-14.9-97.7
	l-1,0.2c-29.3-119.3-143.7-197.5-265.6-181.6c-134.8,17.7-227.2,145.6-206.6,280l30.9,202.2c4.1-5.4,8.5-10.5,13.3-15.2
	c25.1-25.5,54.9-44.6,85.7-62.1c17.8-10.2,36.2-19.3,54-29.4c14.9-8.3,12.4-4.8,10.6-20.8c-2.7-23.8-3.6-47.4,3.6-70.7
	c9-29.2,29-47.3,57.8-56.1c21.9-7.6,45.6-7.6,67.5-0.1c22,8,36.2,24.5,46.8,44.6c8.4,16.7,14.3,34.5,17.6,52.9
	c0.3,5.6,4.8,10.1,10.4,10.4c19.3,2.6,38.6,5.4,57.8,8.4c31.5,4.4,62.4,12.1,92.4,22.8c19.8,7.5,38.7,16.5,53.5,32.4
	c16.6,17.5,20.9,43.4,11,65.3c-6.4,12.2-17.4,21.2-30.5,25c-11.1,3.8-22.7,6.4-34.1,9.3c-13,3.4-26.4,6-39.2,10.2
	c-12.8,4.2-15.9,12.1-9.4,24c6.3,11.5,13.5,22.6,21.5,33c25.5,32.6,52,64.4,77.4,97.1c19.6,23.9,35.2,50.7,46.2,79.4
	c2,6.1,3.4,12.5,4.1,18.9c1,6.7-3,13.3-9.3,15.5c-2,0.8-4,1.7-6.1,2.3l46.9-7v-0.2c128-23.9,214-145,194.3-273.7
	C-306.9,239.9-423.2,150.3-551.4,163.9L-551.4,163.9z"/>
<path class="st41" d="M1398.6,197.1c35.4-24.1,70.7-35.5,110.1-34.4c71,2,124.1,49.8,125.8,120.8c0.9,38-6.7,76.4-12.5,114.4
	c-6.9,45-15.6,89.7-24.1,134.4c-5.7,30.2-18.2,40.4-49,40.9c-20.4,0.4-40.8,0.4-61.1,0c-31-0.6-39.3-10.9-34-43
	c9.7-58.7,20.2-117.3,30.1-176c6.1-36.4-3.6-58.7-28.1-66.5c-28.8-9.1-61.2,5-74.4,35.9c-7.9,18.4-11.7,38.8-15.5,58.6
	c-9.5,49.5-17.9,99.2-26.9,148.8c-5.4,30-18.4,41.5-48.2,42.1c-22.5,0.5-45,0.7-67.5-0.3c-23.5-1-33.1-12.7-29-35.8
	c28.7-162,57.8-324,86.8-486c3.4-19.3,14.7-31.6,34.1-35.4c27.6-5.4,55.1-10.9,82.9-15c20.9-3.1,33,10.9,29.4,34.8
	c-5.2,34.6-12.1,69-18.2,103.4C1406,156.8,1402.7,174.7,1398.6,197.1z"/>
<path class="st41" d="M444.8,398.1c11.1-20.5,20-36.8,28.7-53.1c24.4-45.7,49-91.4,73-137.3c14.4-27.5,35.1-42.7,67.5-40
	c14,1.2,28.3-1.4,42.1,0.7c13,1.9,30.1,4.2,36.6,12.8c4.8,6.4-2,24.8-8.2,35.3c-41.8,71.4-84.8,142-127.4,212.9
	c-36.1,60.1-70.9,121-109,179.8c-18,27.9-39.4,55.2-64.6,76.6c-48.2,41.1-106.1,49-166.7,33c-31.5-8.3-36.3-19.9-23.3-48.9
	c6.6-14.7,13.4-29.3,20-44c6.8-15.1,18-19.7,34.2-16.7c52,9.3,59,4.4,87.4-39.5c15.1-23.3,16.8-44,9-70.4
	C316.8,406,291.8,311.9,266,218.1c-9.6-35.1,1.8-49.8,38.8-50.2c19.7-0.2,39.4-0.2,59,0c26.2,0.3,37.6,8.4,42.7,34.2
	c11.9,59,22.6,118.3,33.8,177.5C441.2,384.2,442.5,388.6,444.8,398.1z"/>
<path class="st41" d="M66.5,573.3c-9.8,0-19.7,0.2-29.5,0c-31.8-0.6-40.9-10.5-35.6-41.5c9.9-58,20.5-115.9,31-173.7
	c17.8-98.6,35.7-197.1,53.5-295.6c6.3-34.6,14.8-43.4,49.6-50c20.7-3.9,41.5-7.5,62.2-11.2c28.6-5.1,41.9,7.1,37,35.9
	c-12.8,75.3-26.4,150.4-39.8,225.5c-15.4,86.2-30.8,172.4-46.3,258.5c-8,44.3-17.5,52.2-63.1,52.2C79.2,573.3,72.9,573.3,66.5,573.3
	z"/>
<path class="st41" d="M2326.8,215.9c7.5-6.7,12.6-11.2,17.7-15.7c44-38.9,94.8-46.2,149.8-31.2c23.5,6.4,28.3,17.1,19,39.1
	c-9.6,22.6-19.7,44.9-30.4,67c-8.2,16.7-21,23.4-39.9,16.1c-9.1-3.5-19-5.4-28.7-6.3c-46.9-4.4-78.1,16.8-87.4,62.8
	c-12.3,60.4-22,121.3-33.2,181.9c-6,32.3-18.9,43.2-51.3,43.6c-21.8,0.3-43.6,0.6-65.4-0.3c-23.9-1-34.5-14-30.3-37.6
	c19.1-109,38.5-218,58.2-326.9c5.1-28.1,20.8-40.1,50.2-40.6c8.4-0.1,16.9,0,25.3,0C2320.1,167.9,2326,173.6,2326.8,215.9z"/>
<path class="st41" d="M1144.3,273.6c-26.6-72-89.5-113.8-166.5-110.6c-45.3,1.9-81.7,22.8-115.3,56.2c0.5-47.3-3.6-51.4-49-51.4
	c-4.2,0-8.4,0-12.6,0c-37.4,0.1-50.2,10.9-56.7,47.7c-14.9,83.4-29.8,166.8-44.7,250.2c-12.8,71.7-25.7,143.3-38.3,215
	c-6.1,34.4,3.1,45.2,38.2,45.5c14.8,0.2,29.5,0,44.3,0c46.6,0,56.6-8.5,64.5-53.5c7.3-41.7,15-83.4,22.6-125.8
	c92.3,51.8,181.4,45.5,250.3-16.6C1148.6,469.4,1175.9,358.9,1144.3,273.6z M973,447.1c-25.1,17.7-53.6,21-81.8,6.2
	c-28.8-15.2-37.6-41.7-38.1-65.3c-0.1-51,22.9-86.8,59.5-99.4c46.6-16.1,89.8,8,98.4,56.3C1018.3,385.8,1008.1,422.2,973,447.1z"/>
<path class="st41" d="M2013.6,175.9c-110.1-42.6-248.7,10.6-301.6,115.7c-48,95.4-22.9,205.9,58.5,258.4
	c73.5,47.4,194.8,45,266.3-5.3c38.8-27.3,40.7-38.4,12.5-75.3c-25.3-33.1-28.3-33.7-64.7-10.2c-35.3,22.9-73.3,27.9-112.9,15.1
	c-31.9-10.3-48.3-37-44.8-71c7.4,0,15,0,22.6,0c73.1,0,146.2-0.3,219.4,0.1c21.8,0.1,36.1-7.9,42.3-29.6
	C2134.6,292.3,2092.4,206.4,2013.6,175.9z M1842,323.8c7.9-39.8,44-67,82.4-63c32.1,3.3,52.1,26.6,52.6,63
	C1931,323.8,1886.6,323.8,1842,323.8z"/>
</svg>
