<?xml version="1.0" encoding="iso-8859-1"?>
<!-- Generator: Adobe Illustrator 19.0.0, SVG Export Plug-In . SVG Version: 6.00 Build 0)  -->
<svg version="1.1" id="Capa_1" xmlns="http://www.w3.org/2000/svg" xmlns:xlink="http://www.w3.org/1999/xlink" x="0px" y="0px"
	 viewBox="0 0 512.001 512.001" style="enable-background:new 0 0 512.001 512.001;" xml:space="preserve">
<path style="fill:#886A5E;" d="M346.25,114.886H165.747c-100.486,0-132.601,121.163-126.762,182.471l217.013,27.735l217.013-27.735
	C478.85,236.049,446.736,114.886,346.25,114.886z"/>
<g>
	<path style="fill:#A18576;" d="M441.292,169.103l-39.82,16.276l-22.394,34.61l30.999,34.544l62.432,6.867l0,0
		C469.338,231.421,459.542,197.03,441.292,169.103z"/>
	<path style="fill:#A18576;" d="M39.489,261.399L39.489,261.399l62.433-6.867l27.892-34.544l-19.288-34.61l-39.82-16.276
		C52.455,197.03,42.659,231.421,39.489,261.399z"/>
</g>
<path style="fill:#F0F0F0;" d="M129.813,385.59c0,0,41.521,22.707,126.185,22.707s126.185-22.707,126.185-22.707v-55.145h-252.37
	V385.59z"/>
<path style="fill:#D9D9D9;" d="M382.184,330.444H129.813v40.719c5.527,3.13,11.459,6.016,17.788,8.644
	c41.539,17.24,89.644,19.101,108.398,19.101s66.858-1.861,108.397-19.101c6.329-2.627,12.261-5.512,17.788-8.644V330.444z"/>
<g>
	<path style="fill:#8EBA85;" d="M38.985,352.827c0,24.978-61.633,59.362-12.327,62.607s134.943-17.517,136.89-62.607l-61.708-27.734
		L38.985,352.827z"/>
	<path style="fill:#8EBA85;" d="M473.011,352.827c0,24.978,61.633,59.362,12.327,62.607c-49.306,3.244-134.943-17.517-136.89-62.607
		l61.708-27.734L473.011,352.827z"/>
</g>
<g>
	<path style="fill:#80A878;" d="M413.06,346.489c4.207-4.855,7.797-9.981,10.805-15.348l-13.71-6.049l-61.708,27.734
		c0.459,10.637,5.579,19.918,13.778,27.85c0.724-0.29,1.451-0.573,2.171-0.872C384.907,371.292,401.28,360.083,413.06,346.489z"/>
	<path style="fill:#80A878;" d="M88.131,331.142c3.007,5.367,6.598,10.493,10.805,15.348c11.78,13.594,28.153,24.803,48.665,33.316
		c0.72,0.299,1.447,0.582,2.171,0.872c8.199-7.934,13.318-17.214,13.778-27.851l-61.708-27.734L88.131,331.142z"/>
</g>
<path style="fill:#7A6154;" d="M473.011,297.357H38.985c-15.317,0-27.734,12.417-27.734,27.734l0,0
	c0,15.317,12.417,27.734,27.734,27.734h434.026c15.317,0,27.734-12.417,27.734-27.734l0,0
	C500.746,309.774,488.329,297.357,473.011,297.357z"/>
<path style="fill:#A2D497;" d="M255.998,373.912c58.064,0,154.082-16.868,154.082-86.934s8.434-190.738-154.082-190.738
	S101.916,216.91,101.916,286.977S197.934,373.912,255.998,373.912z"/>
<path style="fill:#8EBA85;" d="M131.911,286.977c0-67.838-7.904-183.108,139.085-190.375c-4.83-0.239-9.826-0.363-14.997-0.363
	c-162.517,0-154.082,120.671-154.082,190.738s96.018,86.934,154.082,86.934c4.767,0,9.793-0.116,14.997-0.364
	C212.807,370.781,131.911,351.291,131.911,286.977z"/>
<path d="M171.62,266.251v13.914c0,4.141,3.357,7.499,7.499,7.499c4.141,0,7.499-3.357,7.499-7.499v-13.914
	c0-4.142-3.357-7.499-7.499-7.499C174.977,258.752,171.62,262.109,171.62,266.251z"/>
<path d="M340.376,280.164v-13.914c0-4.142-3.357-7.499-7.499-7.499s-7.499,3.356-7.499,7.499v13.914
	c0,4.141,3.357,7.499,7.499,7.499S340.376,284.306,340.376,280.164z"/>
<path d="M269.327,274.261c-3.239,3.706-8.098,5.832-13.329,5.832s-10.089-2.126-13.329-5.832c-2.726-3.118-7.463-3.436-10.581-0.711
	c-3.118,2.726-3.436,7.463-0.711,10.581c6.088,6.965,15.061,10.959,24.621,10.959c9.559,0,18.534-3.994,24.621-10.958
	c2.726-3.118,2.408-7.856-0.711-10.581C276.789,270.825,272.052,271.143,269.327,274.261z"/>
<path d="M26.166,422.915c3.475,0.229,7.156,0.345,10.951,0.345c31.869,0,73.881-8.075,102.3-25.377
	c8.075,3.016,20.152,6.865,36.207,10.213c4.049,0.845,8.027-1.755,8.872-5.81c0.846-4.054-1.755-8.026-5.809-8.871
	c-9.856-2.057-18.086-4.296-24.705-6.384c0.378-0.352,0.731-0.71,1.097-1.065c5.127-4.973,9.595-10.87,12.426-17.461
	c29.751,9.73,61.093,12.228,79.609,12.769c0.085,0.002,0.17,0.005,0.254,0.007c5.755,0.168,11.493,0,17.246,0
	c0.099-0.003,0.199-0.006,0.299-0.009c18.52-0.542,49.846-3.043,79.581-12.769c2.841,6.601,7.243,12.427,12.376,17.413
	c0.386,0.375,0.76,0.754,1.161,1.126C337.793,393.46,304.13,400.795,256,400.795c-16.575,0-32.719-0.901-47.981-2.678
	c-4.116-0.477-7.837,2.468-8.316,6.582c-0.479,4.114,2.468,7.837,6.582,8.316c15.836,1.844,32.564,2.779,49.716,2.779
	c58.692,0,97.161-10.64,116.585-17.91c28.422,17.301,70.436,25.375,102.304,25.375c3.782,0,7.464-0.116,10.942-0.345
	c9.637-0.634,21.19-2.508,25.021-11.448c4.339-10.129-4.32-20.505-14.349-32.518c-5.219-6.252-11.359-13.621-14.278-19.855
	c14.972-4.061,26.021-17.763,26.021-34.003c0-16.686-11.665-30.691-27.265-34.313c1.79-37.569-8.755-87.361-32.996-125.044
	c-0.267-0.531-0.586-1.02-0.955-1.458c-4.26-6.472-8.917-12.584-14.007-18.182c-22.92-25.207-51.469-38.21-84.873-38.685
	c-6.668-3.417-13.958-6.452-21.961-9.023c-3.94-1.267-8.166,0.902-9.433,4.845c-1.268,3.942,0.902,8.166,4.845,9.433
	c18.088,5.812,35.115,15.467,48.064,29.52c30.247,32.908,32.925,81.564,32.991,122.167c0,0.122,0,0.244,0,0.366
	c0.042,21.016,0.202,43.953-14.426,60.762c-10.784,12.393-25.838,20.441-41.008,26.172c-30.849,11.655-65.536,14.216-84.236,14.674
	c-0.023,0.001-0.045,0.001-0.068,0.002c-4.613,0.11-9.23,0.113-13.844,0c-0.021,0-0.041,0-0.062-0.001
	c-18.696-0.458-53.376-3.017-84.225-14.669c-19.445-7.344-39.207-18.86-49.077-37.935c-5.861-11.327-6.266-24.22-6.332-36.701
	c-0.218-40.898-0.445-84.936,22.189-120.777c26.466-41.908,78.189-52.506,124.43-52.506c13.387,0,26.008,0.855,37.512,2.543
	c4.099,0.601,7.907-2.234,8.508-6.332c0.601-4.097-2.234-7.907-6.332-8.508C283.465,89.649,270.112,88.74,256,88.74
	c-36.955,0-67.731,6.266-91.984,18.667c-33.475,0.434-62.082,13.438-85.04,38.687c-5.542,6.095-10.507,12.719-14.962,19.641
	c-24.241,37.683-34.786,87.475-32.995,125.044c-15.6,3.622-27.265,17.627-27.265,34.313c0,16.24,11.048,29.943,26.021,34.003
	c-2.919,6.234-9.058,13.602-14.278,19.855C5.468,390.963-3.192,401.338,1.148,411.467C4.975,420.408,16.529,422.281,26.166,422.915z
	 M46.397,268.184l47.95-5.274c-0.028,8.969-0.203,17.986,0.121,26.949H45.976C45.664,282.997,45.817,275.698,46.397,268.184z
	 M466.019,289.859h-48.492c-0.165,0.003,0.55-26.901,0.121-26.949l47.95,5.274C466.178,275.698,466.331,282.997,466.019,289.859z
	 M496.91,405.486c0.408,2.216-19.782,2.777-22.023,2.777c-24.753,0-52.724-5.113-74.822-13.678
	c-12.879-4.992-34.064-15.321-41.474-31.321c0.402-0.169,4.779-2.093,6.548-2.939h101.516c2.871,9.71,10.706,19.097,18.334,28.235
	C489.261,393.679,496.27,402.077,496.91,405.486z M493.247,325.092c0,11.158-9.078,20.237-20.237,20.237h-83.771
	c13.732-11.225,22.526-24.762,26.274-40.472h57.497C484.168,304.856,493.247,313.935,493.247,325.092z M463.86,252.905
	l-46.429-5.106c-0.077-2.772-0.18-5.572-0.313-8.395c-0.001-0.027-0.003-0.055-0.004-0.082c-0.743-16.642-2.615-33.33-6.653-49.517
	l27.818-11.37c8.365,13.987,15.156,30.215,20.031,48.039C460.69,235.181,462.544,244.094,463.86,252.905z M421.925,156.183
	c2.716,2.986,5.323,6.179,7.834,9.532l-23.591,9.642c-6.287-18.05-15.985-34.973-30.909-49.004
	C392.876,131.445,408.499,141.419,421.925,156.183z M90.071,156.184c13.437-14.778,29.074-24.755,46.708-29.842
	c-10.688,10.032-19.238,22.089-25.778,36.277c-1.92,4.164-3.633,8.422-5.149,12.749l-23.615-9.651
	C84.748,162.362,87.355,159.171,90.071,156.184z M73.717,178.435l27.828,11.374c-0.245,0.979-0.482,1.959-0.711,2.94
	c-0.01,0.042-0.02,0.084-0.03,0.126c-4.258,18.315-5.755,37.173-6.244,54.923l-46.425,5.106c1.315-8.811,3.169-17.724,5.551-26.431
	C58.56,208.65,65.352,192.422,73.717,178.435z M18.749,325.092c0-11.158,9.078-20.236,20.237-20.236h57.498
	c3.746,15.709,12.541,29.247,26.274,40.472H38.985C27.826,345.328,18.749,336.25,18.749,325.092z M27.007,388.561
	c7.629-9.138,15.463-18.525,18.334-28.235h101.516c0.546,0.261,6.51,3.019,6.548,2.938c-7.41,16-28.596,26.331-41.474,31.323
	c-22.096,8.564-50.063,13.676-74.823,13.676c-6.569,0-16.159,0.821-22.022-2.777C15.723,402.079,22.735,393.68,27.007,388.561z"/>
<g>
</g>
<g>
</g>
<g>
</g>
<g>
</g>
<g>
</g>
<g>
</g>
<g>
</g>
<g>
</g>
<g>
</g>
<g>
</g>
<g>
</g>
<g>
</g>
<g>
</g>
<g>
</g>
<g>
</g>
</svg>
